solid ASCII
 facet normal 0 1 0
  outer loop
   vertex 1.1 0.93 0.65
   vertex 1.1 0.93 -0.65
   vertex -1 0.93 0.65
  endloop
 endfacet
 facet normal 0 1 0
  outer loop
   vertex -1 0.93 0.65
   vertex 1.1 0.93 -0.65
   vertex -1 0.93 -0.65
  endloop
 endfacet
 facet normal 0 -0 1
  outer loop
   vertex 1.1 -0.93 0.65
   vertex 1.1 0.93 0.65
   vertex -1 -0.93 0.65
  endloop
 endfacet
 facet normal 0 0 1
  outer loop
   vertex -1 -0.93 0.65
   vertex 1.1 0.93 0.65
   vertex -1 0.93 0.65
  endloop
 endfacet
 facet normal 0 -1 0
  outer loop
   vertex 1.1 -0.93 -0.65
   vertex 1.1 -0.93 0.65
   vertex -1 -0.93 -0.65
  endloop
 endfacet
 facet normal 0 -1 0
  outer loop
   vertex -1 -0.93 -0.65
   vertex 1.1 -0.93 0.65
   vertex -1 -0.93 0.65
  endloop
 endfacet
 facet normal -0 -0 -1
  outer loop
   vertex 1.1 0.93 -0.65
   vertex 1.1 -0.93 -0.65
   vertex -1 0.93 -0.65
  endloop
 endfacet
 facet normal 0 0 -1
  outer loop
   vertex -1 0.93 -0.65
   vertex 1.1 -0.93 -0.65
   vertex -1 -0.93 -0.65
  endloop
 endfacet
 facet normal -1 0 0
  outer loop
   vertex -1 -0.93 -0.65
   vertex -1 -0.93 0.65
   vertex -1 0.93 -0.65
  endloop
 endfacet
 facet normal -1 0 0
  outer loop
   vertex -1 0.93 -0.65
   vertex -1 -0.93 0.65
   vertex -1 0.93 0.65
  endloop
 endfacet
 facet normal 1 0 -0
  outer loop
   vertex 1.1 0.93 -0.65
   vertex 1.1 0.93 0.65
   vertex 1.1 -0.93 -0.65
  endloop
 endfacet
 facet normal 1 0 0
  outer loop
   vertex 1.1 -0.93 -0.65
   vertex 1.1 0.93 0.65
   vertex 1.1 -0.93 0.65
  endloop
 endfacet
endsolid ASCII
