solid ASCII
  facet normal -9.801714e-02 9.951847e-01 3.399622e-16
    outer loop
      vertex   5.100000e+00 2.430000e+00 3.150000e+00
      vertex   5.100000e+00 2.430000e+00 1.850000e+00
      vertex   5.080491e+00 2.428079e+00 3.148079e+00
    endloop
  endfacet
  facet normal -1.630374e-01 9.866194e-01 -9.898795e-04
    outer loop
      vertex   5.080491e+00 2.428079e+00 3.148079e+00
      vertex   5.100000e+00 2.430000e+00 1.850000e+00
      vertex   5.074118e+00 2.426593e+00 2.716667e+00
    endloop
  endfacet
  facet normal -2.905613e-01 9.568559e-01 9.964367e-04
    outer loop
      vertex   5.080491e+00 2.428079e+00 3.148079e+00
      vertex   5.074118e+00 2.426593e+00 2.716667e+00
      vertex   5.061732e+00 2.422388e+00 3.142388e+00
    endloop
  endfacet
  facet normal -3.826827e-01 9.238777e-01 -2.009559e-03
    outer loop
      vertex   5.061732e+00 2.422388e+00 3.142388e+00
      vertex   5.074118e+00 2.426593e+00 2.716667e+00
      vertex   5.050000e+00 2.416603e+00 2.716667e+00
    endloop
  endfacet
  facet normal -4.718205e-01 8.816940e-01 1.020086e-03
    outer loop
      vertex   5.061732e+00 2.422388e+00 3.142388e+00
      vertex   5.050000e+00 2.416603e+00 2.716667e+00
      vertex   5.044443e+00 2.413147e+00 3.133147e+00
    endloop
  endfacet
  facet normal -6.087607e-01 7.933524e-01 -1.540062e-03
    outer loop
      vertex   5.044443e+00 2.413147e+00 3.133147e+00
      vertex   5.050000e+00 2.416603e+00 2.716667e+00
      vertex   5.029289e+00 2.400711e+00 2.716667e+00
    endloop
  endfacet
  facet normal -6.343933e-01 7.730105e-01 0.000000e+00
    outer loop
      vertex   5.044443e+00 2.413147e+00 3.133147e+00
      vertex   5.029289e+00 2.400711e+00 2.716667e+00
      vertex   5.029289e+00 2.400711e+00 3.120711e+00
    endloop
  endfacet
  facet normal -7.730105e-01 6.343933e-01 0.000000e+00
    outer loop
      vertex   5.029289e+00 2.400711e+00 3.120711e+00
      vertex   5.029289e+00 2.400711e+00 2.716667e+00
      vertex   5.016853e+00 2.385557e+00 3.105557e+00
    endloop
  endfacet
  facet normal -7.933523e-01 6.087606e-01 -1.649322e-03
    outer loop
      vertex   5.016853e+00 2.385557e+00 3.105557e+00
      vertex   5.029289e+00 2.400711e+00 2.716667e+00
      vertex   5.013397e+00 2.380000e+00 2.716667e+00
    endloop
  endfacet
  facet normal -8.823847e-01 4.705274e-01 1.117072e-03
    outer loop
      vertex   5.016853e+00 2.385557e+00 3.105557e+00
      vertex   5.013397e+00 2.380000e+00 2.716667e+00
      vertex   5.007612e+00 2.368268e+00 3.088268e+00
    endloop
  endfacet
  facet normal -9.238771e-01 3.826824e-01 -2.302227e-03
    outer loop
      vertex   5.007612e+00 2.368268e+00 3.088268e+00
      vertex   5.013397e+00 2.380000e+00 2.716667e+00
      vertex   5.003407e+00 2.355882e+00 2.716667e+00
    endloop
  endfacet
  facet normal -9.572701e-01 2.891929e-01 1.191858e-03
    outer loop
      vertex   5.007612e+00 2.368268e+00 3.088268e+00
      vertex   5.003407e+00 2.355882e+00 2.716667e+00
      vertex   5.001921e+00 2.349509e+00 3.069509e+00
    endloop
  endfacet
  facet normal -9.914432e-01 1.305260e-01 -1.817823e-03
    outer loop
      vertex   5.001921e+00 2.349509e+00 3.069509e+00
      vertex   5.003407e+00 2.355882e+00 2.716667e+00
      vertex   5.000000e+00 2.330000e+00 2.716667e+00
    endloop
  endfacet
  facet normal -9.951847e-01 9.801714e-02 1.306622e-16
    outer loop
      vertex   5.001921e+00 2.349509e+00 3.069509e+00
      vertex   5.000000e+00 2.330000e+00 2.716667e+00
      vertex   5.000000e+00 2.330000e+00 3.050000e+00
    endloop
  endfacet
  facet normal -9.951847e-01 -9.801714e-02 -1.305851e-16
    outer loop
      vertex   5.000000e+00 2.330000e+00 3.050000e+00
      vertex   5.000000e+00 2.330000e+00 2.716667e+00
      vertex   5.001921e+00 2.310491e+00 3.030491e+00
    endloop
  endfacet
  facet normal -9.914428e-01 -1.305259e-01 -2.043834e-03
    outer loop
      vertex   5.001921e+00 2.310491e+00 3.030491e+00
      vertex   5.000000e+00 2.330000e+00 2.716667e+00
      vertex   5.003407e+00 2.304118e+00 2.716667e+00
    endloop
  endfacet
  facet normal -9.565520e-01 -2.915584e-01 1.391480e-03
    outer loop
      vertex   5.001921e+00 2.310491e+00 3.030491e+00
      vertex   5.003407e+00 2.304118e+00 2.716667e+00
      vertex   5.007612e+00 2.291732e+00 3.011732e+00
    endloop
  endfacet
  facet normal -9.238756e-01 -3.826818e-01 -2.899396e-03
    outer loop
      vertex   5.007612e+00 2.291732e+00 3.011732e+00
      vertex   5.003407e+00 2.304118e+00 2.716667e+00
      vertex   5.013397e+00 2.280000e+00 2.716667e+00
    endloop
  endfacet
  facet normal -8.812919e-01 -4.725698e-01 1.509461e-03
    outer loop
      vertex   5.007612e+00 2.291732e+00 3.011732e+00
      vertex   5.013397e+00 2.280000e+00 2.716667e+00
      vertex   5.016853e+00 2.274443e+00 2.994443e+00
    endloop
  endfacet
  facet normal -7.933512e-01 -6.087598e-01 -2.309068e-03
    outer loop
      vertex   5.016853e+00 2.274443e+00 2.994443e+00
      vertex   5.013397e+00 2.280000e+00 2.716667e+00
      vertex   5.029289e+00 2.259289e+00 2.716667e+00
    endloop
  endfacet
  facet normal -7.730105e-01 -6.343933e-01 0.000000e+00
    outer loop
      vertex   5.016853e+00 2.274443e+00 2.994443e+00
      vertex   5.029289e+00 2.259289e+00 2.716667e+00
      vertex   5.029289e+00 2.259289e+00 2.979289e+00
    endloop
  endfacet
  facet normal -6.343933e-01 -7.730105e-01 -0.000000e+00
    outer loop
      vertex   5.029289e+00 2.259289e+00 2.979289e+00
      vertex   5.029289e+00 2.259289e+00 2.716667e+00
      vertex   5.044443e+00 2.246853e+00 2.966853e+00
    endloop
  endfacet
  facet normal -6.087594e-01 -7.933507e-01 -2.563705e-03
    outer loop
      vertex   5.044443e+00 2.246853e+00 2.966853e+00
      vertex   5.029289e+00 2.259289e+00 2.716667e+00
      vertex   5.050000e+00 2.243397e+00 2.716667e+00
    endloop
  endfacet
  facet normal -4.706758e-01 -8.823045e-01 1.731975e-03
    outer loop
      vertex   5.044443e+00 2.246853e+00 2.966853e+00
      vertex   5.050000e+00 2.243397e+00 2.716667e+00
      vertex   5.061732e+00 2.237612e+00 2.957612e+00
    endloop
  endfacet
  facet normal -3.826810e-01 -9.238737e-01 -3.550632e-03
    outer loop
      vertex   5.061732e+00 2.237612e+00 2.957612e+00
      vertex   5.050000e+00 2.243397e+00 2.716667e+00
      vertex   5.074118e+00 2.233407e+00 2.716667e+00
    endloop
  endfacet
  facet normal -2.897828e-01 -9.570907e-01 1.804701e-03
    outer loop
      vertex   5.061732e+00 2.237612e+00 2.957612e+00
      vertex   5.074118e+00 2.233407e+00 2.716667e+00
      vertex   5.080491e+00 2.231921e+00 2.951921e+00
    endloop
  endfacet
  facet normal -9.836969e-02 -9.951434e-01 -3.620888e-03
    outer loop
      vertex   5.080491e+00 2.231921e+00 2.951921e+00
      vertex   5.074118e+00 2.233407e+00 2.716667e+00
      vertex   5.100000e+00 2.230000e+00 2.950000e+00
    endloop
  endfacet
  facet normal -1.305262e-01 -9.914449e-01 0.000000e+00
    outer loop
      vertex   5.100000e+00 2.230000e+00 2.950000e+00
      vertex   5.074118e+00 2.233407e+00 2.716667e+00
      vertex   5.074118e+00 2.233407e+00 2.283333e+00
    endloop
  endfacet
  facet normal -1.708255e-01 -9.853000e-01 1.595941e-03
    outer loop
      vertex   5.100000e+00 2.230000e+00 2.950000e+00
      vertex   5.074118e+00 2.233407e+00 2.283333e+00
      vertex   5.080491e+00 2.231921e+00 2.048079e+00
    endloop
  endfacet
  facet normal -2.897828e-01 -9.570907e-01 -1.804701e-03
    outer loop
      vertex   5.080491e+00 2.231921e+00 2.048079e+00
      vertex   5.074118e+00 2.233407e+00 2.283333e+00
      vertex   5.061732e+00 2.237612e+00 2.042388e+00
    endloop
  endfacet
  facet normal -3.826810e-01 -9.238737e-01 3.550632e-03
    outer loop
      vertex   5.061732e+00 2.237612e+00 2.042388e+00
      vertex   5.074118e+00 2.233407e+00 2.283333e+00
      vertex   5.050000e+00 2.243397e+00 2.283333e+00
    endloop
  endfacet
  facet normal -4.706758e-01 -8.823045e-01 -1.731975e-03
    outer loop
      vertex   5.061732e+00 2.237612e+00 2.042388e+00
      vertex   5.050000e+00 2.243397e+00 2.283333e+00
      vertex   5.044443e+00 2.246853e+00 2.033147e+00
    endloop
  endfacet
  facet normal -6.087594e-01 -7.933507e-01 2.563705e-03
    outer loop
      vertex   5.044443e+00 2.246853e+00 2.033147e+00
      vertex   5.050000e+00 2.243397e+00 2.283333e+00
      vertex   5.029289e+00 2.259289e+00 2.283333e+00
    endloop
  endfacet
  facet normal -6.343933e-01 -7.730105e-01 -1.310948e-15
    outer loop
      vertex   5.044443e+00 2.246853e+00 2.033147e+00
      vertex   5.029289e+00 2.259289e+00 2.283333e+00
      vertex   5.029289e+00 2.259289e+00 2.020711e+00
    endloop
  endfacet
  facet normal -7.730105e-01 -6.343933e-01 -1.072745e-15
    outer loop
      vertex   5.029289e+00 2.259289e+00 2.020711e+00
      vertex   5.029289e+00 2.259289e+00 2.283333e+00
      vertex   5.016853e+00 2.274443e+00 2.005557e+00
    endloop
  endfacet
  facet normal -7.933512e-01 -6.087598e-01 2.309068e-03
    outer loop
      vertex   5.016853e+00 2.274443e+00 2.005557e+00
      vertex   5.029289e+00 2.259289e+00 2.283333e+00
      vertex   5.013397e+00 2.280000e+00 2.283333e+00
    endloop
  endfacet
  facet normal -8.812919e-01 -4.725698e-01 -1.509461e-03
    outer loop
      vertex   5.016853e+00 2.274443e+00 2.005557e+00
      vertex   5.013397e+00 2.280000e+00 2.283333e+00
      vertex   5.007612e+00 2.291732e+00 1.988268e+00
    endloop
  endfacet
  facet normal -9.238756e-01 -3.826818e-01 2.899396e-03
    outer loop
      vertex   5.007612e+00 2.291732e+00 1.988268e+00
      vertex   5.013397e+00 2.280000e+00 2.283333e+00
      vertex   5.003407e+00 2.304118e+00 2.283333e+00
    endloop
  endfacet
  facet normal -9.565520e-01 -2.915584e-01 -1.391480e-03
    outer loop
      vertex   5.007612e+00 2.291732e+00 1.988268e+00
      vertex   5.003407e+00 2.304118e+00 2.283333e+00
      vertex   5.001921e+00 2.310491e+00 1.969509e+00
    endloop
  endfacet
  facet normal -9.914428e-01 -1.305259e-01 2.043834e-03
    outer loop
      vertex   5.001921e+00 2.310491e+00 1.969509e+00
      vertex   5.003407e+00 2.304118e+00 2.283333e+00
      vertex   5.000000e+00 2.330000e+00 2.283333e+00
    endloop
  endfacet
  facet normal -9.951847e-01 -9.801714e-02 -1.306622e-16
    outer loop
      vertex   5.001921e+00 2.310491e+00 1.969509e+00
      vertex   5.000000e+00 2.330000e+00 2.283333e+00
      vertex   5.000000e+00 2.330000e+00 1.950000e+00
    endloop
  endfacet
  facet normal -9.951847e-01 9.801714e-02 1.305851e-16
    outer loop
      vertex   5.000000e+00 2.330000e+00 1.950000e+00
      vertex   5.000000e+00 2.330000e+00 2.283333e+00
      vertex   5.001921e+00 2.349509e+00 1.930491e+00
    endloop
  endfacet
  facet normal -9.914432e-01 1.305260e-01 1.817823e-03
    outer loop
      vertex   5.001921e+00 2.349509e+00 1.930491e+00
      vertex   5.000000e+00 2.330000e+00 2.283333e+00
      vertex   5.003407e+00 2.355882e+00 2.283333e+00
    endloop
  endfacet
  facet normal -9.572701e-01 2.891929e-01 -1.191858e-03
    outer loop
      vertex   5.001921e+00 2.349509e+00 1.930491e+00
      vertex   5.003407e+00 2.355882e+00 2.283333e+00
      vertex   5.007612e+00 2.368268e+00 1.911732e+00
    endloop
  endfacet
  facet normal -9.238771e-01 3.826824e-01 2.302227e-03
    outer loop
      vertex   5.007612e+00 2.368268e+00 1.911732e+00
      vertex   5.003407e+00 2.355882e+00 2.283333e+00
      vertex   5.013397e+00 2.380000e+00 2.283333e+00
    endloop
  endfacet
  facet normal -8.823847e-01 4.705274e-01 -1.117072e-03
    outer loop
      vertex   5.007612e+00 2.368268e+00 1.911732e+00
      vertex   5.013397e+00 2.380000e+00 2.283333e+00
      vertex   5.016853e+00 2.385557e+00 1.894443e+00
    endloop
  endfacet
  facet normal -7.933523e-01 6.087606e-01 1.649322e-03
    outer loop
      vertex   5.016853e+00 2.385557e+00 1.894443e+00
      vertex   5.013397e+00 2.380000e+00 2.283333e+00
      vertex   5.029289e+00 2.400711e+00 2.283333e+00
    endloop
  endfacet
  facet normal -7.730105e-01 6.343933e-01 6.946813e-16
    outer loop
      vertex   5.016853e+00 2.385557e+00 1.894443e+00
      vertex   5.029289e+00 2.400711e+00 2.283333e+00
      vertex   5.029289e+00 2.400711e+00 1.879289e+00
    endloop
  endfacet
  facet normal -6.343933e-01 7.730105e-01 8.496243e-16
    outer loop
      vertex   5.029289e+00 2.400711e+00 1.879289e+00
      vertex   5.029289e+00 2.400711e+00 2.283333e+00
      vertex   5.044443e+00 2.413147e+00 1.866853e+00
    endloop
  endfacet
  facet normal -6.087607e-01 7.933524e-01 1.540062e-03
    outer loop
      vertex   5.044443e+00 2.413147e+00 1.866853e+00
      vertex   5.029289e+00 2.400711e+00 2.283333e+00
      vertex   5.050000e+00 2.416603e+00 2.283333e+00
    endloop
  endfacet
  facet normal -4.718205e-01 8.816940e-01 -1.020086e-03
    outer loop
      vertex   5.044443e+00 2.413147e+00 1.866853e+00
      vertex   5.050000e+00 2.416603e+00 2.283333e+00
      vertex   5.061732e+00 2.422388e+00 1.857612e+00
    endloop
  endfacet
  facet normal -3.826827e-01 9.238777e-01 2.009559e-03
    outer loop
      vertex   5.061732e+00 2.422388e+00 1.857612e+00
      vertex   5.050000e+00 2.416603e+00 2.283333e+00
      vertex   5.074118e+00 2.426593e+00 2.283333e+00
    endloop
  endfacet
  facet normal -2.905613e-01 9.568559e-01 -9.964367e-04
    outer loop
      vertex   5.061732e+00 2.422388e+00 1.857612e+00
      vertex   5.074118e+00 2.426593e+00 2.283333e+00
      vertex   5.080491e+00 2.428079e+00 1.851921e+00
    endloop
  endfacet
  facet normal -9.782353e-02 9.952018e-01 1.982789e-03
    outer loop
      vertex   5.080491e+00 2.428079e+00 1.851921e+00
      vertex   5.074118e+00 2.426593e+00 2.283333e+00
      vertex   5.100000e+00 2.430000e+00 1.850000e+00
    endloop
  endfacet
  facet normal -1.305262e-01 9.914449e-01 1.015936e-15
    outer loop
      vertex   5.100000e+00 2.430000e+00 1.850000e+00
      vertex   5.074118e+00 2.426593e+00 2.283333e+00
      vertex   5.074118e+00 2.426593e+00 2.716667e+00
    endloop
  endfacet
  facet normal -9.801714e-02 -9.951847e-01 0.000000e+00
    outer loop
      vertex   5.080491e+00 2.231921e+00 2.048079e+00
      vertex   5.100000e+00 2.230000e+00 2.050000e+00
      vertex   5.100000e+00 2.230000e+00 2.950000e+00
    endloop
  endfacet
  facet normal -3.826834e-01 9.238795e-01 9.464499e-16
    outer loop
      vertex   5.050000e+00 2.416603e+00 2.716667e+00
      vertex   5.074118e+00 2.426593e+00 2.716667e+00
      vertex   5.074118e+00 2.426593e+00 2.283333e+00
    endloop
  endfacet
  facet normal -6.087614e-01 7.933533e-01 8.098736e-16
    outer loop
      vertex   5.029289e+00 2.400711e+00 2.716667e+00
      vertex   5.050000e+00 2.416603e+00 2.716667e+00
      vertex   5.050000e+00 2.416603e+00 2.283333e+00
    endloop
  endfacet
  facet normal -3.826834e-01 9.238795e-01 9.468114e-16
    outer loop
      vertex   5.050000e+00 2.416603e+00 2.283333e+00
      vertex   5.050000e+00 2.416603e+00 2.716667e+00
      vertex   5.074118e+00 2.426593e+00 2.283333e+00
    endloop
  endfacet
  facet normal -7.933533e-01 6.087614e-01 6.229797e-16
    outer loop
      vertex   5.013397e+00 2.380000e+00 2.716667e+00
      vertex   5.029289e+00 2.400711e+00 2.716667e+00
      vertex   5.029289e+00 2.400711e+00 2.283333e+00
    endloop
  endfacet
  facet normal -6.087614e-01 7.933533e-01 8.130454e-16
    outer loop
      vertex   5.029289e+00 2.400711e+00 2.283333e+00
      vertex   5.029289e+00 2.400711e+00 2.716667e+00
      vertex   5.050000e+00 2.416603e+00 2.283333e+00
    endloop
  endfacet
  facet normal -9.238795e-01 3.826834e-01 3.905603e-16
    outer loop
      vertex   5.003407e+00 2.355882e+00 2.716667e+00
      vertex   5.013397e+00 2.380000e+00 2.716667e+00
      vertex   5.013397e+00 2.380000e+00 2.283333e+00
    endloop
  endfacet
  facet normal -7.933533e-01 6.087614e-01 6.238717e-16
    outer loop
      vertex   5.013397e+00 2.380000e+00 2.283333e+00
      vertex   5.013397e+00 2.380000e+00 2.716667e+00
      vertex   5.029289e+00 2.400711e+00 2.283333e+00
    endloop
  endfacet
  facet normal -9.914449e-01 1.305262e-01 1.341802e-16
    outer loop
      vertex   5.000000e+00 2.330000e+00 2.716667e+00
      vertex   5.003407e+00 2.355882e+00 2.716667e+00
      vertex   5.003407e+00 2.355882e+00 2.283333e+00
    endloop
  endfacet
  facet normal -9.238795e-01 3.826834e-01 3.921821e-16
    outer loop
      vertex   5.003407e+00 2.355882e+00 2.283333e+00
      vertex   5.003407e+00 2.355882e+00 2.716667e+00
      vertex   5.013397e+00 2.380000e+00 2.283333e+00
    endloop
  endfacet
  facet normal -9.914449e-01 -1.305262e-01 0.000000e+00
    outer loop
      vertex   5.003407e+00 2.304118e+00 2.716667e+00
      vertex   5.000000e+00 2.330000e+00 2.716667e+00
      vertex   5.000000e+00 2.330000e+00 2.283333e+00
    endloop
  endfacet
  facet normal -9.914449e-01 1.305262e-01 0.000000e+00
    outer loop
      vertex   5.000000e+00 2.330000e+00 2.283333e+00
      vertex   5.000000e+00 2.330000e+00 2.716667e+00
      vertex   5.003407e+00 2.355882e+00 2.283333e+00
    endloop
  endfacet
  facet normal -9.238795e-01 -3.826834e-01 0.000000e+00
    outer loop
      vertex   5.013397e+00 2.280000e+00 2.716667e+00
      vertex   5.003407e+00 2.304118e+00 2.716667e+00
      vertex   5.003407e+00 2.304118e+00 2.283333e+00
    endloop
  endfacet
  facet normal -9.914449e-01 -1.305262e-01 0.000000e+00
    outer loop
      vertex   5.003407e+00 2.304118e+00 2.283333e+00
      vertex   5.003407e+00 2.304118e+00 2.716667e+00
      vertex   5.000000e+00 2.330000e+00 2.283333e+00
    endloop
  endfacet
  facet normal -7.933533e-01 -6.087614e-01 0.000000e+00
    outer loop
      vertex   5.029289e+00 2.259289e+00 2.716667e+00
      vertex   5.013397e+00 2.280000e+00 2.716667e+00
      vertex   5.013397e+00 2.280000e+00 2.283333e+00
    endloop
  endfacet
  facet normal -9.238795e-01 -3.826834e-01 0.000000e+00
    outer loop
      vertex   5.013397e+00 2.280000e+00 2.283333e+00
      vertex   5.013397e+00 2.280000e+00 2.716667e+00
      vertex   5.003407e+00 2.304118e+00 2.283333e+00
    endloop
  endfacet
  facet normal -6.087614e-01 -7.933533e-01 0.000000e+00
    outer loop
      vertex   5.050000e+00 2.243397e+00 2.716667e+00
      vertex   5.029289e+00 2.259289e+00 2.716667e+00
      vertex   5.029289e+00 2.259289e+00 2.283333e+00
    endloop
  endfacet
  facet normal -7.933533e-01 -6.087614e-01 0.000000e+00
    outer loop
      vertex   5.029289e+00 2.259289e+00 2.283333e+00
      vertex   5.029289e+00 2.259289e+00 2.716667e+00
      vertex   5.013397e+00 2.280000e+00 2.283333e+00
    endloop
  endfacet
  facet normal -3.826834e-01 -9.238795e-01 0.000000e+00
    outer loop
      vertex   5.074118e+00 2.233407e+00 2.716667e+00
      vertex   5.050000e+00 2.243397e+00 2.716667e+00
      vertex   5.050000e+00 2.243397e+00 2.283333e+00
    endloop
  endfacet
  facet normal -6.087614e-01 -7.933533e-01 0.000000e+00
    outer loop
      vertex   5.050000e+00 2.243397e+00 2.283333e+00
      vertex   5.050000e+00 2.243397e+00 2.716667e+00
      vertex   5.029289e+00 2.259289e+00 2.283333e+00
    endloop
  endfacet
  facet normal -3.826834e-01 -9.238795e-01 0.000000e+00
    outer loop
      vertex   5.074118e+00 2.233407e+00 2.283333e+00
      vertex   5.074118e+00 2.233407e+00 2.716667e+00
      vertex   5.050000e+00 2.243397e+00 2.283333e+00
    endloop
  endfacet
  facet normal 4.993762e-02 -9.987523e-01 0.000000e+00
    outer loop
      vertex   5.100000e+00 2.230000e+00 2.950000e+00
      vertex   5.100000e+00 2.230000e+00 2.050000e+00
      vertex   5.600000e+00 2.255000e+00 2.975000e+00
    endloop
  endfacet
  facet normal 4.993762e-02 -9.987523e-01 -9.337582e-16
    outer loop
      vertex   5.600000e+00 2.255000e+00 2.975000e+00
      vertex   5.100000e+00 2.230000e+00 2.050000e+00
      vertex   5.600000e+00 2.255000e+00 2.025000e+00
    endloop
  endfacet
  facet normal -9.801714e-02 4.752159e-16 9.951847e-01
    outer loop
      vertex   5.100000e+00 5.700000e-01 3.150000e+00
      vertex   5.100000e+00 2.430000e+00 3.150000e+00
      vertex   5.080491e+00 5.719215e-01 3.148079e+00
    endloop
  endfacet
  facet normal -1.722695e-01 7.900995e-04 9.850495e-01
    outer loop
      vertex   5.080491e+00 5.719215e-01 3.148079e+00
      vertex   5.100000e+00 2.430000e+00 3.150000e+00
      vertex   5.074118e+00 1.035000e+00 3.146593e+00
    endloop
  endfacet
  facet normal -2.905423e-01 -9.280174e-04 9.568617e-01
    outer loop
      vertex   5.080491e+00 5.719215e-01 3.148079e+00
      vertex   5.074118e+00 1.035000e+00 3.146593e+00
      vertex   5.061732e+00 5.776120e-01 3.142388e+00
    endloop
  endfacet
  facet normal -3.826828e-01 1.870430e-03 9.238779e-01
    outer loop
      vertex   5.061732e+00 5.776120e-01 3.142388e+00
      vertex   5.074118e+00 1.035000e+00 3.146593e+00
      vertex   5.050000e+00 1.035000e+00 3.136603e+00
    endloop
  endfacet
  facet normal -4.717908e-01 -9.484974e-04 8.817100e-01
    outer loop
      vertex   5.061732e+00 5.776120e-01 3.142388e+00
      vertex   5.050000e+00 1.035000e+00 3.136603e+00
      vertex   5.044443e+00 5.868530e-01 3.133147e+00
    endloop
  endfacet
  facet normal -6.087608e-01 1.431239e-03 7.933525e-01
    outer loop
      vertex   5.044443e+00 5.868530e-01 3.133147e+00
      vertex   5.050000e+00 1.035000e+00 3.136603e+00
      vertex   5.029289e+00 1.035000e+00 3.120711e+00
    endloop
  endfacet
  facet normal -6.343933e-01 0.000000e+00 7.730105e-01
    outer loop
      vertex   5.044443e+00 5.868530e-01 3.133147e+00
      vertex   5.029289e+00 1.035000e+00 3.120711e+00
      vertex   5.029289e+00 5.992893e-01 3.120711e+00
    endloop
  endfacet
  facet normal -7.730105e-01 0.000000e+00 6.343933e-01
    outer loop
      vertex   5.029289e+00 5.992893e-01 3.120711e+00
      vertex   5.029289e+00 1.035000e+00 3.120711e+00
      vertex   5.016853e+00 6.144430e-01 3.105557e+00
    endloop
  endfacet
  facet normal -7.933524e-01 1.525133e-03 6.087607e-01
    outer loop
      vertex   5.016853e+00 6.144430e-01 3.105557e+00
      vertex   5.029289e+00 1.035000e+00 3.120711e+00
      vertex   5.013397e+00 1.035000e+00 3.100000e+00
    endloop
  endfacet
  facet normal -8.823494e-01 -1.031792e-03 4.705938e-01
    outer loop
      vertex   5.016853e+00 6.144430e-01 3.105557e+00
      vertex   5.013397e+00 1.035000e+00 3.100000e+00
      vertex   5.007612e+00 6.317317e-01 3.088268e+00
    endloop
  endfacet
  facet normal -9.238775e-01 2.121446e-03 3.826826e-01
    outer loop
      vertex   5.007612e+00 6.317317e-01 3.088268e+00
      vertex   5.013397e+00 1.035000e+00 3.100000e+00
      vertex   5.003407e+00 1.035000e+00 3.075882e+00
    endloop
  endfacet
  facet normal -9.572435e-01 -1.095271e-03 2.892814e-01
    outer loop
      vertex   5.007612e+00 6.317317e-01 3.088268e+00
      vertex   5.003407e+00 1.035000e+00 3.075882e+00
      vertex   5.001921e+00 6.504910e-01 3.069509e+00
    endloop
  endfacet
  facet normal -9.914435e-01 1.668115e-03 1.305260e-01
    outer loop
      vertex   5.001921e+00 6.504910e-01 3.069509e+00
      vertex   5.003407e+00 1.035000e+00 3.075882e+00
      vertex   5.000000e+00 1.035000e+00 3.050000e+00
    endloop
  endfacet
  facet normal -9.951847e-01 0.000000e+00 9.801714e-02
    outer loop
      vertex   5.001921e+00 6.504910e-01 3.069509e+00
      vertex   5.000000e+00 1.035000e+00 3.050000e+00
      vertex   5.000000e+00 6.700000e-01 3.050000e+00
    endloop
  endfacet
  facet normal -9.951847e-01 0.000000e+00 -9.801714e-02
    outer loop
      vertex   5.000000e+00 6.700000e-01 3.050000e+00
      vertex   5.000000e+00 1.035000e+00 3.050000e+00
      vertex   5.001921e+00 6.895090e-01 3.030491e+00
    endloop
  endfacet
  facet normal -9.914432e-01 1.856503e-03 -1.305260e-01
    outer loop
      vertex   5.001921e+00 6.895090e-01 3.030491e+00
      vertex   5.000000e+00 1.035000e+00 3.050000e+00
      vertex   5.003407e+00 1.035000e+00 3.024118e+00
    endloop
  endfacet
  facet normal -9.565884e-01 -1.261592e-03 -2.914395e-01
    outer loop
      vertex   5.001921e+00 6.895090e-01 3.030491e+00
      vertex   5.003407e+00 1.035000e+00 3.024118e+00
      vertex   5.007612e+00 7.082683e-01 3.011732e+00
    endloop
  endfacet
  facet normal -9.238764e-01 2.618390e-03 -3.826821e-01
    outer loop
      vertex   5.007612e+00 7.082683e-01 3.011732e+00
      vertex   5.003407e+00 1.035000e+00 3.024118e+00
      vertex   5.013397e+00 1.035000e+00 3.000000e+00
    endloop
  endfacet
  facet normal -8.813553e-01 -1.357814e-03 -4.724521e-01
    outer loop
      vertex   5.007612e+00 7.082683e-01 3.011732e+00
      vertex   5.013397e+00 1.035000e+00 3.000000e+00
      vertex   5.016853e+00 7.255570e-01 2.994443e+00
    endloop
  endfacet
  facet normal -7.933516e-01 2.072772e-03 -6.087601e-01
    outer loop
      vertex   5.016853e+00 7.255570e-01 2.994443e+00
      vertex   5.013397e+00 1.035000e+00 3.000000e+00
      vertex   5.029289e+00 1.035000e+00 2.979289e+00
    endloop
  endfacet
  facet normal -7.730105e-01 0.000000e+00 -6.343933e-01
    outer loop
      vertex   5.016853e+00 7.255570e-01 2.994443e+00
      vertex   5.029289e+00 1.035000e+00 2.979289e+00
      vertex   5.029289e+00 7.407107e-01 2.979289e+00
    endloop
  endfacet
  facet normal -6.343933e-01 0.000000e+00 -7.730105e-01
    outer loop
      vertex   5.029289e+00 7.407107e-01 2.979289e+00
      vertex   5.029289e+00 1.035000e+00 2.979289e+00
      vertex   5.044443e+00 7.531470e-01 2.966853e+00
    endloop
  endfacet
  facet normal -6.087599e-01 2.275670e-03 -7.933513e-01
    outer loop
      vertex   5.044443e+00 7.531470e-01 2.966853e+00
      vertex   5.029289e+00 1.035000e+00 2.979289e+00
      vertex   5.050000e+00 1.035000e+00 2.963397e+00
    endloop
  endfacet
  facet normal -4.707578e-01 -1.535237e-03 -8.822611e-01
    outer loop
      vertex   5.044443e+00 7.531470e-01 2.966853e+00
      vertex   5.050000e+00 1.035000e+00 2.963397e+00
      vertex   5.061732e+00 7.623880e-01 2.957612e+00
    endloop
  endfacet
  facet normal -3.826815e-01 3.138195e-03 -9.238750e-01
    outer loop
      vertex   5.061732e+00 7.623880e-01 2.957612e+00
      vertex   5.050000e+00 1.035000e+00 2.963397e+00
      vertex   5.074118e+00 1.035000e+00 2.953407e+00
    endloop
  endfacet
  facet normal -2.898420e-01 -1.592107e-03 -9.570732e-01
    outer loop
      vertex   5.061732e+00 7.623880e-01 2.957612e+00
      vertex   5.074118e+00 1.035000e+00 2.953407e+00
      vertex   5.080491e+00 7.680785e-01 2.951921e+00
    endloop
  endfacet
  facet normal -9.832803e-02 3.192343e-03 -9.951489e-01
    outer loop
      vertex   5.080491e+00 7.680785e-01 2.951921e+00
      vertex   5.074118e+00 1.035000e+00 2.953407e+00
      vertex   5.100000e+00 7.700000e-01 2.950000e+00
    endloop
  endfacet
  facet normal -1.305262e-01 0.000000e+00 -9.914449e-01
    outer loop
      vertex   5.100000e+00 7.700000e-01 2.950000e+00
      vertex   5.074118e+00 1.035000e+00 2.953407e+00
      vertex   5.074118e+00 1.500000e+00 2.953407e+00
    endloop
  endfacet
  facet normal -1.305262e-01 0.000000e+00 -9.914449e-01
    outer loop
      vertex   5.100000e+00 7.700000e-01 2.950000e+00
      vertex   5.074118e+00 1.500000e+00 2.953407e+00
      vertex   5.074118e+00 1.965000e+00 2.953407e+00
    endloop
  endfacet
  facet normal -3.826834e-01 -0.000000e+00 -9.238795e-01
    outer loop
      vertex   5.074118e+00 1.965000e+00 2.953407e+00
      vertex   5.074118e+00 1.500000e+00 2.953407e+00
      vertex   5.050000e+00 1.965000e+00 2.963397e+00
    endloop
  endfacet
  facet normal -3.826815e-01 -3.138195e-03 -9.238750e-01
    outer loop
      vertex   5.074118e+00 1.965000e+00 2.953407e+00
      vertex   5.050000e+00 1.965000e+00 2.963397e+00
      vertex   5.061732e+00 2.237612e+00 2.957612e+00
    endloop
  endfacet
  facet normal -4.707578e-01 1.535237e-03 -8.822611e-01
    outer loop
      vertex   5.061732e+00 2.237612e+00 2.957612e+00
      vertex   5.050000e+00 1.965000e+00 2.963397e+00
      vertex   5.044443e+00 2.246853e+00 2.966853e+00
    endloop
  endfacet
  facet normal -6.087599e-01 -2.275670e-03 -7.933513e-01
    outer loop
      vertex   5.044443e+00 2.246853e+00 2.966853e+00
      vertex   5.050000e+00 1.965000e+00 2.963397e+00
      vertex   5.029289e+00 1.965000e+00 2.979289e+00
    endloop
  endfacet
  facet normal -6.343933e-01 -1.165186e-15 -7.730105e-01
    outer loop
      vertex   5.044443e+00 2.246853e+00 2.966853e+00
      vertex   5.029289e+00 1.965000e+00 2.979289e+00
      vertex   5.029289e+00 2.259289e+00 2.979289e+00
    endloop
  endfacet
  facet normal -7.730105e-01 -9.573137e-16 -6.343933e-01
    outer loop
      vertex   5.029289e+00 2.259289e+00 2.979289e+00
      vertex   5.029289e+00 1.965000e+00 2.979289e+00
      vertex   5.016853e+00 2.274443e+00 2.994443e+00
    endloop
  endfacet
  facet normal -7.933516e-01 -2.072772e-03 -6.087601e-01
    outer loop
      vertex   5.016853e+00 2.274443e+00 2.994443e+00
      vertex   5.029289e+00 1.965000e+00 2.979289e+00
      vertex   5.013397e+00 1.965000e+00 3.000000e+00
    endloop
  endfacet
  facet normal -8.813553e-01 1.357814e-03 -4.724521e-01
    outer loop
      vertex   5.016853e+00 2.274443e+00 2.994443e+00
      vertex   5.013397e+00 1.965000e+00 3.000000e+00
      vertex   5.007612e+00 2.291732e+00 3.011732e+00
    endloop
  endfacet
  facet normal -9.238764e-01 -2.618390e-03 -3.826821e-01
    outer loop
      vertex   5.007612e+00 2.291732e+00 3.011732e+00
      vertex   5.013397e+00 1.965000e+00 3.000000e+00
      vertex   5.003407e+00 1.965000e+00 3.024118e+00
    endloop
  endfacet
  facet normal -9.565884e-01 1.261592e-03 -2.914395e-01
    outer loop
      vertex   5.007612e+00 2.291732e+00 3.011732e+00
      vertex   5.003407e+00 1.965000e+00 3.024118e+00
      vertex   5.001921e+00 2.310491e+00 3.030491e+00
    endloop
  endfacet
  facet normal -9.914432e-01 -1.856503e-03 -1.305260e-01
    outer loop
      vertex   5.001921e+00 2.310491e+00 3.030491e+00
      vertex   5.003407e+00 1.965000e+00 3.024118e+00
      vertex   5.000000e+00 1.965000e+00 3.050000e+00
    endloop
  endfacet
  facet normal -9.951847e-01 0.000000e+00 -9.801714e-02
    outer loop
      vertex   5.001921e+00 2.310491e+00 3.030491e+00
      vertex   5.000000e+00 1.965000e+00 3.050000e+00
      vertex   5.000000e+00 2.330000e+00 3.050000e+00
    endloop
  endfacet
  facet normal -9.951847e-01 0.000000e+00 9.801714e-02
    outer loop
      vertex   5.000000e+00 2.330000e+00 3.050000e+00
      vertex   5.000000e+00 1.965000e+00 3.050000e+00
      vertex   5.001921e+00 2.349509e+00 3.069509e+00
    endloop
  endfacet
  facet normal -9.914435e-01 -1.668115e-03 1.305260e-01
    outer loop
      vertex   5.001921e+00 2.349509e+00 3.069509e+00
      vertex   5.000000e+00 1.965000e+00 3.050000e+00
      vertex   5.003407e+00 1.965000e+00 3.075882e+00
    endloop
  endfacet
  facet normal -9.572435e-01 1.095271e-03 2.892814e-01
    outer loop
      vertex   5.001921e+00 2.349509e+00 3.069509e+00
      vertex   5.003407e+00 1.965000e+00 3.075882e+00
      vertex   5.007612e+00 2.368268e+00 3.088268e+00
    endloop
  endfacet
  facet normal -9.238775e-01 -2.121446e-03 3.826826e-01
    outer loop
      vertex   5.007612e+00 2.368268e+00 3.088268e+00
      vertex   5.003407e+00 1.965000e+00 3.075882e+00
      vertex   5.013397e+00 1.965000e+00 3.100000e+00
    endloop
  endfacet
  facet normal -8.823494e-01 1.031792e-03 4.705938e-01
    outer loop
      vertex   5.007612e+00 2.368268e+00 3.088268e+00
      vertex   5.013397e+00 1.965000e+00 3.100000e+00
      vertex   5.016853e+00 2.385557e+00 3.105557e+00
    endloop
  endfacet
  facet normal -7.933524e-01 -1.525133e-03 6.087607e-01
    outer loop
      vertex   5.016853e+00 2.385557e+00 3.105557e+00
      vertex   5.013397e+00 1.965000e+00 3.100000e+00
      vertex   5.029289e+00 1.965000e+00 3.120711e+00
    endloop
  endfacet
  facet normal -7.730105e-01 6.441931e-16 6.343933e-01
    outer loop
      vertex   5.016853e+00 2.385557e+00 3.105557e+00
      vertex   5.029289e+00 1.965000e+00 3.120711e+00
      vertex   5.029289e+00 2.400711e+00 3.120711e+00
    endloop
  endfacet
  facet normal -6.343933e-01 7.878751e-16 7.730105e-01
    outer loop
      vertex   5.029289e+00 2.400711e+00 3.120711e+00
      vertex   5.029289e+00 1.965000e+00 3.120711e+00
      vertex   5.044443e+00 2.413147e+00 3.133147e+00
    endloop
  endfacet
  facet normal -6.087608e-01 -1.431239e-03 7.933525e-01
    outer loop
      vertex   5.044443e+00 2.413147e+00 3.133147e+00
      vertex   5.029289e+00 1.965000e+00 3.120711e+00
      vertex   5.050000e+00 1.965000e+00 3.136603e+00
    endloop
  endfacet
  facet normal -4.717908e-01 9.484974e-04 8.817100e-01
    outer loop
      vertex   5.044443e+00 2.413147e+00 3.133147e+00
      vertex   5.050000e+00 1.965000e+00 3.136603e+00
      vertex   5.061732e+00 2.422388e+00 3.142388e+00
    endloop
  endfacet
  facet normal -3.826828e-01 -1.870430e-03 9.238779e-01
    outer loop
      vertex   5.061732e+00 2.422388e+00 3.142388e+00
      vertex   5.050000e+00 1.965000e+00 3.136603e+00
      vertex   5.074118e+00 1.965000e+00 3.146593e+00
    endloop
  endfacet
  facet normal -2.905423e-01 9.280174e-04 9.568617e-01
    outer loop
      vertex   5.061732e+00 2.422388e+00 3.142388e+00
      vertex   5.074118e+00 1.965000e+00 3.146593e+00
      vertex   5.080491e+00 2.428079e+00 3.148079e+00
    endloop
  endfacet
  facet normal -9.783680e-02 -1.847014e-03 9.952008e-01
    outer loop
      vertex   5.080491e+00 2.428079e+00 3.148079e+00
      vertex   5.074118e+00 1.965000e+00 3.146593e+00
      vertex   5.100000e+00 2.430000e+00 3.150000e+00
    endloop
  endfacet
  facet normal -1.305262e-01 0.000000e+00 9.914449e-01
    outer loop
      vertex   5.100000e+00 2.430000e+00 3.150000e+00
      vertex   5.074118e+00 1.965000e+00 3.146593e+00
      vertex   5.074118e+00 1.500000e+00 3.146593e+00
    endloop
  endfacet
  facet normal -1.305262e-01 0.000000e+00 9.914449e-01
    outer loop
      vertex   5.100000e+00 2.430000e+00 3.150000e+00
      vertex   5.074118e+00 1.500000e+00 3.146593e+00
      vertex   5.074118e+00 1.035000e+00 3.146593e+00
    endloop
  endfacet
  facet normal -3.826834e-01 0.000000e+00 9.238795e-01
    outer loop
      vertex   5.074118e+00 1.035000e+00 3.146593e+00
      vertex   5.074118e+00 1.500000e+00 3.146593e+00
      vertex   5.050000e+00 1.035000e+00 3.136603e+00
    endloop
  endfacet
  facet normal -2.898420e-01 1.592107e-03 -9.570732e-01
    outer loop
      vertex   5.061732e+00 2.237612e+00 2.957612e+00
      vertex   5.080491e+00 2.231921e+00 2.951921e+00
      vertex   5.074118e+00 1.965000e+00 2.953407e+00
    endloop
  endfacet
  facet normal -1.818001e-01 -1.133641e-03 -9.833349e-01
    outer loop
      vertex   5.074118e+00 1.965000e+00 2.953407e+00
      vertex   5.080491e+00 2.231921e+00 2.951921e+00
      vertex   5.100000e+00 7.700000e-01 2.950000e+00
    endloop
  endfacet
  facet normal -9.801714e-02 0.000000e+00 -9.951847e-01
    outer loop
      vertex   5.080491e+00 2.231921e+00 2.951921e+00
      vertex   5.100000e+00 2.230000e+00 2.950000e+00
      vertex   5.100000e+00 7.700000e-01 2.950000e+00
    endloop
  endfacet
  facet normal -3.826834e-01 0.000000e+00 9.238795e-01
    outer loop
      vertex   5.074118e+00 1.500000e+00 3.146593e+00
      vertex   5.074118e+00 1.965000e+00 3.146593e+00
      vertex   5.050000e+00 1.500000e+00 3.136603e+00
    endloop
  endfacet
  facet normal -3.826834e-01 0.000000e+00 9.238795e-01
    outer loop
      vertex   5.050000e+00 1.500000e+00 3.136603e+00
      vertex   5.074118e+00 1.965000e+00 3.146593e+00
      vertex   5.050000e+00 1.965000e+00 3.136603e+00
    endloop
  endfacet
  facet normal -6.087614e-01 0.000000e+00 7.933533e-01
    outer loop
      vertex   5.050000e+00 1.500000e+00 3.136603e+00
      vertex   5.050000e+00 1.965000e+00 3.136603e+00
      vertex   5.029289e+00 1.500000e+00 3.120711e+00
    endloop
  endfacet
  facet normal -6.087614e-01 0.000000e+00 7.933533e-01
    outer loop
      vertex   5.029289e+00 1.500000e+00 3.120711e+00
      vertex   5.050000e+00 1.965000e+00 3.136603e+00
      vertex   5.029289e+00 1.965000e+00 3.120711e+00
    endloop
  endfacet
  facet normal -7.933533e-01 0.000000e+00 6.087614e-01
    outer loop
      vertex   5.029289e+00 1.500000e+00 3.120711e+00
      vertex   5.029289e+00 1.965000e+00 3.120711e+00
      vertex   5.013397e+00 1.500000e+00 3.100000e+00
    endloop
  endfacet
  facet normal -7.933533e-01 0.000000e+00 6.087614e-01
    outer loop
      vertex   5.013397e+00 1.500000e+00 3.100000e+00
      vertex   5.029289e+00 1.965000e+00 3.120711e+00
      vertex   5.013397e+00 1.965000e+00 3.100000e+00
    endloop
  endfacet
  facet normal -9.238795e-01 0.000000e+00 3.826834e-01
    outer loop
      vertex   5.013397e+00 1.500000e+00 3.100000e+00
      vertex   5.013397e+00 1.965000e+00 3.100000e+00
      vertex   5.003407e+00 1.500000e+00 3.075882e+00
    endloop
  endfacet
  facet normal -9.238795e-01 0.000000e+00 3.826834e-01
    outer loop
      vertex   5.003407e+00 1.500000e+00 3.075882e+00
      vertex   5.013397e+00 1.965000e+00 3.100000e+00
      vertex   5.003407e+00 1.965000e+00 3.075882e+00
    endloop
  endfacet
  facet normal -9.914449e-01 0.000000e+00 1.305262e-01
    outer loop
      vertex   5.003407e+00 1.500000e+00 3.075882e+00
      vertex   5.003407e+00 1.965000e+00 3.075882e+00
      vertex   5.000000e+00 1.500000e+00 3.050000e+00
    endloop
  endfacet
  facet normal -9.914449e-01 1.246565e-16 1.305262e-01
    outer loop
      vertex   5.000000e+00 1.500000e+00 3.050000e+00
      vertex   5.003407e+00 1.965000e+00 3.075882e+00
      vertex   5.000000e+00 1.965000e+00 3.050000e+00
    endloop
  endfacet
  facet normal -9.914449e-01 -1.246565e-16 -1.305262e-01
    outer loop
      vertex   5.000000e+00 1.500000e+00 3.050000e+00
      vertex   5.000000e+00 1.965000e+00 3.050000e+00
      vertex   5.003407e+00 1.500000e+00 3.024118e+00
    endloop
  endfacet
  facet normal -9.914449e-01 0.000000e+00 -1.305262e-01
    outer loop
      vertex   5.003407e+00 1.500000e+00 3.024118e+00
      vertex   5.000000e+00 1.965000e+00 3.050000e+00
      vertex   5.003407e+00 1.965000e+00 3.024118e+00
    endloop
  endfacet
  facet normal -9.238795e-01 0.000000e+00 -3.826834e-01
    outer loop
      vertex   5.003407e+00 1.500000e+00 3.024118e+00
      vertex   5.003407e+00 1.965000e+00 3.024118e+00
      vertex   5.013397e+00 1.500000e+00 3.000000e+00
    endloop
  endfacet
  facet normal -9.238795e-01 0.000000e+00 -3.826834e-01
    outer loop
      vertex   5.013397e+00 1.500000e+00 3.000000e+00
      vertex   5.003407e+00 1.965000e+00 3.024118e+00
      vertex   5.013397e+00 1.965000e+00 3.000000e+00
    endloop
  endfacet
  facet normal -7.933533e-01 0.000000e+00 -6.087614e-01
    outer loop
      vertex   5.013397e+00 1.500000e+00 3.000000e+00
      vertex   5.013397e+00 1.965000e+00 3.000000e+00
      vertex   5.029289e+00 1.500000e+00 2.979289e+00
    endloop
  endfacet
  facet normal -7.933533e-01 0.000000e+00 -6.087614e-01
    outer loop
      vertex   5.029289e+00 1.500000e+00 2.979289e+00
      vertex   5.013397e+00 1.965000e+00 3.000000e+00
      vertex   5.029289e+00 1.965000e+00 2.979289e+00
    endloop
  endfacet
  facet normal -6.087614e-01 0.000000e+00 -7.933533e-01
    outer loop
      vertex   5.029289e+00 1.500000e+00 2.979289e+00
      vertex   5.029289e+00 1.965000e+00 2.979289e+00
      vertex   5.050000e+00 1.500000e+00 2.963397e+00
    endloop
  endfacet
  facet normal -6.087614e-01 0.000000e+00 -7.933533e-01
    outer loop
      vertex   5.050000e+00 1.500000e+00 2.963397e+00
      vertex   5.029289e+00 1.965000e+00 2.979289e+00
      vertex   5.050000e+00 1.965000e+00 2.963397e+00
    endloop
  endfacet
  facet normal -3.826834e-01 0.000000e+00 -9.238795e-01
    outer loop
      vertex   5.050000e+00 1.500000e+00 2.963397e+00
      vertex   5.050000e+00 1.965000e+00 2.963397e+00
      vertex   5.074118e+00 1.500000e+00 2.953407e+00
    endloop
  endfacet
  facet normal -6.087614e-01 0.000000e+00 7.933533e-01
    outer loop
      vertex   5.029289e+00 1.035000e+00 3.120711e+00
      vertex   5.050000e+00 1.035000e+00 3.136603e+00
      vertex   5.050000e+00 1.500000e+00 3.136603e+00
    endloop
  endfacet
  facet normal -3.826834e-01 0.000000e+00 9.238795e-01
    outer loop
      vertex   5.050000e+00 1.500000e+00 3.136603e+00
      vertex   5.050000e+00 1.035000e+00 3.136603e+00
      vertex   5.074118e+00 1.500000e+00 3.146593e+00
    endloop
  endfacet
  facet normal -6.087614e-01 0.000000e+00 7.933533e-01
    outer loop
      vertex   5.029289e+00 1.035000e+00 3.120711e+00
      vertex   5.050000e+00 1.500000e+00 3.136603e+00
      vertex   5.029289e+00 1.500000e+00 3.120711e+00
    endloop
  endfacet
  facet normal -7.933533e-01 0.000000e+00 6.087614e-01
    outer loop
      vertex   5.013397e+00 1.035000e+00 3.100000e+00
      vertex   5.029289e+00 1.035000e+00 3.120711e+00
      vertex   5.029289e+00 1.500000e+00 3.120711e+00
    endloop
  endfacet
  facet normal -7.933533e-01 0.000000e+00 6.087614e-01
    outer loop
      vertex   5.013397e+00 1.035000e+00 3.100000e+00
      vertex   5.029289e+00 1.500000e+00 3.120711e+00
      vertex   5.013397e+00 1.500000e+00 3.100000e+00
    endloop
  endfacet
  facet normal -9.238795e-01 0.000000e+00 3.826834e-01
    outer loop
      vertex   5.003407e+00 1.035000e+00 3.075882e+00
      vertex   5.013397e+00 1.035000e+00 3.100000e+00
      vertex   5.013397e+00 1.500000e+00 3.100000e+00
    endloop
  endfacet
  facet normal -9.238795e-01 0.000000e+00 3.826834e-01
    outer loop
      vertex   5.003407e+00 1.035000e+00 3.075882e+00
      vertex   5.013397e+00 1.500000e+00 3.100000e+00
      vertex   5.003407e+00 1.500000e+00 3.075882e+00
    endloop
  endfacet
  facet normal -9.914449e-01 0.000000e+00 1.305262e-01
    outer loop
      vertex   5.000000e+00 1.035000e+00 3.050000e+00
      vertex   5.003407e+00 1.035000e+00 3.075882e+00
      vertex   5.003407e+00 1.500000e+00 3.075882e+00
    endloop
  endfacet
  facet normal -9.914449e-01 0.000000e+00 1.305262e-01
    outer loop
      vertex   5.000000e+00 1.035000e+00 3.050000e+00
      vertex   5.003407e+00 1.500000e+00 3.075882e+00
      vertex   5.000000e+00 1.500000e+00 3.050000e+00
    endloop
  endfacet
  facet normal -9.914449e-01 0.000000e+00 -1.305262e-01
    outer loop
      vertex   5.003407e+00 1.035000e+00 3.024118e+00
      vertex   5.000000e+00 1.035000e+00 3.050000e+00
      vertex   5.000000e+00 1.500000e+00 3.050000e+00
    endloop
  endfacet
  facet normal -9.914449e-01 0.000000e+00 -1.305262e-01
    outer loop
      vertex   5.003407e+00 1.035000e+00 3.024118e+00
      vertex   5.000000e+00 1.500000e+00 3.050000e+00
      vertex   5.003407e+00 1.500000e+00 3.024118e+00
    endloop
  endfacet
  facet normal -9.238795e-01 0.000000e+00 -3.826834e-01
    outer loop
      vertex   5.013397e+00 1.035000e+00 3.000000e+00
      vertex   5.003407e+00 1.035000e+00 3.024118e+00
      vertex   5.003407e+00 1.500000e+00 3.024118e+00
    endloop
  endfacet
  facet normal -9.238795e-01 0.000000e+00 -3.826834e-01
    outer loop
      vertex   5.013397e+00 1.035000e+00 3.000000e+00
      vertex   5.003407e+00 1.500000e+00 3.024118e+00
      vertex   5.013397e+00 1.500000e+00 3.000000e+00
    endloop
  endfacet
  facet normal -7.933533e-01 0.000000e+00 -6.087614e-01
    outer loop
      vertex   5.029289e+00 1.035000e+00 2.979289e+00
      vertex   5.013397e+00 1.035000e+00 3.000000e+00
      vertex   5.013397e+00 1.500000e+00 3.000000e+00
    endloop
  endfacet
  facet normal -7.933533e-01 0.000000e+00 -6.087614e-01
    outer loop
      vertex   5.029289e+00 1.035000e+00 2.979289e+00
      vertex   5.013397e+00 1.500000e+00 3.000000e+00
      vertex   5.029289e+00 1.500000e+00 2.979289e+00
    endloop
  endfacet
  facet normal -6.087614e-01 0.000000e+00 -7.933533e-01
    outer loop
      vertex   5.050000e+00 1.035000e+00 2.963397e+00
      vertex   5.029289e+00 1.035000e+00 2.979289e+00
      vertex   5.029289e+00 1.500000e+00 2.979289e+00
    endloop
  endfacet
  facet normal -6.087614e-01 0.000000e+00 -7.933533e-01
    outer loop
      vertex   5.050000e+00 1.035000e+00 2.963397e+00
      vertex   5.029289e+00 1.500000e+00 2.979289e+00
      vertex   5.050000e+00 1.500000e+00 2.963397e+00
    endloop
  endfacet
  facet normal -3.826834e-01 0.000000e+00 -9.238795e-01
    outer loop
      vertex   5.074118e+00 1.035000e+00 2.953407e+00
      vertex   5.050000e+00 1.035000e+00 2.963397e+00
      vertex   5.050000e+00 1.500000e+00 2.963397e+00
    endloop
  endfacet
  facet normal -3.826834e-01 0.000000e+00 -9.238795e-01
    outer loop
      vertex   5.074118e+00 1.035000e+00 2.953407e+00
      vertex   5.050000e+00 1.500000e+00 2.963397e+00
      vertex   5.074118e+00 1.500000e+00 2.953407e+00
    endloop
  endfacet
  facet normal -9.801714e-02 -9.951847e-01 1.699811e-16
    outer loop
      vertex   5.100000e+00 5.700000e-01 1.850000e+00
      vertex   5.100000e+00 5.700000e-01 3.150000e+00
      vertex   5.080491e+00 5.719215e-01 1.851921e+00
    endloop
  endfacet
  facet normal -1.630374e-01 -9.866194e-01 9.898795e-04
    outer loop
      vertex   5.080491e+00 5.719215e-01 1.851921e+00
      vertex   5.100000e+00 5.700000e-01 3.150000e+00
      vertex   5.074118e+00 5.734074e-01 2.283333e+00
    endloop
  endfacet
  facet normal -2.905613e-01 -9.568559e-01 -9.964367e-04
    outer loop
      vertex   5.080491e+00 5.719215e-01 1.851921e+00
      vertex   5.074118e+00 5.734074e-01 2.283333e+00
      vertex   5.061732e+00 5.776120e-01 1.857612e+00
    endloop
  endfacet
  facet normal -3.826827e-01 -9.238777e-01 2.009559e-03
    outer loop
      vertex   5.061732e+00 5.776120e-01 1.857612e+00
      vertex   5.074118e+00 5.734074e-01 2.283333e+00
      vertex   5.050000e+00 5.833975e-01 2.283333e+00
    endloop
  endfacet
  facet normal -4.718205e-01 -8.816940e-01 -1.020086e-03
    outer loop
      vertex   5.061732e+00 5.776120e-01 1.857612e+00
      vertex   5.050000e+00 5.833975e-01 2.283333e+00
      vertex   5.044443e+00 5.868530e-01 1.866853e+00
    endloop
  endfacet
  facet normal -6.087607e-01 -7.933524e-01 1.540062e-03
    outer loop
      vertex   5.044443e+00 5.868530e-01 1.866853e+00
      vertex   5.050000e+00 5.833975e-01 2.283333e+00
      vertex   5.029289e+00 5.992893e-01 2.283333e+00
    endloop
  endfacet
  facet normal -6.343933e-01 -7.730105e-01 0.000000e+00
    outer loop
      vertex   5.044443e+00 5.868530e-01 1.866853e+00
      vertex   5.029289e+00 5.992893e-01 2.283333e+00
      vertex   5.029289e+00 5.992893e-01 1.879289e+00
    endloop
  endfacet
  facet normal -7.730105e-01 -6.343933e-01 0.000000e+00
    outer loop
      vertex   5.029289e+00 5.992893e-01 1.879289e+00
      vertex   5.029289e+00 5.992893e-01 2.283333e+00
      vertex   5.016853e+00 6.144430e-01 1.894443e+00
    endloop
  endfacet
  facet normal -7.933523e-01 -6.087606e-01 1.649322e-03
    outer loop
      vertex   5.016853e+00 6.144430e-01 1.894443e+00
      vertex   5.029289e+00 5.992893e-01 2.283333e+00
      vertex   5.013397e+00 6.200000e-01 2.283333e+00
    endloop
  endfacet
  facet normal -8.823847e-01 -4.705274e-01 -1.117072e-03
    outer loop
      vertex   5.016853e+00 6.144430e-01 1.894443e+00
      vertex   5.013397e+00 6.200000e-01 2.283333e+00
      vertex   5.007612e+00 6.317317e-01 1.911732e+00
    endloop
  endfacet
  facet normal -9.238771e-01 -3.826824e-01 2.302227e-03
    outer loop
      vertex   5.007612e+00 6.317317e-01 1.911732e+00
      vertex   5.013397e+00 6.200000e-01 2.283333e+00
      vertex   5.003407e+00 6.441181e-01 2.283333e+00
    endloop
  endfacet
  facet normal -9.572701e-01 -2.891929e-01 -1.191858e-03
    outer loop
      vertex   5.007612e+00 6.317317e-01 1.911732e+00
      vertex   5.003407e+00 6.441181e-01 2.283333e+00
      vertex   5.001921e+00 6.504910e-01 1.930491e+00
    endloop
  endfacet
  facet normal -9.914432e-01 -1.305260e-01 1.817823e-03
    outer loop
      vertex   5.001921e+00 6.504910e-01 1.930491e+00
      vertex   5.003407e+00 6.441181e-01 2.283333e+00
      vertex   5.000000e+00 6.700000e-01 2.283333e+00
    endloop
  endfacet
  facet normal -9.951847e-01 -9.801714e-02 0.000000e+00
    outer loop
      vertex   5.001921e+00 6.504910e-01 1.930491e+00
      vertex   5.000000e+00 6.700000e-01 2.283333e+00
      vertex   5.000000e+00 6.700000e-01 1.950000e+00
    endloop
  endfacet
  facet normal -9.951847e-01 9.801714e-02 0.000000e+00
    outer loop
      vertex   5.000000e+00 6.700000e-01 1.950000e+00
      vertex   5.000000e+00 6.700000e-01 2.283333e+00
      vertex   5.001921e+00 6.895090e-01 1.969509e+00
    endloop
  endfacet
  facet normal -9.914428e-01 1.305259e-01 2.043834e-03
    outer loop
      vertex   5.001921e+00 6.895090e-01 1.969509e+00
      vertex   5.000000e+00 6.700000e-01 2.283333e+00
      vertex   5.003407e+00 6.958819e-01 2.283333e+00
    endloop
  endfacet
  facet normal -9.565520e-01 2.915584e-01 -1.391480e-03
    outer loop
      vertex   5.001921e+00 6.895090e-01 1.969509e+00
      vertex   5.003407e+00 6.958819e-01 2.283333e+00
      vertex   5.007612e+00 7.082683e-01 1.988268e+00
    endloop
  endfacet
  facet normal -9.238756e-01 3.826818e-01 2.899396e-03
    outer loop
      vertex   5.007612e+00 7.082683e-01 1.988268e+00
      vertex   5.003407e+00 6.958819e-01 2.283333e+00
      vertex   5.013397e+00 7.200000e-01 2.283333e+00
    endloop
  endfacet
  facet normal -8.812919e-01 4.725698e-01 -1.509461e-03
    outer loop
      vertex   5.007612e+00 7.082683e-01 1.988268e+00
      vertex   5.013397e+00 7.200000e-01 2.283333e+00
      vertex   5.016853e+00 7.255570e-01 2.005557e+00
    endloop
  endfacet
  facet normal -7.933512e-01 6.087598e-01 2.309068e-03
    outer loop
      vertex   5.016853e+00 7.255570e-01 2.005557e+00
      vertex   5.013397e+00 7.200000e-01 2.283333e+00
      vertex   5.029289e+00 7.407107e-01 2.283333e+00
    endloop
  endfacet
  facet normal -7.730105e-01 6.343933e-01 0.000000e+00
    outer loop
      vertex   5.016853e+00 7.255570e-01 2.005557e+00
      vertex   5.029289e+00 7.407107e-01 2.283333e+00
      vertex   5.029289e+00 7.407107e-01 2.020711e+00
    endloop
  endfacet
  facet normal -6.343933e-01 7.730105e-01 0.000000e+00
    outer loop
      vertex   5.029289e+00 7.407107e-01 2.020711e+00
      vertex   5.029289e+00 7.407107e-01 2.283333e+00
      vertex   5.044443e+00 7.531470e-01 2.033147e+00
    endloop
  endfacet
  facet normal -6.087594e-01 7.933507e-01 2.563705e-03
    outer loop
      vertex   5.044443e+00 7.531470e-01 2.033147e+00
      vertex   5.029289e+00 7.407107e-01 2.283333e+00
      vertex   5.050000e+00 7.566025e-01 2.283333e+00
    endloop
  endfacet
  facet normal -4.706758e-01 8.823045e-01 -1.731975e-03
    outer loop
      vertex   5.044443e+00 7.531470e-01 2.033147e+00
      vertex   5.050000e+00 7.566025e-01 2.283333e+00
      vertex   5.061732e+00 7.623880e-01 2.042388e+00
    endloop
  endfacet
  facet normal -3.826810e-01 9.238737e-01 3.550632e-03
    outer loop
      vertex   5.061732e+00 7.623880e-01 2.042388e+00
      vertex   5.050000e+00 7.566025e-01 2.283333e+00
      vertex   5.074118e+00 7.665926e-01 2.283333e+00
    endloop
  endfacet
  facet normal -2.897828e-01 9.570907e-01 -1.804701e-03
    outer loop
      vertex   5.061732e+00 7.623880e-01 2.042388e+00
      vertex   5.074118e+00 7.665926e-01 2.283333e+00
      vertex   5.080491e+00 7.680785e-01 2.048079e+00
    endloop
  endfacet
  facet normal -9.836969e-02 9.951434e-01 3.620888e-03
    outer loop
      vertex   5.080491e+00 7.680785e-01 2.048079e+00
      vertex   5.074118e+00 7.665926e-01 2.283333e+00
      vertex   5.100000e+00 7.700000e-01 2.050000e+00
    endloop
  endfacet
  facet normal -1.305262e-01 9.914449e-01 0.000000e+00
    outer loop
      vertex   5.100000e+00 7.700000e-01 2.050000e+00
      vertex   5.074118e+00 7.665926e-01 2.283333e+00
      vertex   5.074118e+00 7.665926e-01 2.716667e+00
    endloop
  endfacet
  facet normal -1.708255e-01 9.853000e-01 -1.595941e-03
    outer loop
      vertex   5.100000e+00 7.700000e-01 2.050000e+00
      vertex   5.074118e+00 7.665926e-01 2.716667e+00
      vertex   5.080491e+00 7.680785e-01 2.951921e+00
    endloop
  endfacet
  facet normal -2.897828e-01 9.570907e-01 1.804701e-03
    outer loop
      vertex   5.080491e+00 7.680785e-01 2.951921e+00
      vertex   5.074118e+00 7.665926e-01 2.716667e+00
      vertex   5.061732e+00 7.623880e-01 2.957612e+00
    endloop
  endfacet
  facet normal -3.826810e-01 9.238737e-01 -3.550632e-03
    outer loop
      vertex   5.061732e+00 7.623880e-01 2.957612e+00
      vertex   5.074118e+00 7.665926e-01 2.716667e+00
      vertex   5.050000e+00 7.566025e-01 2.716667e+00
    endloop
  endfacet
  facet normal -4.706758e-01 8.823045e-01 1.731975e-03
    outer loop
      vertex   5.061732e+00 7.623880e-01 2.957612e+00
      vertex   5.050000e+00 7.566025e-01 2.716667e+00
      vertex   5.044443e+00 7.531470e-01 2.966853e+00
    endloop
  endfacet
  facet normal -6.087594e-01 7.933507e-01 -2.563705e-03
    outer loop
      vertex   5.044443e+00 7.531470e-01 2.966853e+00
      vertex   5.050000e+00 7.566025e-01 2.716667e+00
      vertex   5.029289e+00 7.407107e-01 2.716667e+00
    endloop
  endfacet
  facet normal -6.343933e-01 7.730105e-01 -9.792623e-16
    outer loop
      vertex   5.044443e+00 7.531470e-01 2.966853e+00
      vertex   5.029289e+00 7.407107e-01 2.716667e+00
      vertex   5.029289e+00 7.407107e-01 2.979289e+00
    endloop
  endfacet
  facet normal -7.730105e-01 6.343933e-01 -8.045590e-16
    outer loop
      vertex   5.029289e+00 7.407107e-01 2.979289e+00
      vertex   5.029289e+00 7.407107e-01 2.716667e+00
      vertex   5.016853e+00 7.255570e-01 2.994443e+00
    endloop
  endfacet
  facet normal -7.933512e-01 6.087598e-01 -2.309068e-03
    outer loop
      vertex   5.016853e+00 7.255570e-01 2.994443e+00
      vertex   5.029289e+00 7.407107e-01 2.716667e+00
      vertex   5.013397e+00 7.200000e-01 2.716667e+00
    endloop
  endfacet
  facet normal -8.812919e-01 4.725698e-01 1.509461e-03
    outer loop
      vertex   5.016853e+00 7.255570e-01 2.994443e+00
      vertex   5.013397e+00 7.200000e-01 2.716667e+00
      vertex   5.007612e+00 7.082683e-01 3.011732e+00
    endloop
  endfacet
  facet normal -9.238756e-01 3.826818e-01 -2.899396e-03
    outer loop
      vertex   5.007612e+00 7.082683e-01 3.011732e+00
      vertex   5.013397e+00 7.200000e-01 2.716667e+00
      vertex   5.003407e+00 6.958819e-01 2.716667e+00
    endloop
  endfacet
  facet normal -9.565520e-01 2.915584e-01 1.391480e-03
    outer loop
      vertex   5.007612e+00 7.082683e-01 3.011732e+00
      vertex   5.003407e+00 6.958819e-01 2.716667e+00
      vertex   5.001921e+00 6.895090e-01 3.030491e+00
    endloop
  endfacet
  facet normal -9.914428e-01 1.305259e-01 -2.043834e-03
    outer loop
      vertex   5.001921e+00 6.895090e-01 3.030491e+00
      vertex   5.003407e+00 6.958819e-01 2.716667e+00
      vertex   5.000000e+00 6.700000e-01 2.716667e+00
    endloop
  endfacet
  facet normal -9.951847e-01 9.801714e-02 -3.214706e-17
    outer loop
      vertex   5.001921e+00 6.895090e-01 3.030491e+00
      vertex   5.000000e+00 6.700000e-01 2.716667e+00
      vertex   5.000000e+00 6.700000e-01 3.050000e+00
    endloop
  endfacet
  facet normal -9.951847e-01 -9.801714e-02 3.264627e-17
    outer loop
      vertex   5.000000e+00 6.700000e-01 3.050000e+00
      vertex   5.000000e+00 6.700000e-01 2.716667e+00
      vertex   5.001921e+00 6.504910e-01 3.069509e+00
    endloop
  endfacet
  facet normal -9.914432e-01 -1.305260e-01 -1.817823e-03
    outer loop
      vertex   5.001921e+00 6.504910e-01 3.069509e+00
      vertex   5.000000e+00 6.700000e-01 2.716667e+00
      vertex   5.003407e+00 6.441181e-01 2.716667e+00
    endloop
  endfacet
  facet normal -9.572701e-01 -2.891929e-01 1.191858e-03
    outer loop
      vertex   5.001921e+00 6.504910e-01 3.069509e+00
      vertex   5.003407e+00 6.441181e-01 2.716667e+00
      vertex   5.007612e+00 6.317317e-01 3.088268e+00
    endloop
  endfacet
  facet normal -9.238771e-01 -3.826824e-01 -2.302227e-03
    outer loop
      vertex   5.007612e+00 6.317317e-01 3.088268e+00
      vertex   5.003407e+00 6.441181e-01 2.716667e+00
      vertex   5.013397e+00 6.200000e-01 2.716667e+00
    endloop
  endfacet
  facet normal -8.823847e-01 -4.705274e-01 1.117072e-03
    outer loop
      vertex   5.007612e+00 6.317317e-01 3.088268e+00
      vertex   5.013397e+00 6.200000e-01 2.716667e+00
      vertex   5.016853e+00 6.144430e-01 3.105557e+00
    endloop
  endfacet
  facet normal -7.933523e-01 -6.087606e-01 -1.649322e-03
    outer loop
      vertex   5.016853e+00 6.144430e-01 3.105557e+00
      vertex   5.013397e+00 6.200000e-01 2.716667e+00
      vertex   5.029289e+00 5.992893e-01 2.716667e+00
    endloop
  endfacet
  facet normal -7.730105e-01 -6.343933e-01 1.745258e-16
    outer loop
      vertex   5.016853e+00 6.144430e-01 3.105557e+00
      vertex   5.029289e+00 5.992893e-01 2.716667e+00
      vertex   5.029289e+00 5.992893e-01 3.120711e+00
    endloop
  endfacet
  facet normal -6.343933e-01 -7.730105e-01 2.124061e-16
    outer loop
      vertex   5.029289e+00 5.992893e-01 3.120711e+00
      vertex   5.029289e+00 5.992893e-01 2.716667e+00
      vertex   5.044443e+00 5.868530e-01 3.133147e+00
    endloop
  endfacet
  facet normal -6.087607e-01 -7.933524e-01 -1.540062e-03
    outer loop
      vertex   5.044443e+00 5.868530e-01 3.133147e+00
      vertex   5.029289e+00 5.992893e-01 2.716667e+00
      vertex   5.050000e+00 5.833975e-01 2.716667e+00
    endloop
  endfacet
  facet normal -4.718205e-01 -8.816940e-01 1.020086e-03
    outer loop
      vertex   5.044443e+00 5.868530e-01 3.133147e+00
      vertex   5.050000e+00 5.833975e-01 2.716667e+00
      vertex   5.061732e+00 5.776120e-01 3.142388e+00
    endloop
  endfacet
  facet normal -3.826827e-01 -9.238777e-01 -2.009559e-03
    outer loop
      vertex   5.061732e+00 5.776120e-01 3.142388e+00
      vertex   5.050000e+00 5.833975e-01 2.716667e+00
      vertex   5.074118e+00 5.734074e-01 2.716667e+00
    endloop
  endfacet
  facet normal -2.905613e-01 -9.568559e-01 9.964367e-04
    outer loop
      vertex   5.061732e+00 5.776120e-01 3.142388e+00
      vertex   5.074118e+00 5.734074e-01 2.716667e+00
      vertex   5.080491e+00 5.719215e-01 3.148079e+00
    endloop
  endfacet
  facet normal -9.782353e-02 -9.952018e-01 -1.982789e-03
    outer loop
      vertex   5.080491e+00 5.719215e-01 3.148079e+00
      vertex   5.074118e+00 5.734074e-01 2.716667e+00
      vertex   5.100000e+00 5.700000e-01 3.150000e+00
    endloop
  endfacet
  facet normal -1.305262e-01 -9.914449e-01 0.000000e+00
    outer loop
      vertex   5.100000e+00 5.700000e-01 3.150000e+00
      vertex   5.074118e+00 5.734074e-01 2.716667e+00
      vertex   5.074118e+00 5.734074e-01 2.283333e+00
    endloop
  endfacet
  facet normal -9.801714e-02 9.951847e-01 -6.137515e-16
    outer loop
      vertex   5.080491e+00 7.680785e-01 2.951921e+00
      vertex   5.100000e+00 7.700000e-01 2.950000e+00
      vertex   5.100000e+00 7.700000e-01 2.050000e+00
    endloop
  endfacet
  facet normal -3.826834e-01 -9.238795e-01 0.000000e+00
    outer loop
      vertex   5.050000e+00 5.833975e-01 2.283333e+00
      vertex   5.074118e+00 5.734074e-01 2.283333e+00
      vertex   5.074118e+00 5.734074e-01 2.716667e+00
    endloop
  endfacet
  facet normal -6.087614e-01 -7.933533e-01 0.000000e+00
    outer loop
      vertex   5.029289e+00 5.992893e-01 2.283333e+00
      vertex   5.050000e+00 5.833975e-01 2.283333e+00
      vertex   5.050000e+00 5.833975e-01 2.716667e+00
    endloop
  endfacet
  facet normal -3.826834e-01 -9.238795e-01 -0.000000e+00
    outer loop
      vertex   5.050000e+00 5.833975e-01 2.716667e+00
      vertex   5.050000e+00 5.833975e-01 2.283333e+00
      vertex   5.074118e+00 5.734074e-01 2.716667e+00
    endloop
  endfacet
  facet normal -7.933533e-01 -6.087614e-01 1.533488e-16
    outer loop
      vertex   5.013397e+00 6.200000e-01 2.283333e+00
      vertex   5.029289e+00 5.992893e-01 2.283333e+00
      vertex   5.029289e+00 5.992893e-01 2.716667e+00
    endloop
  endfacet
  facet normal -6.087614e-01 -7.933533e-01 2.032613e-16
    outer loop
      vertex   5.029289e+00 5.992893e-01 2.716667e+00
      vertex   5.029289e+00 5.992893e-01 2.283333e+00
      vertex   5.050000e+00 5.833975e-01 2.716667e+00
    endloop
  endfacet
  facet normal -9.238795e-01 -3.826834e-01 0.000000e+00
    outer loop
      vertex   5.003407e+00 6.441181e-01 2.283333e+00
      vertex   5.013397e+00 6.200000e-01 2.283333e+00
      vertex   5.013397e+00 6.200000e-01 2.716667e+00
    endloop
  endfacet
  facet normal -7.933533e-01 -6.087614e-01 -0.000000e+00
    outer loop
      vertex   5.013397e+00 6.200000e-01 2.716667e+00
      vertex   5.013397e+00 6.200000e-01 2.283333e+00
      vertex   5.029289e+00 5.992893e-01 2.716667e+00
    endloop
  endfacet
  facet normal -9.914449e-01 -1.305262e-01 0.000000e+00
    outer loop
      vertex   5.000000e+00 6.700000e-01 2.283333e+00
      vertex   5.003407e+00 6.441181e-01 2.283333e+00
      vertex   5.003407e+00 6.441181e-01 2.716667e+00
    endloop
  endfacet
  facet normal -9.238795e-01 -3.826834e-01 -0.000000e+00
    outer loop
      vertex   5.003407e+00 6.441181e-01 2.716667e+00
      vertex   5.003407e+00 6.441181e-01 2.283333e+00
      vertex   5.013397e+00 6.200000e-01 2.716667e+00
    endloop
  endfacet
  facet normal -9.914449e-01 1.305262e-01 -6.589208e-17
    outer loop
      vertex   5.003407e+00 6.958819e-01 2.283333e+00
      vertex   5.000000e+00 6.700000e-01 2.283333e+00
      vertex   5.000000e+00 6.700000e-01 2.716667e+00
    endloop
  endfacet
  facet normal -9.914449e-01 -1.305262e-01 6.688301e-17
    outer loop
      vertex   5.000000e+00 6.700000e-01 2.716667e+00
      vertex   5.000000e+00 6.700000e-01 2.283333e+00
      vertex   5.003407e+00 6.441181e-01 2.716667e+00
    endloop
  endfacet
  facet normal -9.238795e-01 3.826834e-01 0.000000e+00
    outer loop
      vertex   5.013397e+00 7.200000e-01 2.283333e+00
      vertex   5.003407e+00 6.958819e-01 2.283333e+00
      vertex   5.003407e+00 6.958819e-01 2.716667e+00
    endloop
  endfacet
  facet normal -9.914449e-01 1.305262e-01 0.000000e+00
    outer loop
      vertex   5.003407e+00 6.958819e-01 2.716667e+00
      vertex   5.003407e+00 6.958819e-01 2.283333e+00
      vertex   5.000000e+00 6.700000e-01 2.716667e+00
    endloop
  endfacet
  facet normal -7.933533e-01 6.087614e-01 0.000000e+00
    outer loop
      vertex   5.029289e+00 7.407107e-01 2.283333e+00
      vertex   5.013397e+00 7.200000e-01 2.283333e+00
      vertex   5.013397e+00 7.200000e-01 2.716667e+00
    endloop
  endfacet
  facet normal -9.238795e-01 3.826834e-01 0.000000e+00
    outer loop
      vertex   5.013397e+00 7.200000e-01 2.716667e+00
      vertex   5.013397e+00 7.200000e-01 2.283333e+00
      vertex   5.003407e+00 6.958819e-01 2.716667e+00
    endloop
  endfacet
  facet normal -6.087614e-01 7.933533e-01 0.000000e+00
    outer loop
      vertex   5.050000e+00 7.566025e-01 2.283333e+00
      vertex   5.029289e+00 7.407107e-01 2.283333e+00
      vertex   5.029289e+00 7.407107e-01 2.716667e+00
    endloop
  endfacet
  facet normal -7.933533e-01 6.087614e-01 0.000000e+00
    outer loop
      vertex   5.029289e+00 7.407107e-01 2.716667e+00
      vertex   5.029289e+00 7.407107e-01 2.283333e+00
      vertex   5.013397e+00 7.200000e-01 2.716667e+00
    endloop
  endfacet
  facet normal -3.826834e-01 9.238795e-01 0.000000e+00
    outer loop
      vertex   5.074118e+00 7.665926e-01 2.283333e+00
      vertex   5.050000e+00 7.566025e-01 2.283333e+00
      vertex   5.050000e+00 7.566025e-01 2.716667e+00
    endloop
  endfacet
  facet normal -6.087614e-01 7.933533e-01 0.000000e+00
    outer loop
      vertex   5.050000e+00 7.566025e-01 2.716667e+00
      vertex   5.050000e+00 7.566025e-01 2.283333e+00
      vertex   5.029289e+00 7.407107e-01 2.716667e+00
    endloop
  endfacet
  facet normal -3.826834e-01 9.238795e-01 0.000000e+00
    outer loop
      vertex   5.074118e+00 7.665926e-01 2.716667e+00
      vertex   5.074118e+00 7.665926e-01 2.283333e+00
      vertex   5.050000e+00 7.566025e-01 2.716667e+00
    endloop
  endfacet
  facet normal -9.801714e-02 -0.000000e+00 -9.951847e-01
    outer loop
      vertex   5.100000e+00 2.430000e+00 1.850000e+00
      vertex   5.100000e+00 5.700000e-01 1.850000e+00
      vertex   5.080491e+00 2.428079e+00 1.851921e+00
    endloop
  endfacet
  facet normal -1.722695e-01 -7.900995e-04 -9.850495e-01
    outer loop
      vertex   5.080491e+00 2.428079e+00 1.851921e+00
      vertex   5.100000e+00 5.700000e-01 1.850000e+00
      vertex   5.074118e+00 1.965000e+00 1.853407e+00
    endloop
  endfacet
  facet normal -2.905423e-01 9.280174e-04 -9.568617e-01
    outer loop
      vertex   5.080491e+00 2.428079e+00 1.851921e+00
      vertex   5.074118e+00 1.965000e+00 1.853407e+00
      vertex   5.061732e+00 2.422388e+00 1.857612e+00
    endloop
  endfacet
  facet normal -3.826828e-01 -1.870430e-03 -9.238779e-01
    outer loop
      vertex   5.061732e+00 2.422388e+00 1.857612e+00
      vertex   5.074118e+00 1.965000e+00 1.853407e+00
      vertex   5.050000e+00 1.965000e+00 1.863397e+00
    endloop
  endfacet
  facet normal -4.717908e-01 9.484974e-04 -8.817100e-01
    outer loop
      vertex   5.061732e+00 2.422388e+00 1.857612e+00
      vertex   5.050000e+00 1.965000e+00 1.863397e+00
      vertex   5.044443e+00 2.413147e+00 1.866853e+00
    endloop
  endfacet
  facet normal -6.087608e-01 -1.431239e-03 -7.933525e-01
    outer loop
      vertex   5.044443e+00 2.413147e+00 1.866853e+00
      vertex   5.050000e+00 1.965000e+00 1.863397e+00
      vertex   5.029289e+00 1.965000e+00 1.879289e+00
    endloop
  endfacet
  facet normal -6.343933e-01 0.000000e+00 -7.730105e-01
    outer loop
      vertex   5.044443e+00 2.413147e+00 1.866853e+00
      vertex   5.029289e+00 1.965000e+00 1.879289e+00
      vertex   5.029289e+00 2.400711e+00 1.879289e+00
    endloop
  endfacet
  facet normal -7.730105e-01 -0.000000e+00 -6.343933e-01
    outer loop
      vertex   5.029289e+00 2.400711e+00 1.879289e+00
      vertex   5.029289e+00 1.965000e+00 1.879289e+00
      vertex   5.016853e+00 2.385557e+00 1.894443e+00
    endloop
  endfacet
  facet normal -7.933524e-01 -1.525133e-03 -6.087607e-01
    outer loop
      vertex   5.016853e+00 2.385557e+00 1.894443e+00
      vertex   5.029289e+00 1.965000e+00 1.879289e+00
      vertex   5.013397e+00 1.965000e+00 1.900000e+00
    endloop
  endfacet
  facet normal -8.823494e-01 1.031792e-03 -4.705938e-01
    outer loop
      vertex   5.016853e+00 2.385557e+00 1.894443e+00
      vertex   5.013397e+00 1.965000e+00 1.900000e+00
      vertex   5.007612e+00 2.368268e+00 1.911732e+00
    endloop
  endfacet
  facet normal -9.238775e-01 -2.121446e-03 -3.826826e-01
    outer loop
      vertex   5.007612e+00 2.368268e+00 1.911732e+00
      vertex   5.013397e+00 1.965000e+00 1.900000e+00
      vertex   5.003407e+00 1.965000e+00 1.924118e+00
    endloop
  endfacet
  facet normal -9.572435e-01 1.095271e-03 -2.892814e-01
    outer loop
      vertex   5.007612e+00 2.368268e+00 1.911732e+00
      vertex   5.003407e+00 1.965000e+00 1.924118e+00
      vertex   5.001921e+00 2.349509e+00 1.930491e+00
    endloop
  endfacet
  facet normal -9.914435e-01 -1.668115e-03 -1.305260e-01
    outer loop
      vertex   5.001921e+00 2.349509e+00 1.930491e+00
      vertex   5.003407e+00 1.965000e+00 1.924118e+00
      vertex   5.000000e+00 1.965000e+00 1.950000e+00
    endloop
  endfacet
  facet normal -9.951847e-01 0.000000e+00 -9.801714e-02
    outer loop
      vertex   5.001921e+00 2.349509e+00 1.930491e+00
      vertex   5.000000e+00 1.965000e+00 1.950000e+00
      vertex   5.000000e+00 2.330000e+00 1.950000e+00
    endloop
  endfacet
  facet normal -9.951847e-01 0.000000e+00 9.801714e-02
    outer loop
      vertex   5.000000e+00 2.330000e+00 1.950000e+00
      vertex   5.000000e+00 1.965000e+00 1.950000e+00
      vertex   5.001921e+00 2.310491e+00 1.969509e+00
    endloop
  endfacet
  facet normal -9.914432e-01 -1.856503e-03 1.305260e-01
    outer loop
      vertex   5.001921e+00 2.310491e+00 1.969509e+00
      vertex   5.000000e+00 1.965000e+00 1.950000e+00
      vertex   5.003407e+00 1.965000e+00 1.975882e+00
    endloop
  endfacet
  facet normal -9.565884e-01 1.261592e-03 2.914395e-01
    outer loop
      vertex   5.001921e+00 2.310491e+00 1.969509e+00
      vertex   5.003407e+00 1.965000e+00 1.975882e+00
      vertex   5.007612e+00 2.291732e+00 1.988268e+00
    endloop
  endfacet
  facet normal -9.238764e-01 -2.618390e-03 3.826821e-01
    outer loop
      vertex   5.007612e+00 2.291732e+00 1.988268e+00
      vertex   5.003407e+00 1.965000e+00 1.975882e+00
      vertex   5.013397e+00 1.965000e+00 2.000000e+00
    endloop
  endfacet
  facet normal -8.813553e-01 1.357814e-03 4.724521e-01
    outer loop
      vertex   5.007612e+00 2.291732e+00 1.988268e+00
      vertex   5.013397e+00 1.965000e+00 2.000000e+00
      vertex   5.016853e+00 2.274443e+00 2.005557e+00
    endloop
  endfacet
  facet normal -7.933516e-01 -2.072772e-03 6.087601e-01
    outer loop
      vertex   5.016853e+00 2.274443e+00 2.005557e+00
      vertex   5.013397e+00 1.965000e+00 2.000000e+00
      vertex   5.029289e+00 1.965000e+00 2.020711e+00
    endloop
  endfacet
  facet normal -7.730105e-01 0.000000e+00 6.343933e-01
    outer loop
      vertex   5.016853e+00 2.274443e+00 2.005557e+00
      vertex   5.029289e+00 1.965000e+00 2.020711e+00
      vertex   5.029289e+00 2.259289e+00 2.020711e+00
    endloop
  endfacet
  facet normal -6.343933e-01 0.000000e+00 7.730105e-01
    outer loop
      vertex   5.029289e+00 2.259289e+00 2.020711e+00
      vertex   5.029289e+00 1.965000e+00 2.020711e+00
      vertex   5.044443e+00 2.246853e+00 2.033147e+00
    endloop
  endfacet
  facet normal -6.087599e-01 -2.275670e-03 7.933513e-01
    outer loop
      vertex   5.044443e+00 2.246853e+00 2.033147e+00
      vertex   5.029289e+00 1.965000e+00 2.020711e+00
      vertex   5.050000e+00 1.965000e+00 2.036603e+00
    endloop
  endfacet
  facet normal -4.707578e-01 1.535237e-03 8.822611e-01
    outer loop
      vertex   5.044443e+00 2.246853e+00 2.033147e+00
      vertex   5.050000e+00 1.965000e+00 2.036603e+00
      vertex   5.061732e+00 2.237612e+00 2.042388e+00
    endloop
  endfacet
  facet normal -3.826815e-01 -3.138195e-03 9.238750e-01
    outer loop
      vertex   5.061732e+00 2.237612e+00 2.042388e+00
      vertex   5.050000e+00 1.965000e+00 2.036603e+00
      vertex   5.074118e+00 1.965000e+00 2.046593e+00
    endloop
  endfacet
  facet normal -2.898420e-01 1.592107e-03 9.570732e-01
    outer loop
      vertex   5.061732e+00 2.237612e+00 2.042388e+00
      vertex   5.074118e+00 1.965000e+00 2.046593e+00
      vertex   5.080491e+00 2.231921e+00 2.048079e+00
    endloop
  endfacet
  facet normal -9.832803e-02 -3.192343e-03 9.951489e-01
    outer loop
      vertex   5.080491e+00 2.231921e+00 2.048079e+00
      vertex   5.074118e+00 1.965000e+00 2.046593e+00
      vertex   5.100000e+00 2.230000e+00 2.050000e+00
    endloop
  endfacet
  facet normal -1.305262e-01 0.000000e+00 9.914449e-01
    outer loop
      vertex   5.100000e+00 2.230000e+00 2.050000e+00
      vertex   5.074118e+00 1.965000e+00 2.046593e+00
      vertex   5.074118e+00 1.500000e+00 2.046593e+00
    endloop
  endfacet
  facet normal -1.305262e-01 -9.467505e-16 9.914449e-01
    outer loop
      vertex   5.100000e+00 2.230000e+00 2.050000e+00
      vertex   5.074118e+00 1.500000e+00 2.046593e+00
      vertex   5.074118e+00 1.035000e+00 2.046593e+00
    endloop
  endfacet
  facet normal -3.826834e-01 -8.823332e-16 9.238795e-01
    outer loop
      vertex   5.074118e+00 1.035000e+00 2.046593e+00
      vertex   5.074118e+00 1.500000e+00 2.046593e+00
      vertex   5.050000e+00 1.035000e+00 2.036603e+00
    endloop
  endfacet
  facet normal -3.826815e-01 3.138195e-03 9.238750e-01
    outer loop
      vertex   5.074118e+00 1.035000e+00 2.046593e+00
      vertex   5.050000e+00 1.035000e+00 2.036603e+00
      vertex   5.061732e+00 7.623880e-01 2.042388e+00
    endloop
  endfacet
  facet normal -4.707578e-01 -1.535237e-03 8.822611e-01
    outer loop
      vertex   5.061732e+00 7.623880e-01 2.042388e+00
      vertex   5.050000e+00 1.035000e+00 2.036603e+00
      vertex   5.044443e+00 7.531470e-01 2.033147e+00
    endloop
  endfacet
  facet normal -6.087599e-01 2.275670e-03 7.933513e-01
    outer loop
      vertex   5.044443e+00 7.531470e-01 2.033147e+00
      vertex   5.050000e+00 1.035000e+00 2.036603e+00
      vertex   5.029289e+00 1.035000e+00 2.020711e+00
    endloop
  endfacet
  facet normal -6.343933e-01 1.165186e-15 7.730105e-01
    outer loop
      vertex   5.044443e+00 7.531470e-01 2.033147e+00
      vertex   5.029289e+00 1.035000e+00 2.020711e+00
      vertex   5.029289e+00 7.407107e-01 2.020711e+00
    endloop
  endfacet
  facet normal -7.730105e-01 9.573137e-16 6.343933e-01
    outer loop
      vertex   5.029289e+00 7.407107e-01 2.020711e+00
      vertex   5.029289e+00 1.035000e+00 2.020711e+00
      vertex   5.016853e+00 7.255570e-01 2.005557e+00
    endloop
  endfacet
  facet normal -7.933516e-01 2.072772e-03 6.087601e-01
    outer loop
      vertex   5.016853e+00 7.255570e-01 2.005557e+00
      vertex   5.029289e+00 1.035000e+00 2.020711e+00
      vertex   5.013397e+00 1.035000e+00 2.000000e+00
    endloop
  endfacet
  facet normal -8.813553e-01 -1.357814e-03 4.724521e-01
    outer loop
      vertex   5.016853e+00 7.255570e-01 2.005557e+00
      vertex   5.013397e+00 1.035000e+00 2.000000e+00
      vertex   5.007612e+00 7.082683e-01 1.988268e+00
    endloop
  endfacet
  facet normal -9.238764e-01 2.618390e-03 3.826821e-01
    outer loop
      vertex   5.007612e+00 7.082683e-01 1.988268e+00
      vertex   5.013397e+00 1.035000e+00 2.000000e+00
      vertex   5.003407e+00 1.035000e+00 1.975882e+00
    endloop
  endfacet
  facet normal -9.565884e-01 -1.261592e-03 2.914395e-01
    outer loop
      vertex   5.007612e+00 7.082683e-01 1.988268e+00
      vertex   5.003407e+00 1.035000e+00 1.975882e+00
      vertex   5.001921e+00 6.895090e-01 1.969509e+00
    endloop
  endfacet
  facet normal -9.914432e-01 1.856503e-03 1.305260e-01
    outer loop
      vertex   5.001921e+00 6.895090e-01 1.969509e+00
      vertex   5.003407e+00 1.035000e+00 1.975882e+00
      vertex   5.000000e+00 1.035000e+00 1.950000e+00
    endloop
  endfacet
  facet normal -9.951847e-01 0.000000e+00 9.801714e-02
    outer loop
      vertex   5.001921e+00 6.895090e-01 1.969509e+00
      vertex   5.000000e+00 1.035000e+00 1.950000e+00
      vertex   5.000000e+00 6.700000e-01 1.950000e+00
    endloop
  endfacet
  facet normal -9.951847e-01 0.000000e+00 -9.801714e-02
    outer loop
      vertex   5.000000e+00 6.700000e-01 1.950000e+00
      vertex   5.000000e+00 1.035000e+00 1.950000e+00
      vertex   5.001921e+00 6.504910e-01 1.930491e+00
    endloop
  endfacet
  facet normal -9.914435e-01 1.668115e-03 -1.305260e-01
    outer loop
      vertex   5.001921e+00 6.504910e-01 1.930491e+00
      vertex   5.000000e+00 1.035000e+00 1.950000e+00
      vertex   5.003407e+00 1.035000e+00 1.924118e+00
    endloop
  endfacet
  facet normal -9.572435e-01 -1.095271e-03 -2.892814e-01
    outer loop
      vertex   5.001921e+00 6.504910e-01 1.930491e+00
      vertex   5.003407e+00 1.035000e+00 1.924118e+00
      vertex   5.007612e+00 6.317317e-01 1.911732e+00
    endloop
  endfacet
  facet normal -9.238775e-01 2.121446e-03 -3.826826e-01
    outer loop
      vertex   5.007612e+00 6.317317e-01 1.911732e+00
      vertex   5.003407e+00 1.035000e+00 1.924118e+00
      vertex   5.013397e+00 1.035000e+00 1.900000e+00
    endloop
  endfacet
  facet normal -8.823494e-01 -1.031792e-03 -4.705938e-01
    outer loop
      vertex   5.007612e+00 6.317317e-01 1.911732e+00
      vertex   5.013397e+00 1.035000e+00 1.900000e+00
      vertex   5.016853e+00 6.144430e-01 1.894443e+00
    endloop
  endfacet
  facet normal -7.933524e-01 1.525133e-03 -6.087607e-01
    outer loop
      vertex   5.016853e+00 6.144430e-01 1.894443e+00
      vertex   5.013397e+00 1.035000e+00 1.900000e+00
      vertex   5.029289e+00 1.035000e+00 1.879289e+00
    endloop
  endfacet
  facet normal -7.730105e-01 -3.236833e-16 -6.343933e-01
    outer loop
      vertex   5.016853e+00 6.144430e-01 1.894443e+00
      vertex   5.029289e+00 1.035000e+00 1.879289e+00
      vertex   5.029289e+00 5.992893e-01 1.879289e+00
    endloop
  endfacet
  facet normal -6.343933e-01 -3.939376e-16 -7.730105e-01
    outer loop
      vertex   5.029289e+00 5.992893e-01 1.879289e+00
      vertex   5.029289e+00 1.035000e+00 1.879289e+00
      vertex   5.044443e+00 5.868530e-01 1.866853e+00
    endloop
  endfacet
  facet normal -6.087608e-01 1.431239e-03 -7.933525e-01
    outer loop
      vertex   5.044443e+00 5.868530e-01 1.866853e+00
      vertex   5.029289e+00 1.035000e+00 1.879289e+00
      vertex   5.050000e+00 1.035000e+00 1.863397e+00
    endloop
  endfacet
  facet normal -4.717908e-01 -9.484974e-04 -8.817100e-01
    outer loop
      vertex   5.044443e+00 5.868530e-01 1.866853e+00
      vertex   5.050000e+00 1.035000e+00 1.863397e+00
      vertex   5.061732e+00 5.776120e-01 1.857612e+00
    endloop
  endfacet
  facet normal -3.826828e-01 1.870430e-03 -9.238779e-01
    outer loop
      vertex   5.061732e+00 5.776120e-01 1.857612e+00
      vertex   5.050000e+00 1.035000e+00 1.863397e+00
      vertex   5.074118e+00 1.035000e+00 1.853407e+00
    endloop
  endfacet
  facet normal -2.905423e-01 -9.280174e-04 -9.568617e-01
    outer loop
      vertex   5.061732e+00 5.776120e-01 1.857612e+00
      vertex   5.074118e+00 1.035000e+00 1.853407e+00
      vertex   5.080491e+00 5.719215e-01 1.851921e+00
    endloop
  endfacet
  facet normal -9.783680e-02 1.847014e-03 -9.952008e-01
    outer loop
      vertex   5.080491e+00 5.719215e-01 1.851921e+00
      vertex   5.074118e+00 1.035000e+00 1.853407e+00
      vertex   5.100000e+00 5.700000e-01 1.850000e+00
    endloop
  endfacet
  facet normal -1.305262e-01 4.733752e-16 -9.914449e-01
    outer loop
      vertex   5.100000e+00 5.700000e-01 1.850000e+00
      vertex   5.074118e+00 1.035000e+00 1.853407e+00
      vertex   5.074118e+00 1.500000e+00 1.853407e+00
    endloop
  endfacet
  facet normal -1.305262e-01 0.000000e+00 -9.914449e-01
    outer loop
      vertex   5.100000e+00 5.700000e-01 1.850000e+00
      vertex   5.074118e+00 1.500000e+00 1.853407e+00
      vertex   5.074118e+00 1.965000e+00 1.853407e+00
    endloop
  endfacet
  facet normal -3.826834e-01 -0.000000e+00 -9.238795e-01
    outer loop
      vertex   5.074118e+00 1.965000e+00 1.853407e+00
      vertex   5.074118e+00 1.500000e+00 1.853407e+00
      vertex   5.050000e+00 1.965000e+00 1.863397e+00
    endloop
  endfacet
  facet normal -2.898420e-01 -1.592107e-03 9.570732e-01
    outer loop
      vertex   5.061732e+00 7.623880e-01 2.042388e+00
      vertex   5.080491e+00 7.680785e-01 2.048079e+00
      vertex   5.074118e+00 1.035000e+00 2.046593e+00
    endloop
  endfacet
  facet normal -1.818001e-01 1.133641e-03 9.833349e-01
    outer loop
      vertex   5.074118e+00 1.035000e+00 2.046593e+00
      vertex   5.080491e+00 7.680785e-01 2.048079e+00
      vertex   5.100000e+00 2.230000e+00 2.050000e+00
    endloop
  endfacet
  facet normal -9.801714e-02 -3.028140e-16 9.951847e-01
    outer loop
      vertex   5.080491e+00 7.680785e-01 2.048079e+00
      vertex   5.100000e+00 7.700000e-01 2.050000e+00
      vertex   5.100000e+00 2.230000e+00 2.050000e+00
    endloop
  endfacet
  facet normal -3.826834e-01 4.411666e-16 -9.238795e-01
    outer loop
      vertex   5.074118e+00 1.500000e+00 1.853407e+00
      vertex   5.074118e+00 1.035000e+00 1.853407e+00
      vertex   5.050000e+00 1.500000e+00 1.863397e+00
    endloop
  endfacet
  facet normal -3.826834e-01 4.411666e-16 -9.238795e-01
    outer loop
      vertex   5.050000e+00 1.500000e+00 1.863397e+00
      vertex   5.074118e+00 1.035000e+00 1.853407e+00
      vertex   5.050000e+00 1.035000e+00 1.863397e+00
    endloop
  endfacet
  facet normal -6.087614e-01 3.788383e-16 -7.933533e-01
    outer loop
      vertex   5.050000e+00 1.500000e+00 1.863397e+00
      vertex   5.050000e+00 1.035000e+00 1.863397e+00
      vertex   5.029289e+00 1.500000e+00 1.879289e+00
    endloop
  endfacet
  facet normal -6.087614e-01 3.788383e-16 -7.933533e-01
    outer loop
      vertex   5.029289e+00 1.500000e+00 1.879289e+00
      vertex   5.050000e+00 1.035000e+00 1.863397e+00
      vertex   5.029289e+00 1.035000e+00 1.879289e+00
    endloop
  endfacet
  facet normal -7.933533e-01 2.906929e-16 -6.087614e-01
    outer loop
      vertex   5.029289e+00 1.500000e+00 1.879289e+00
      vertex   5.029289e+00 1.035000e+00 1.879289e+00
      vertex   5.013397e+00 1.500000e+00 1.900000e+00
    endloop
  endfacet
  facet normal -7.933533e-01 2.906929e-16 -6.087614e-01
    outer loop
      vertex   5.013397e+00 1.500000e+00 1.900000e+00
      vertex   5.029289e+00 1.035000e+00 1.879289e+00
      vertex   5.013397e+00 1.035000e+00 1.900000e+00
    endloop
  endfacet
  facet normal -9.238795e-01 1.827372e-16 -3.826834e-01
    outer loop
      vertex   5.013397e+00 1.500000e+00 1.900000e+00
      vertex   5.013397e+00 1.035000e+00 1.900000e+00
      vertex   5.003407e+00 1.500000e+00 1.924118e+00
    endloop
  endfacet
  facet normal -9.238795e-01 3.654744e-16 -3.826834e-01
    outer loop
      vertex   5.003407e+00 1.500000e+00 1.924118e+00
      vertex   5.013397e+00 1.035000e+00 1.900000e+00
      vertex   5.003407e+00 1.035000e+00 1.924118e+00
    endloop
  endfacet
  facet normal -9.914449e-01 1.246565e-16 -1.305262e-01
    outer loop
      vertex   5.003407e+00 1.500000e+00 1.924118e+00
      vertex   5.003407e+00 1.035000e+00 1.924118e+00
      vertex   5.000000e+00 1.500000e+00 1.950000e+00
    endloop
  endfacet
  facet normal -9.914449e-01 -0.000000e+00 -1.305262e-01
    outer loop
      vertex   5.000000e+00 1.500000e+00 1.950000e+00
      vertex   5.003407e+00 1.035000e+00 1.924118e+00
      vertex   5.000000e+00 1.035000e+00 1.950000e+00
    endloop
  endfacet
  facet normal -9.914449e-01 0.000000e+00 1.305262e-01
    outer loop
      vertex   5.000000e+00 1.500000e+00 1.950000e+00
      vertex   5.000000e+00 1.035000e+00 1.950000e+00
      vertex   5.003407e+00 1.500000e+00 1.975882e+00
    endloop
  endfacet
  facet normal -9.914449e-01 -6.232825e-17 1.305262e-01
    outer loop
      vertex   5.003407e+00 1.500000e+00 1.975882e+00
      vertex   5.000000e+00 1.035000e+00 1.950000e+00
      vertex   5.003407e+00 1.035000e+00 1.975882e+00
    endloop
  endfacet
  facet normal -9.238795e-01 -1.827372e-16 3.826834e-01
    outer loop
      vertex   5.003407e+00 1.500000e+00 1.975882e+00
      vertex   5.003407e+00 1.035000e+00 1.975882e+00
      vertex   5.013397e+00 1.500000e+00 2.000000e+00
    endloop
  endfacet
  facet normal -9.238795e-01 -3.654744e-16 3.826834e-01
    outer loop
      vertex   5.013397e+00 1.500000e+00 2.000000e+00
      vertex   5.003407e+00 1.035000e+00 1.975882e+00
      vertex   5.013397e+00 1.035000e+00 2.000000e+00
    endloop
  endfacet
  facet normal -7.933533e-01 -5.813858e-16 6.087614e-01
    outer loop
      vertex   5.013397e+00 1.500000e+00 2.000000e+00
      vertex   5.013397e+00 1.035000e+00 2.000000e+00
      vertex   5.029289e+00 1.500000e+00 2.020711e+00
    endloop
  endfacet
  facet normal -7.933533e-01 -5.813858e-16 6.087614e-01
    outer loop
      vertex   5.029289e+00 1.500000e+00 2.020711e+00
      vertex   5.013397e+00 1.035000e+00 2.000000e+00
      vertex   5.029289e+00 1.035000e+00 2.020711e+00
    endloop
  endfacet
  facet normal -6.087614e-01 -7.576767e-16 7.933533e-01
    outer loop
      vertex   5.029289e+00 1.500000e+00 2.020711e+00
      vertex   5.029289e+00 1.035000e+00 2.020711e+00
      vertex   5.050000e+00 1.500000e+00 2.036603e+00
    endloop
  endfacet
  facet normal -6.087614e-01 -7.576767e-16 7.933533e-01
    outer loop
      vertex   5.050000e+00 1.500000e+00 2.036603e+00
      vertex   5.029289e+00 1.035000e+00 2.020711e+00
      vertex   5.050000e+00 1.035000e+00 2.036603e+00
    endloop
  endfacet
  facet normal -3.826834e-01 -8.823332e-16 9.238795e-01
    outer loop
      vertex   5.050000e+00 1.500000e+00 2.036603e+00
      vertex   5.050000e+00 1.035000e+00 2.036603e+00
      vertex   5.074118e+00 1.500000e+00 2.046593e+00
    endloop
  endfacet
  facet normal -6.087614e-01 0.000000e+00 -7.933533e-01
    outer loop
      vertex   5.029289e+00 1.965000e+00 1.879289e+00
      vertex   5.050000e+00 1.965000e+00 1.863397e+00
      vertex   5.050000e+00 1.500000e+00 1.863397e+00
    endloop
  endfacet
  facet normal -3.826834e-01 0.000000e+00 -9.238795e-01
    outer loop
      vertex   5.050000e+00 1.500000e+00 1.863397e+00
      vertex   5.050000e+00 1.965000e+00 1.863397e+00
      vertex   5.074118e+00 1.500000e+00 1.853407e+00
    endloop
  endfacet
  facet normal -6.087614e-01 -0.000000e+00 -7.933533e-01
    outer loop
      vertex   5.029289e+00 1.965000e+00 1.879289e+00
      vertex   5.050000e+00 1.500000e+00 1.863397e+00
      vertex   5.029289e+00 1.500000e+00 1.879289e+00
    endloop
  endfacet
  facet normal -7.933533e-01 0.000000e+00 -6.087614e-01
    outer loop
      vertex   5.013397e+00 1.965000e+00 1.900000e+00
      vertex   5.029289e+00 1.965000e+00 1.879289e+00
      vertex   5.029289e+00 1.500000e+00 1.879289e+00
    endloop
  endfacet
  facet normal -7.933533e-01 -0.000000e+00 -6.087614e-01
    outer loop
      vertex   5.013397e+00 1.965000e+00 1.900000e+00
      vertex   5.029289e+00 1.500000e+00 1.879289e+00
      vertex   5.013397e+00 1.500000e+00 1.900000e+00
    endloop
  endfacet
  facet normal -9.238795e-01 0.000000e+00 -3.826834e-01
    outer loop
      vertex   5.003407e+00 1.965000e+00 1.924118e+00
      vertex   5.013397e+00 1.965000e+00 1.900000e+00
      vertex   5.013397e+00 1.500000e+00 1.900000e+00
    endloop
  endfacet
  facet normal -9.238795e-01 -0.000000e+00 -3.826834e-01
    outer loop
      vertex   5.003407e+00 1.965000e+00 1.924118e+00
      vertex   5.013397e+00 1.500000e+00 1.900000e+00
      vertex   5.003407e+00 1.500000e+00 1.924118e+00
    endloop
  endfacet
  facet normal -9.914449e-01 0.000000e+00 -1.305262e-01
    outer loop
      vertex   5.000000e+00 1.965000e+00 1.950000e+00
      vertex   5.003407e+00 1.965000e+00 1.924118e+00
      vertex   5.003407e+00 1.500000e+00 1.924118e+00
    endloop
  endfacet
  facet normal -9.914449e-01 -0.000000e+00 -1.305262e-01
    outer loop
      vertex   5.000000e+00 1.965000e+00 1.950000e+00
      vertex   5.003407e+00 1.500000e+00 1.924118e+00
      vertex   5.000000e+00 1.500000e+00 1.950000e+00
    endloop
  endfacet
  facet normal -9.914449e-01 0.000000e+00 1.305262e-01
    outer loop
      vertex   5.003407e+00 1.965000e+00 1.975882e+00
      vertex   5.000000e+00 1.965000e+00 1.950000e+00
      vertex   5.000000e+00 1.500000e+00 1.950000e+00
    endloop
  endfacet
  facet normal -9.914449e-01 0.000000e+00 1.305262e-01
    outer loop
      vertex   5.003407e+00 1.965000e+00 1.975882e+00
      vertex   5.000000e+00 1.500000e+00 1.950000e+00
      vertex   5.003407e+00 1.500000e+00 1.975882e+00
    endloop
  endfacet
  facet normal -9.238795e-01 0.000000e+00 3.826834e-01
    outer loop
      vertex   5.013397e+00 1.965000e+00 2.000000e+00
      vertex   5.003407e+00 1.965000e+00 1.975882e+00
      vertex   5.003407e+00 1.500000e+00 1.975882e+00
    endloop
  endfacet
  facet normal -9.238795e-01 0.000000e+00 3.826834e-01
    outer loop
      vertex   5.013397e+00 1.965000e+00 2.000000e+00
      vertex   5.003407e+00 1.500000e+00 1.975882e+00
      vertex   5.013397e+00 1.500000e+00 2.000000e+00
    endloop
  endfacet
  facet normal -7.933533e-01 0.000000e+00 6.087614e-01
    outer loop
      vertex   5.029289e+00 1.965000e+00 2.020711e+00
      vertex   5.013397e+00 1.965000e+00 2.000000e+00
      vertex   5.013397e+00 1.500000e+00 2.000000e+00
    endloop
  endfacet
  facet normal -7.933533e-01 0.000000e+00 6.087614e-01
    outer loop
      vertex   5.029289e+00 1.965000e+00 2.020711e+00
      vertex   5.013397e+00 1.500000e+00 2.000000e+00
      vertex   5.029289e+00 1.500000e+00 2.020711e+00
    endloop
  endfacet
  facet normal -6.087614e-01 0.000000e+00 7.933533e-01
    outer loop
      vertex   5.050000e+00 1.965000e+00 2.036603e+00
      vertex   5.029289e+00 1.965000e+00 2.020711e+00
      vertex   5.029289e+00 1.500000e+00 2.020711e+00
    endloop
  endfacet
  facet normal -6.087614e-01 0.000000e+00 7.933533e-01
    outer loop
      vertex   5.050000e+00 1.965000e+00 2.036603e+00
      vertex   5.029289e+00 1.500000e+00 2.020711e+00
      vertex   5.050000e+00 1.500000e+00 2.036603e+00
    endloop
  endfacet
  facet normal -3.826834e-01 0.000000e+00 9.238795e-01
    outer loop
      vertex   5.074118e+00 1.965000e+00 2.046593e+00
      vertex   5.050000e+00 1.965000e+00 2.036603e+00
      vertex   5.050000e+00 1.500000e+00 2.036603e+00
    endloop
  endfacet
  facet normal -3.826834e-01 0.000000e+00 9.238795e-01
    outer loop
      vertex   5.074118e+00 1.965000e+00 2.046593e+00
      vertex   5.050000e+00 1.500000e+00 2.036603e+00
      vertex   5.074118e+00 1.500000e+00 2.046593e+00
    endloop
  endfacet
  facet normal 4.993762e-02 -3.037912e-16 9.987523e-01
    outer loop
      vertex   5.100000e+00 2.230000e+00 2.050000e+00
      vertex   5.100000e+00 7.700000e-01 2.050000e+00
      vertex   5.600000e+00 2.255000e+00 2.025000e+00
    endloop
  endfacet
  facet normal 4.993762e-02 0.000000e+00 9.987523e-01
    outer loop
      vertex   5.600000e+00 2.255000e+00 2.025000e+00
      vertex   5.100000e+00 7.700000e-01 2.050000e+00
      vertex   5.600000e+00 7.450000e-01 2.025000e+00
    endloop
  endfacet
  facet normal 4.993762e-02 0.000000e+00 -9.987523e-01
    outer loop
      vertex   5.100000e+00 7.700000e-01 2.950000e+00
      vertex   5.100000e+00 2.230000e+00 2.950000e+00
      vertex   5.600000e+00 7.450000e-01 2.975000e+00
    endloop
  endfacet
  facet normal 4.993762e-02 -2.937319e-16 -9.987523e-01
    outer loop
      vertex   5.600000e+00 7.450000e-01 2.975000e+00
      vertex   5.100000e+00 2.230000e+00 2.950000e+00
      vertex   5.600000e+00 2.255000e+00 2.975000e+00
    endloop
  endfacet
  facet normal 4.993762e-02 9.987523e-01 -6.160210e-16
    outer loop
      vertex   5.100000e+00 7.700000e-01 2.050000e+00
      vertex   5.100000e+00 7.700000e-01 2.950000e+00
      vertex   5.600000e+00 7.450000e-01 2.025000e+00
    endloop
  endfacet
  facet normal 4.993762e-02 9.987523e-01 -3.501593e-16
    outer loop
      vertex   5.600000e+00 7.450000e-01 2.025000e+00
      vertex   5.100000e+00 7.700000e-01 2.950000e+00
      vertex   5.600000e+00 7.450000e-01 2.975000e+00
    endloop
  endfacet
endsolid
