solid ASCII
  facet normal 1.000000e+00 0.000000e+00 0.000000e+00
    outer loop
      vertex   5.700000e+00 2.250000e+00 2.025000e+00
      vertex   5.700000e+00 2.250000e+00 2.975000e+00
      vertex   5.700000e+00 7.500000e-01 2.025000e+00
    endloop
  endfacet
  facet normal 1.000000e+00 0.000000e+00 0.000000e+00
    outer loop
      vertex   5.700000e+00 7.500000e-01 2.025000e+00
      vertex   5.700000e+00 2.250000e+00 2.975000e+00
      vertex   5.700000e+00 7.500000e-01 2.975000e+00
    endloop
  endfacet
  facet normal 4.440892e-15 0.000000e+00 -1.000000e+00
    outer loop
      vertex   5.600000e+00 2.255000e+00 2.025000e+00
      vertex   5.700000e+00 2.250000e+00 2.025000e+00
      vertex   5.600000e+00 7.450000e-01 2.025000e+00
    endloop
  endfacet
  facet normal 4.440892e-15 0.000000e+00 -1.000000e+00
    outer loop
      vertex   5.600000e+00 7.450000e-01 2.025000e+00
      vertex   5.700000e+00 2.250000e+00 2.025000e+00
      vertex   5.700000e+00 7.500000e-01 2.025000e+00
    endloop
  endfacet
  facet normal 4.993762e-02 9.987523e-01 4.668791e-16
    outer loop
      vertex   5.600000e+00 2.255000e+00 2.025000e+00
      vertex   5.600000e+00 2.255000e+00 2.975000e+00
      vertex   5.700000e+00 2.250000e+00 2.025000e+00
    endloop
  endfacet
  facet normal 4.993762e-02 9.987523e-01 4.668791e-16
    outer loop
      vertex   5.700000e+00 2.250000e+00 2.025000e+00
      vertex   5.600000e+00 2.255000e+00 2.975000e+00
      vertex   5.700000e+00 2.250000e+00 2.975000e+00
    endloop
  endfacet
  facet normal 4.440892e-15 0.000000e+00 1.000000e+00
    outer loop
      vertex   5.600000e+00 2.255000e+00 2.975000e+00
      vertex   5.600000e+00 7.450000e-01 2.975000e+00
      vertex   5.700000e+00 2.250000e+00 2.975000e+00
    endloop
  endfacet
  facet normal 4.440892e-15 0.000000e+00 1.000000e+00
    outer loop
      vertex   5.700000e+00 2.250000e+00 2.975000e+00
      vertex   5.600000e+00 7.450000e-01 2.975000e+00
      vertex   5.700000e+00 7.500000e-01 2.975000e+00
    endloop
  endfacet
  facet normal 4.993762e-02 -9.987523e-01 0.000000e+00
    outer loop
      vertex   5.600000e+00 7.450000e-01 2.975000e+00
      vertex   5.600000e+00 7.450000e-01 2.025000e+00
      vertex   5.700000e+00 7.500000e-01 2.975000e+00
    endloop
  endfacet
  facet normal 4.993762e-02 -9.987523e-01 0.000000e+00
    outer loop
      vertex   5.700000e+00 7.500000e-01 2.975000e+00
      vertex   5.600000e+00 7.450000e-01 2.025000e+00
      vertex   5.700000e+00 7.500000e-01 2.025000e+00
    endloop
  endfacet
  facet normal -1.000000e+00 0.000000e+00 0.000000e+00
    outer loop
      vertex   5.100000e+00 7.700000e-01 2.050000e+00
      vertex   5.100000e+00 7.700000e-01 2.950000e+00
      vertex   5.100000e+00 2.230000e+00 2.050000e+00
    endloop
  endfacet
  facet normal -1.000000e+00 0.000000e+00 0.000000e+00
    outer loop
      vertex   5.100000e+00 2.230000e+00 2.050000e+00
      vertex   5.100000e+00 7.700000e-01 2.950000e+00
      vertex   5.100000e+00 2.230000e+00 2.950000e+00
    endloop
  endfacet
  facet normal -4.993762e-02 -0.000000e+00 -9.987523e-01
    outer loop
      vertex   5.600000e+00 2.255000e+00 2.025000e+00
      vertex   5.600000e+00 7.450000e-01 2.025000e+00
      vertex   5.100000e+00 2.230000e+00 2.050000e+00
    endloop
  endfacet
  facet normal -4.993762e-02 3.037912e-16 -9.987523e-01
    outer loop
      vertex   5.100000e+00 2.230000e+00 2.050000e+00
      vertex   5.600000e+00 7.450000e-01 2.025000e+00
      vertex   5.100000e+00 7.700000e-01 2.050000e+00
    endloop
  endfacet
  facet normal -4.993762e-02 9.987523e-01 4.668791e-16
    outer loop
      vertex   5.600000e+00 2.255000e+00 2.975000e+00
      vertex   5.600000e+00 2.255000e+00 2.025000e+00
      vertex   5.100000e+00 2.230000e+00 2.950000e+00
    endloop
  endfacet
  facet normal -4.993762e-02 9.987523e-01 4.928168e-16
    outer loop
      vertex   5.100000e+00 2.230000e+00 2.950000e+00
      vertex   5.600000e+00 2.255000e+00 2.025000e+00
      vertex   5.100000e+00 2.230000e+00 2.050000e+00
    endloop
  endfacet
  facet normal -4.993762e-02 0.000000e+00 9.987523e-01
    outer loop
      vertex   5.600000e+00 2.255000e+00 2.975000e+00
      vertex   5.100000e+00 2.230000e+00 2.950000e+00
      vertex   5.600000e+00 7.450000e-01 2.975000e+00
    endloop
  endfacet
  facet normal -4.993762e-02 0.000000e+00 9.987523e-01
    outer loop
      vertex   5.600000e+00 7.450000e-01 2.975000e+00
      vertex   5.100000e+00 2.230000e+00 2.950000e+00
      vertex   5.100000e+00 7.700000e-01 2.950000e+00
    endloop
  endfacet
  facet normal -4.993762e-02 -9.987523e-01 0.000000e+00
    outer loop
      vertex   5.600000e+00 7.450000e-01 2.025000e+00
      vertex   5.600000e+00 7.450000e-01 2.975000e+00
      vertex   5.100000e+00 7.700000e-01 2.050000e+00
    endloop
  endfacet
  facet normal -4.993762e-02 -9.987523e-01 0.000000e+00
    outer loop
      vertex   5.100000e+00 7.700000e-01 2.050000e+00
      vertex   5.600000e+00 7.450000e-01 2.975000e+00
      vertex   5.100000e+00 7.700000e-01 2.950000e+00
    endloop
  endfacet
endsolid
