solid ASCII
  facet normal 0.000000e+00 -1.000000e+00 0.000000e+00
    outer loop
      vertex   6.000000e+00 5.000000e-01 1.500000e+00
      vertex   6.000000e+00 5.000000e-01 3.500000e+00
      vertex   2.000000e+00 5.000000e-01 1.500000e+00
    endloop
  endfacet
  facet normal 0.000000e+00 -1.000000e+00 0.000000e+00
    outer loop
      vertex   2.000000e+00 5.000000e-01 1.500000e+00
      vertex   6.000000e+00 5.000000e-01 3.500000e+00
      vertex   2.000000e+00 5.000000e-01 3.500000e+00
    endloop
  endfacet
  facet normal 1.000000e+00 -0.000000e+00 0.000000e+00
    outer loop
      vertex   6.000000e+00 2.061606e+00 2.996327e+00
      vertex   6.000000e+00 2.251713e+00 2.979154e+00
      vertex   6.000000e+00 2.500000e+00 3.500000e+00
    endloop
  endfacet
  facet normal 1.000000e+00 0.000000e+00 0.000000e+00
    outer loop
      vertex   6.000000e+00 2.500000e+00 3.500000e+00
      vertex   6.000000e+00 2.251713e+00 2.979154e+00
      vertex   6.000000e+00 2.261832e+00 2.739594e+00
    endloop
  endfacet
  facet normal 1.000000e+00 0.000000e+00 0.000000e+00
    outer loop
      vertex   6.000000e+00 2.500000e+00 3.500000e+00
      vertex   6.000000e+00 2.261832e+00 2.739594e+00
      vertex   6.000000e+00 2.265265e+00 2.500000e+00
    endloop
  endfacet
  facet normal 1.000000e+00 0.000000e+00 0.000000e+00
    outer loop
      vertex   6.000000e+00 2.500000e+00 3.500000e+00
      vertex   6.000000e+00 2.265265e+00 2.500000e+00
      vertex   6.000000e+00 2.500000e+00 1.500000e+00
    endloop
  endfacet
  facet normal 1.000000e+00 0.000000e+00 0.000000e+00
    outer loop
      vertex   6.000000e+00 2.500000e+00 1.500000e+00
      vertex   6.000000e+00 2.265265e+00 2.500000e+00
      vertex   6.000000e+00 2.261832e+00 2.260406e+00
    endloop
  endfacet
  facet normal 1.000000e+00 0.000000e+00 0.000000e+00
    outer loop
      vertex   6.000000e+00 2.500000e+00 1.500000e+00
      vertex   6.000000e+00 2.261832e+00 2.260406e+00
      vertex   6.000000e+00 2.251713e+00 2.020846e+00
    endloop
  endfacet
  facet normal 1.000000e+00 0.000000e+00 0.000000e+00
    outer loop
      vertex   6.000000e+00 2.251713e+00 2.020846e+00
      vertex   6.000000e+00 2.061867e+00 2.003692e+00
      vertex   6.000000e+00 2.500000e+00 1.500000e+00
    endloop
  endfacet
  facet normal 1.000000e+00 0.000000e+00 0.000000e+00
    outer loop
      vertex   6.000000e+00 2.500000e+00 1.500000e+00
      vertex   6.000000e+00 2.061867e+00 2.003692e+00
      vertex   6.000000e+00 1.874821e+00 1.991105e+00
    endloop
  endfacet
  facet normal 1.000000e+00 0.000000e+00 0.000000e+00
    outer loop
      vertex   6.000000e+00 2.500000e+00 1.500000e+00
      vertex   6.000000e+00 1.874821e+00 1.991105e+00
      vertex   6.000000e+00 1.688101e+00 1.983358e+00
    endloop
  endfacet
  facet normal 1.000000e+00 0.000000e+00 0.000000e+00
    outer loop
      vertex   6.000000e+00 1.688101e+00 1.983358e+00
      vertex   6.000000e+00 1.499333e+00 1.980724e+00
      vertex   6.000000e+00 2.500000e+00 1.500000e+00
    endloop
  endfacet
  facet normal 1.000000e+00 0.000000e+00 0.000000e+00
    outer loop
      vertex   6.000000e+00 2.500000e+00 1.500000e+00
      vertex   6.000000e+00 1.499333e+00 1.980724e+00
      vertex   6.000000e+00 5.000000e-01 1.500000e+00
    endloop
  endfacet
  facet normal 1.000000e+00 0.000000e+00 0.000000e+00
    outer loop
      vertex   6.000000e+00 5.000000e-01 1.500000e+00
      vertex   6.000000e+00 1.499333e+00 1.980724e+00
      vertex   6.000000e+00 1.311505e+00 1.983365e+00
    endloop
  endfacet
  facet normal 1.000000e+00 4.459682e-15 -7.487207e-15
    outer loop
      vertex   6.000000e+00 5.000000e-01 1.500000e+00
      vertex   6.000000e+00 1.311505e+00 1.983365e+00
      vertex   6.000000e+00 1.125329e+00 1.991097e+00
    endloop
  endfacet
  facet normal 1.000000e+00 -4.488436e-15 3.906703e-15
    outer loop
      vertex   6.000000e+00 1.125329e+00 1.991097e+00
      vertex   6.000000e+00 9.383937e-01 2.003673e+00
      vertex   6.000000e+00 5.000000e-01 1.500000e+00
    endloop
  endfacet
  facet normal 1.000000e+00 0.000000e+00 0.000000e+00
    outer loop
      vertex   6.000000e+00 5.000000e-01 1.500000e+00
      vertex   6.000000e+00 9.383937e-01 2.003673e+00
      vertex   6.000000e+00 7.482872e-01 2.020846e+00
    endloop
  endfacet
  facet normal 1.000000e+00 0.000000e+00 0.000000e+00
    outer loop
      vertex   6.000000e+00 5.000000e-01 1.500000e+00
      vertex   6.000000e+00 7.482872e-01 2.020846e+00
      vertex   6.000000e+00 7.381676e-01 2.260406e+00
    endloop
  endfacet
  facet normal 1.000000e+00 0.000000e+00 0.000000e+00
    outer loop
      vertex   6.000000e+00 7.381676e-01 2.260406e+00
      vertex   6.000000e+00 7.347353e-01 2.500000e+00
      vertex   6.000000e+00 5.000000e-01 1.500000e+00
    endloop
  endfacet
  facet normal 1.000000e+00 0.000000e+00 0.000000e+00
    outer loop
      vertex   6.000000e+00 5.000000e-01 1.500000e+00
      vertex   6.000000e+00 7.347353e-01 2.500000e+00
      vertex   6.000000e+00 5.000000e-01 3.500000e+00
    endloop
  endfacet
  facet normal 1.000000e+00 -1.488400e-14 -3.493799e-15
    outer loop
      vertex   6.000000e+00 5.000000e-01 3.500000e+00
      vertex   6.000000e+00 7.347353e-01 2.500000e+00
      vertex   6.000000e+00 7.381676e-01 2.739594e+00
    endloop
  endfacet
  facet normal 1.000000e+00 7.144392e-15 3.405733e-15
    outer loop
      vertex   6.000000e+00 5.000000e-01 3.500000e+00
      vertex   6.000000e+00 7.381676e-01 2.739594e+00
      vertex   6.000000e+00 7.482872e-01 2.979154e+00
    endloop
  endfacet
  facet normal 1.000000e+00 0.000000e+00 -0.000000e+00
    outer loop
      vertex   6.000000e+00 7.482872e-01 2.979154e+00
      vertex   6.000000e+00 9.381331e-01 2.996308e+00
      vertex   6.000000e+00 5.000000e-01 3.500000e+00
    endloop
  endfacet
  facet normal 1.000000e+00 -4.485857e-15 -3.901991e-15
    outer loop
      vertex   6.000000e+00 5.000000e-01 3.500000e+00
      vertex   6.000000e+00 9.381331e-01 2.996308e+00
      vertex   6.000000e+00 1.125179e+00 3.008895e+00
    endloop
  endfacet
  facet normal 1.000000e+00 4.446834e-15 7.469375e-15
    outer loop
      vertex   6.000000e+00 5.000000e-01 3.500000e+00
      vertex   6.000000e+00 1.125179e+00 3.008895e+00
      vertex   6.000000e+00 1.311899e+00 3.016642e+00
    endloop
  endfacet
  facet normal 1.000000e+00 -9.194820e-15 -1.544460e-14
    outer loop
      vertex   6.000000e+00 1.311899e+00 3.016642e+00
      vertex   6.000000e+00 1.500667e+00 3.019276e+00
      vertex   6.000000e+00 5.000000e-01 3.500000e+00
    endloop
  endfacet
  facet normal 1.000000e+00 -0.000000e+00 3.695168e-15
    outer loop
      vertex   6.000000e+00 5.000000e-01 3.500000e+00
      vertex   6.000000e+00 1.500667e+00 3.019276e+00
      vertex   6.000000e+00 2.500000e+00 3.500000e+00
    endloop
  endfacet
  facet normal 1.000000e+00 9.239246e-15 -1.551145e-14
    outer loop
      vertex   6.000000e+00 2.500000e+00 3.500000e+00
      vertex   6.000000e+00 1.500667e+00 3.019276e+00
      vertex   6.000000e+00 1.688495e+00 3.016635e+00
    endloop
  endfacet
  facet normal 1.000000e+00 0.000000e+00 0.000000e+00
    outer loop
      vertex   6.000000e+00 2.500000e+00 3.500000e+00
      vertex   6.000000e+00 1.688495e+00 3.016635e+00
      vertex   6.000000e+00 1.874671e+00 3.008903e+00
    endloop
  endfacet
  facet normal 1.000000e+00 -0.000000e+00 0.000000e+00
    outer loop
      vertex   6.000000e+00 1.874671e+00 3.008903e+00
      vertex   6.000000e+00 2.061606e+00 2.996327e+00
      vertex   6.000000e+00 2.500000e+00 3.500000e+00
    endloop
  endfacet
  facet normal 1.110223e-16 0.000000e+00 1.000000e+00
    outer loop
      vertex   6.000000e+00 2.500000e+00 3.500000e+00
      vertex   2.000000e+00 2.500000e+00 3.500000e+00
      vertex   6.000000e+00 5.000000e-01 3.500000e+00
    endloop
  endfacet
  facet normal 1.110223e-16 0.000000e+00 1.000000e+00
    outer loop
      vertex   6.000000e+00 5.000000e-01 3.500000e+00
      vertex   2.000000e+00 2.500000e+00 3.500000e+00
      vertex   2.000000e+00 5.000000e-01 3.500000e+00
    endloop
  endfacet
  facet normal -1.000000e+00 -9.010707e-16 4.419408e-16
    outer loop
      vertex   2.000000e+00 2.251193e+00 3.002431e+00
      vertex   2.000000e+00 2.500000e+00 1.500000e+00
      vertex   2.000000e+00 2.251193e+00 1.997569e+00
    endloop
  endfacet
  facet normal -1.000000e+00 0.000000e+00 8.925172e-16
    outer loop
      vertex   2.000000e+00 2.251193e+00 1.997569e+00
      vertex   2.000000e+00 2.500000e+00 1.500000e+00
      vertex   2.000000e+00 5.000000e-01 1.500000e+00
    endloop
  endfacet
  facet normal -1.000000e+00 1.477947e-16 3.723545e-16
    outer loop
      vertex   2.000000e+00 2.251193e+00 1.997569e+00
      vertex   2.000000e+00 5.000000e-01 1.500000e+00
      vertex   2.000000e+00 7.488073e-01 1.997569e+00
    endloop
  endfacet
  facet normal -1.000000e+00 6.704115e-16 1.110223e-16
    outer loop
      vertex   2.000000e+00 7.488073e-01 1.997569e+00
      vertex   2.000000e+00 5.000000e-01 1.500000e+00
      vertex   2.000000e+00 5.000000e-01 3.500000e+00
    endloop
  endfacet
  facet normal -1.000000e+00 0.000000e+00 0.000000e+00
    outer loop
      vertex   2.000000e+00 7.488073e-01 1.997569e+00
      vertex   2.000000e+00 5.000000e-01 3.500000e+00
      vertex   2.000000e+00 7.488073e-01 3.002431e+00
    endloop
  endfacet
  facet normal -1.000000e+00 4.433841e-16 2.217122e-16
    outer loop
      vertex   2.000000e+00 7.488073e-01 3.002431e+00
      vertex   2.000000e+00 5.000000e-01 3.500000e+00
      vertex   2.000000e+00 2.251193e+00 3.002431e+00
    endloop
  endfacet
  facet normal -1.000000e+00 0.000000e+00 -1.338776e-15
    outer loop
      vertex   2.000000e+00 2.251193e+00 3.002431e+00
      vertex   2.000000e+00 5.000000e-01 3.500000e+00
      vertex   2.000000e+00 2.500000e+00 3.500000e+00
    endloop
  endfacet
  facet normal -1.000000e+00 -2.899332e-15 1.110223e-16
    outer loop
      vertex   2.000000e+00 2.251193e+00 3.002431e+00
      vertex   2.000000e+00 2.500000e+00 3.500000e+00
      vertex   2.000000e+00 2.500000e+00 1.500000e+00
    endloop
  endfacet
  facet normal 0.000000e+00 0.000000e+00 -1.000000e+00
    outer loop
      vertex   2.000000e+00 2.500000e+00 1.500000e+00
      vertex   6.000000e+00 2.500000e+00 1.500000e+00
      vertex   2.000000e+00 5.000000e-01 1.500000e+00
    endloop
  endfacet
  facet normal 0.000000e+00 0.000000e+00 -1.000000e+00
    outer loop
      vertex   2.000000e+00 5.000000e-01 1.500000e+00
      vertex   6.000000e+00 2.500000e+00 1.500000e+00
      vertex   6.000000e+00 5.000000e-01 1.500000e+00
    endloop
  endfacet
  facet normal 0.000000e+00 1.000000e+00 0.000000e+00
    outer loop
      vertex   2.000000e+00 2.500000e+00 1.500000e+00
      vertex   2.000000e+00 2.500000e+00 3.500000e+00
      vertex   6.000000e+00 2.500000e+00 1.500000e+00
    endloop
  endfacet
  facet normal 0.000000e+00 1.000000e+00 -0.000000e+00
    outer loop
      vertex   6.000000e+00 2.500000e+00 1.500000e+00
      vertex   2.000000e+00 2.500000e+00 3.500000e+00
      vertex   6.000000e+00 2.500000e+00 3.500000e+00
    endloop
  endfacet
endsolid
