solid ASCII
  facet normal 3.806420e-01 -1.687706e-16 9.247225e-01
    outer loop
      vertex   2.000000e+00 2.251193e+00 3.002431e+00
      vertex   2.000000e+00 7.488073e-01 3.002431e+00
      vertex   2.056383e+00 2.231757e+00 2.979222e+00
    endloop
  endfacet
  facet normal 3.802656e-01 1.673328e-05 9.248773e-01
    outer loop
      vertex   2.056383e+00 2.231757e+00 2.979222e+00
      vertex   2.000000e+00 7.488073e-01 3.002431e+00
      vertex   2.057082e+00 7.684694e-01 2.978961e+00
    endloop
  endfacet
  facet normal 3.195653e-01 -1.633033e-05 9.475643e-01
    outer loop
      vertex   2.056383e+00 2.231757e+00 2.979222e+00
      vertex   2.057082e+00 7.684694e-01 2.978961e+00
      vertex   2.113774e+00 2.214539e+00 2.959867e+00
    endloop
  endfacet
  facet normal 3.182472e-01 4.119892e-05 9.480078e-01
    outer loop
      vertex   2.113774e+00 2.214539e+00 2.959867e+00
      vertex   2.057082e+00 7.684694e-01 2.978961e+00
      vertex   2.115460e+00 7.859256e-01 2.959363e+00
    endloop
  endfacet
  facet normal 2.566683e-01 -3.801081e-05 9.664995e-01
    outer loop
      vertex   2.113774e+00 2.214539e+00 2.959867e+00
      vertex   2.115460e+00 7.859256e-01 2.959363e+00
      vertex   2.173049e+00 2.199642e+00 2.944124e+00
    endloop
  endfacet
  facet normal 2.542047e-01 6.936504e-05 9.671504e-01
    outer loop
      vertex   2.173049e+00 2.199642e+00 2.944124e+00
      vertex   2.115460e+00 7.859256e-01 2.959363e+00
      vertex   2.176111e+00 8.010476e-01 2.943420e+00
    endloop
  endfacet
  facet normal 1.963672e-01 -6.396778e-05 9.805304e-01
    outer loop
      vertex   2.173049e+00 2.199642e+00 2.944124e+00
      vertex   2.176111e+00 8.010476e-01 2.943420e+00
      vertex   2.234590e+00 2.187236e+00 2.931799e+00
    endloop
  endfacet
  facet normal 1.931891e-01 7.539895e-05 9.811615e-01
    outer loop
      vertex   2.234590e+00 2.187236e+00 2.931799e+00
      vertex   2.176111e+00 8.010476e-01 2.943420e+00
      vertex   2.238355e+00 8.134268e-01 2.931163e+00
    endloop
  endfacet
  facet normal 1.427016e-01 -6.693509e-05 9.897658e-01
    outer loop
      vertex   2.234590e+00 2.187236e+00 2.931799e+00
      vertex   2.238355e+00 8.134268e-01 2.931163e+00
      vertex   2.296968e+00 2.177600e+00 2.922805e+00
    endloop
  endfacet
  facet normal 1.393338e-01 8.070471e-05 9.902455e-01
    outer loop
      vertex   2.296968e+00 2.177600e+00 2.922805e+00
      vertex   2.238355e+00 8.134268e-01 2.931163e+00
      vertex   2.301715e+00 8.230254e-01 2.922248e+00
    endloop
  endfacet
  facet normal 9.808295e-02 -6.585606e-05 9.951782e-01
    outer loop
      vertex   2.296968e+00 2.177600e+00 2.922805e+00
      vertex   2.301715e+00 8.230254e-01 2.922248e+00
      vertex   2.360317e+00 2.170463e+00 2.916561e+00
    endloop
  endfacet
  facet normal 9.488057e-02 7.473068e-05 9.954887e-01
    outer loop
      vertex   2.360317e+00 2.170463e+00 2.916561e+00
      vertex   2.301715e+00 8.230254e-01 2.922248e+00
      vertex   2.366027e+00 8.300647e-01 2.916117e+00
    endloop
  endfacet
  facet normal 6.281936e-02 -6.269144e-05 9.980249e-01
    outer loop
      vertex   2.360317e+00 2.170463e+00 2.916561e+00
      vertex   2.366027e+00 8.300647e-01 2.916117e+00
      vertex   2.424530e+00 2.165507e+00 2.912519e+00
    endloop
  endfacet
  facet normal 5.992984e-02 6.437182e-05 9.982026e-01
    outer loop
      vertex   2.424530e+00 2.165507e+00 2.912519e+00
      vertex   2.366027e+00 8.300647e-01 2.916117e+00
      vertex   2.430747e+00 8.348783e-01 2.912231e+00
    endloop
  endfacet
  facet normal 3.592166e-02 -4.804356e-05 9.993546e-01
    outer loop
      vertex   2.424530e+00 2.165507e+00 2.912519e+00
      vertex   2.430747e+00 8.348783e-01 2.912231e+00
      vertex   2.488885e+00 2.162349e+00 2.910205e+00
    endloop
  endfacet
  facet normal 3.365567e-02 5.131832e-05 9.994335e-01
    outer loop
      vertex   2.488885e+00 2.162349e+00 2.910205e+00
      vertex   2.430747e+00 8.348783e-01 2.912231e+00
      vertex   2.495762e+00 8.379005e-01 2.910042e+00
    endloop
  endfacet
  facet normal 9.805598e-03 -7.258529e-05 9.999519e-01
    outer loop
      vertex   2.488885e+00 2.162349e+00 2.910205e+00
      vertex   2.495762e+00 8.379005e-01 2.910042e+00
      vertex   2.617003e+00 2.159837e+00 2.908949e+00
    endloop
  endfacet
  facet normal 8.157802e-03 7.855392e-05 9.999667e-01
    outer loop
      vertex   2.617003e+00 2.159837e+00 2.908949e+00
      vertex   2.495762e+00 8.379005e-01 2.910042e+00
      vertex   2.626824e+00 8.402107e-01 2.908972e+00
    endloop
  endfacet
  facet normal -7.069046e-03 -3.477199e-05 9.999750e-01
    outer loop
      vertex   2.617003e+00 2.159837e+00 2.908949e+00
      vertex   2.626824e+00 8.402107e-01 2.908972e+00
      vertex   2.745186e+00 2.160003e+00 2.909855e+00
    endloop
  endfacet
  facet normal -7.626524e-03 1.522684e-05 9.999709e-01
    outer loop
      vertex   2.745186e+00 2.160003e+00 2.909855e+00
      vertex   2.626824e+00 8.402107e-01 2.908972e+00
      vertex   2.756246e+00 8.399333e-01 2.909960e+00
    endloop
  endfacet
  facet normal -6.913269e-03 2.120281e-05 9.999761e-01
    outer loop
      vertex   2.745186e+00 2.160003e+00 2.909855e+00
      vertex   2.756246e+00 8.399333e-01 2.909960e+00
      vertex   2.879179e+00 2.160605e+00 2.910781e+00
    endloop
  endfacet
  facet normal -6.275134e-03 -3.819970e-05 9.999803e-01
    outer loop
      vertex   2.879179e+00 2.160605e+00 2.910781e+00
      vertex   2.756246e+00 8.399333e-01 2.909960e+00
      vertex   2.889466e+00 8.393870e-01 2.910796e+00
    endloop
  endfacet
  facet normal 1.327915e-03 2.099876e-05 9.999991e-01
    outer loop
      vertex   2.879179e+00 2.160605e+00 2.910781e+00
      vertex   2.889466e+00 8.393870e-01 2.910796e+00
      vertex   2.922792e+00 8.394259e-01 2.910751e+00
    endloop
  endfacet
  facet normal 2.341033e-03 5.444250e-05 9.999973e-01
    outer loop
      vertex   2.879179e+00 2.160605e+00 2.910781e+00
      vertex   2.922792e+00 8.394259e-01 2.910751e+00
      vertex   2.947164e+00 2.160473e+00 2.910622e+00
    endloop
  endfacet
  facet normal 4.468437e-03 1.519344e-05 9.999900e-01
    outer loop
      vertex   2.947164e+00 2.160473e+00 2.910622e+00
      vertex   2.922792e+00 8.394259e-01 2.910751e+00
      vertex   2.938593e+00 8.394815e-01 2.910681e+00
    endloop
  endfacet
  facet normal 6.584727e-03 1.463085e-06 9.999783e-01
    outer loop
      vertex   2.947164e+00 2.160473e+00 2.910622e+00
      vertex   2.938593e+00 8.394815e-01 2.910681e+00
      vertex   2.952732e+00 8.395537e-01 2.910588e+00
    endloop
  endfacet
  facet normal 8.058203e-03 7.674453e-06 9.999675e-01
    outer loop
      vertex   2.947164e+00 2.160473e+00 2.910622e+00
      vertex   2.952732e+00 8.395537e-01 2.910588e+00
      vertex   2.962229e+00 2.160380e+00 2.910501e+00
    endloop
  endfacet
  facet normal 1.016650e-02 -7.486543e-06 9.999483e-01
    outer loop
      vertex   2.962229e+00 2.160380e+00 2.910501e+00
      vertex   2.952732e+00 8.395537e-01 2.910588e+00
      vertex   2.977526e+00 8.397464e-01 2.910335e+00
    endloop
  endfacet
  facet normal 1.061535e-02 -2.286859e-06 9.999437e-01
    outer loop
      vertex   2.962229e+00 2.160380e+00 2.910501e+00
      vertex   2.977526e+00 8.397464e-01 2.910335e+00
      vertex   2.975412e+00 2.160273e+00 2.910361e+00
    endloop
  endfacet
  facet normal 1.467909e-02 4.220280e-06 9.998923e-01
    outer loop
      vertex   2.975412e+00 2.160273e+00 2.910361e+00
      vertex   2.977526e+00 8.397464e-01 2.910335e+00
      vertex   3.000294e+00 2.159996e+00 2.909996e+00
    endloop
  endfacet
  facet normal 1.492376e-02 0.000000e+00 9.998886e-01
    outer loop
      vertex   3.000294e+00 2.159996e+00 2.909996e+00
      vertex   2.977526e+00 8.397464e-01 2.910335e+00
      vertex   3.000294e+00 8.400040e-01 2.909996e+00
    endloop
  endfacet
  facet normal 9.995677e-01 0.000000e+00 -2.940070e-02
    outer loop
      vertex   3.000000e+00 8.500000e-01 2.900000e+00
      vertex   3.000000e+00 2.150000e+00 2.900000e+00
      vertex   3.000294e+00 8.400040e-01 2.909996e+00
    endloop
  endfacet
  facet normal 9.995677e-01 0.000000e+00 -2.940070e-02
    outer loop
      vertex   3.000294e+00 8.400040e-01 2.909996e+00
      vertex   3.000000e+00 2.150000e+00 2.900000e+00
      vertex   3.000294e+00 2.159996e+00 2.909996e+00
    endloop
  endfacet
  facet normal 3.258867e-01 -9.454088e-01 -3.133611e-16
    outer loop
      vertex   2.000000e+00 7.488073e-01 1.997569e+00
      vertex   2.056388e+00 7.682445e-01 2.020780e+00
      vertex   2.000000e+00 7.488073e-01 3.002431e+00
    endloop
  endfacet
  facet normal 3.256680e-01 -9.454842e-01 -1.405479e-05
    outer loop
      vertex   2.000000e+00 7.488073e-01 3.002431e+00
      vertex   2.056388e+00 7.682445e-01 2.020780e+00
      vertex   2.057082e+00 7.684694e-01 2.978961e+00
    endloop
  endfacet
  facet normal 2.873547e-01 -9.578243e-01 1.660826e-05
    outer loop
      vertex   2.057082e+00 7.684694e-01 2.978961e+00
      vertex   2.056388e+00 7.682445e-01 2.020780e+00
      vertex   2.113782e+00 7.854634e-01 2.040136e+00
    endloop
  endfacet
  facet normal 2.864744e-01 -9.580879e-01 -4.132794e-05
    outer loop
      vertex   2.057082e+00 7.684694e-01 2.978961e+00
      vertex   2.113782e+00 7.854634e-01 2.040136e+00
      vertex   2.115460e+00 7.859256e-01 2.959363e+00
    endloop
  endfacet
  facet normal 2.437277e-01 -9.698437e-01 4.263679e-05
    outer loop
      vertex   2.115460e+00 7.859256e-01 2.959363e+00
      vertex   2.113782e+00 7.854634e-01 2.040136e+00
      vertex   2.173050e+00 8.003585e-01 2.055876e+00
    endloop
  endfacet
  facet normal 2.419042e-01 -9.703001e-01 -8.088913e-05
    outer loop
      vertex   2.115460e+00 7.859256e-01 2.959363e+00
      vertex   2.173050e+00 8.003585e-01 2.055876e+00
      vertex   2.176111e+00 8.010476e-01 2.943420e+00
    endloop
  endfacet
  facet normal 1.975942e-01 -9.802839e-01 7.967932e-05
    outer loop
      vertex   2.176111e+00 8.010476e-01 2.943420e+00
      vertex   2.173050e+00 8.003585e-01 2.055876e+00
      vertex   2.234588e+00 8.127638e-01 2.068201e+00
    endloop
  endfacet
  facet normal 1.950416e-01 -9.807950e-01 -9.771008e-05
    outer loop
      vertex   2.176111e+00 8.010476e-01 2.943420e+00
      vertex   2.234588e+00 8.127638e-01 2.068201e+00
      vertex   2.238355e+00 8.134268e-01 2.931163e+00
    endloop
  endfacet
  facet normal 1.526546e-01 -9.882796e-01 9.302857e-05
    outer loop
      vertex   2.238355e+00 8.134268e-01 2.931163e+00
      vertex   2.234588e+00 8.127638e-01 2.068201e+00
      vertex   2.296970e+00 8.224004e-01 2.077195e+00
    endloop
  endfacet
  facet normal 1.497692e-01 -9.887210e-01 -1.096552e-04
    outer loop
      vertex   2.238355e+00 8.134268e-01 2.931163e+00
      vertex   2.296970e+00 8.224004e-01 2.077195e+00
      vertex   2.301715e+00 8.230254e-01 2.922248e+00
    endloop
  endfacet
  facet normal 1.119356e-01 -9.937155e-01 1.064599e-04
    outer loop
      vertex   2.301715e+00 8.230254e-01 2.922248e+00
      vertex   2.296970e+00 8.224004e-01 2.077195e+00
      vertex   2.360317e+00 8.295367e-01 2.083439e+00
    endloop
  endfacet
  facet normal 1.087956e-01 -9.940641e-01 -1.156203e-04
    outer loop
      vertex   2.301715e+00 8.230254e-01 2.922248e+00
      vertex   2.360317e+00 8.295367e-01 2.083439e+00
      vertex   2.366027e+00 8.300647e-01 2.916117e+00
    endloop
  endfacet
  facet normal 7.695635e-02 -9.970345e-01 1.045883e-04
    outer loop
      vertex   2.366027e+00 8.300647e-01 2.916117e+00
      vertex   2.360317e+00 8.295367e-01 2.083439e+00
      vertex   2.424529e+00 8.344934e-01 2.087481e+00
    endloop
  endfacet
  facet normal 7.416538e-02 -9.972460e-01 -9.358748e-05
    outer loop
      vertex   2.366027e+00 8.300647e-01 2.916117e+00
      vertex   2.424529e+00 8.344934e-01 2.087481e+00
      vertex   2.430747e+00 8.348783e-01 2.912231e+00
    endloop
  endfacet
  facet normal 4.899885e-02 -9.987988e-01 9.685497e-05
    outer loop
      vertex   2.430747e+00 8.348783e-01 2.912231e+00
      vertex   2.424529e+00 8.344934e-01 2.087481e+00
      vertex   2.488884e+00 8.376507e-01 2.089795e+00
    endloop
  endfacet
  facet normal 4.643035e-02 -9.989215e-01 -8.512277e-05
    outer loop
      vertex   2.430747e+00 8.348783e-01 2.912231e+00
      vertex   2.488884e+00 8.376507e-01 2.089795e+00
      vertex   2.495762e+00 8.379005e-01 2.910042e+00
    endloop
  endfacet
  facet normal 1.960317e-02 -9.998078e-01 1.400919e-04
    outer loop
      vertex   2.495762e+00 8.379005e-01 2.910042e+00
      vertex   2.488884e+00 8.376507e-01 2.089795e+00
      vertex   2.617001e+00 8.401628e-01 2.091051e+00
    endloop
  endfacet
  facet normal 1.762334e-02 -9.998447e-01 -1.530919e-04
    outer loop
      vertex   2.495762e+00 8.379005e-01 2.910042e+00
      vertex   2.617001e+00 8.401628e-01 2.091051e+00
      vertex   2.626824e+00 8.402107e-01 2.908972e+00
    endloop
  endfacet
  facet normal -1.295022e-03 -9.999992e-01 7.412919e-05
    outer loop
      vertex   2.626824e+00 8.402107e-01 2.908972e+00
      vertex   2.617001e+00 8.401628e-01 2.091051e+00
      vertex   2.745183e+00 8.399968e-01 2.090145e+00
    endloop
  endfacet
  facet normal -2.143627e-03 -9.999977e-01 -4.853419e-05
    outer loop
      vertex   2.626824e+00 8.402107e-01 2.908972e+00
      vertex   2.745183e+00 8.399968e-01 2.090145e+00
      vertex   2.756246e+00 8.399333e-01 2.909960e+00
    endloop
  endfacet
  facet normal -4.490154e-03 -9.999899e-01 -1.686798e-05
    outer loop
      vertex   2.756246e+00 8.399333e-01 2.909960e+00
      vertex   2.745183e+00 8.399968e-01 2.090145e+00
      vertex   2.879174e+00 8.393951e-01 2.089219e+00
    endloop
  endfacet
  facet normal -4.100550e-03 -9.999916e-01 4.148678e-05
    outer loop
      vertex   2.756246e+00 8.399333e-01 2.909960e+00
      vertex   2.879174e+00 8.393951e-01 2.089219e+00
      vertex   2.889466e+00 8.393870e-01 2.910796e+00
    endloop
  endfacet
  facet normal 1.166801e-03 -9.999993e-01 -2.449778e-05
    outer loop
      vertex   2.889466e+00 8.393870e-01 2.910796e+00
      vertex   2.879174e+00 8.393951e-01 2.089219e+00
      vertex   2.922792e+00 8.394259e-01 2.910751e+00
    endloop
  endfacet
  facet normal 1.934628e-03 -9.999981e-01 -6.526418e-05
    outer loop
      vertex   2.922792e+00 8.394259e-01 2.910751e+00
      vertex   2.879174e+00 8.393951e-01 2.089219e+00
      vertex   2.947159e+00 8.395266e-01 2.089378e+00
    endloop
  endfacet
  facet normal 3.521066e-03 -9.999938e-01 -1.819868e-05
    outer loop
      vertex   2.922792e+00 8.394259e-01 2.910751e+00
      vertex   2.947159e+00 8.395266e-01 2.089378e+00
      vertex   2.938593e+00 8.394815e-01 2.910681e+00
    endloop
  endfacet
  facet normal 5.104126e-03 -9.999870e-01 -1.687351e-06
    outer loop
      vertex   2.938593e+00 8.394815e-01 2.910681e+00
      vertex   2.947159e+00 8.395266e-01 2.089378e+00
      vertex   2.952732e+00 8.395537e-01 2.910588e+00
    endloop
  endfacet
  facet normal 6.202748e-03 -9.999808e-01 -9.142098e-06
    outer loop
      vertex   2.952732e+00 8.395537e-01 2.910588e+00
      vertex   2.947159e+00 8.395266e-01 2.089378e+00
      vertex   2.962227e+00 8.396201e-01 2.089499e+00
    endloop
  endfacet
  facet normal 7.772237e-03 -9.999698e-01 9.008612e-06
    outer loop
      vertex   2.952732e+00 8.395537e-01 2.910588e+00
      vertex   2.962227e+00 8.396201e-01 2.089499e+00
      vertex   2.977526e+00 8.397464e-01 2.910335e+00
    endloop
  endfacet
  facet normal 8.107431e-03 -9.999671e-01 2.760632e-06
    outer loop
      vertex   2.977526e+00 8.397464e-01 2.910335e+00
      vertex   2.962227e+00 8.396201e-01 2.089499e+00
      vertex   2.975411e+00 8.397270e-01 2.089639e+00
    endloop
  endfacet
  facet normal 1.113238e-02 -9.999380e-01 -5.037283e-06
    outer loop
      vertex   2.977526e+00 8.397464e-01 2.910335e+00
      vertex   2.975411e+00 8.397270e-01 2.089639e+00
      vertex   3.000294e+00 8.400040e-01 2.090004e+00
    endloop
  endfacet
  facet normal 1.131386e-02 -9.999360e-01 1.048489e-10
    outer loop
      vertex   3.000294e+00 8.400040e-01 2.090004e+00
      vertex   3.000294e+00 8.400040e-01 2.909996e+00
      vertex   2.977526e+00 8.397464e-01 2.910335e+00
    endloop
  endfacet
  facet normal 3.806396e-01 3.537512e-16 -9.247235e-01
    outer loop
      vertex   2.000000e+00 7.488073e-01 1.997569e+00
      vertex   2.000000e+00 2.251193e+00 1.997569e+00
      vertex   2.056388e+00 7.682445e-01 2.020780e+00
    endloop
  endfacet
  facet normal 3.803082e-01 -1.473724e-05 -9.248598e-01
    outer loop
      vertex   2.056388e+00 7.682445e-01 2.020780e+00
      vertex   2.000000e+00 2.251193e+00 1.997569e+00
      vertex   2.056996e+00 2.231558e+00 2.021007e+00
    endloop
  endfacet
  facet normal 3.195594e-01 1.401351e-05 -9.475663e-01
    outer loop
      vertex   2.056388e+00 7.682445e-01 2.020780e+00
      vertex   2.056996e+00 2.231558e+00 2.021007e+00
      vertex   2.113782e+00 7.854634e-01 2.040136e+00
    endloop
  endfacet
  facet normal 3.183639e-01 -3.825229e-05 -9.479686e-01
    outer loop
      vertex   2.113782e+00 7.854634e-01 2.040136e+00
      vertex   2.056996e+00 2.231558e+00 2.021007e+00
      vertex   2.115334e+00 2.214109e+00 2.040599e+00
    endloop
  endfacet
  facet normal 2.566644e-01 3.479264e-05 -9.665006e-01
    outer loop
      vertex   2.113782e+00 7.854634e-01 2.040136e+00
      vertex   2.115334e+00 2.214109e+00 2.040599e+00
      vertex   2.173050e+00 8.003585e-01 2.055876e+00
    endloop
  endfacet
  facet normal 2.543338e-01 -6.700974e-05 -9.671165e-01
    outer loop
      vertex   2.173050e+00 8.003585e-01 2.055876e+00
      vertex   2.115334e+00 2.214109e+00 2.040599e+00
      vertex   2.176002e+00 2.198977e+00 2.056555e+00
    endloop
  endfacet
  facet normal 1.963669e-01 6.189172e-05 -9.805305e-01
    outer loop
      vertex   2.173050e+00 8.003585e-01 2.055876e+00
      vertex   2.176002e+00 2.198977e+00 2.056555e+00
      vertex   2.234588e+00 8.127638e-01 2.068201e+00
    endloop
  endfacet
  facet normal 1.933292e-01 -7.156097e-05 -9.811339e-01
    outer loop
      vertex   2.234588e+00 8.127638e-01 2.068201e+00
      vertex   2.176002e+00 2.198977e+00 2.056555e+00
      vertex   2.238159e+00 2.186607e+00 2.068804e+00
    endloop
  endfacet
  facet normal 1.427027e-01 6.380671e-05 -9.897656e-01
    outer loop
      vertex   2.234588e+00 8.127638e-01 2.068201e+00
      vertex   2.238159e+00 2.186607e+00 2.068804e+00
      vertex   2.296970e+00 8.224004e-01 2.077195e+00
    endloop
  endfacet
  facet normal 1.394991e-01 -7.710873e-05 -9.902222e-01
    outer loop
      vertex   2.296970e+00 8.224004e-01 2.077195e+00
      vertex   2.238159e+00 2.186607e+00 2.068804e+00
      vertex   2.301483e+00 2.177005e+00 2.077726e+00
    endloop
  endfacet
  facet normal 9.808284e-02 6.281476e-05 -9.951783e-01
    outer loop
      vertex   2.296970e+00 8.224004e-01 2.077195e+00
      vertex   2.301483e+00 2.177005e+00 2.077726e+00
      vertex   2.360317e+00 8.295367e-01 2.083439e+00
    endloop
  endfacet
  facet normal 9.503733e-02 -7.141352e-05 -9.954737e-01
    outer loop
      vertex   2.360317e+00 8.295367e-01 2.083439e+00
      vertex   2.301483e+00 2.177005e+00 2.077726e+00
      vertex   2.365747e+00 2.169961e+00 2.083861e+00
    endloop
  endfacet
  facet normal 6.281952e-02 5.990041e-05 -9.980249e-01
    outer loop
      vertex   2.360317e+00 8.295367e-01 2.083439e+00
      vertex   2.365747e+00 2.169961e+00 2.083861e+00
      vertex   2.424529e+00 8.344934e-01 2.087481e+00
    endloop
  endfacet
  facet normal 6.007087e-02 -6.154415e-05 -9.981941e-01
    outer loop
      vertex   2.424529e+00 8.344934e-01 2.087481e+00
      vertex   2.365747e+00 2.169961e+00 2.083861e+00
      vertex   2.430432e+00 2.165140e+00 2.087754e+00
    endloop
  endfacet
  facet normal 3.592223e-02 4.580594e-05 -9.993546e-01
    outer loop
      vertex   2.424529e+00 8.344934e-01 2.087481e+00
      vertex   2.430432e+00 2.165140e+00 2.087754e+00
      vertex   2.488884e+00 8.376507e-01 2.089795e+00
    endloop
  endfacet
  facet normal 3.377187e-02 -4.899431e-05 -9.994296e-01
    outer loop
      vertex   2.488884e+00 8.376507e-01 2.089795e+00
      vertex   2.430432e+00 2.165140e+00 2.087754e+00
      vertex   2.495393e+00 2.162112e+00 2.089950e+00
    endloop
  endfacet
  facet normal 9.805890e-03 6.884369e-05 -9.999519e-01
    outer loop
      vertex   2.488884e+00 8.376507e-01 2.089795e+00
      vertex   2.495393e+00 2.162112e+00 2.089950e+00
      vertex   2.617001e+00 8.401628e-01 2.091051e+00
    endloop
  endfacet
  facet normal 8.230930e-03 -7.605075e-05 -9.999661e-01
    outer loop
      vertex   2.617001e+00 8.401628e-01 2.091051e+00
      vertex   2.495393e+00 2.162112e+00 2.089950e+00
      vertex   2.626466e+00 2.159791e+00 2.091029e+00
    endloop
  endfacet
  facet normal -7.068890e-03 3.368920e-05 -9.999750e-01
    outer loop
      vertex   2.617001e+00 8.401628e-01 2.091051e+00
      vertex   2.626466e+00 2.159791e+00 2.091029e+00
      vertex   2.745183e+00 8.399968e-01 2.090145e+00
    endloop
  endfacet
  facet normal -7.607258e-03 -1.474017e-05 -9.999711e-01
    outer loop
      vertex   2.745183e+00 8.399968e-01 2.090145e+00
      vertex   2.626466e+00 2.159791e+00 2.091029e+00
      vertex   2.755761e+00 2.160064e+00 2.090045e+00
    endloop
  endfacet
  facet normal -6.913514e-03 -2.029975e-05 -9.999761e-01
    outer loop
      vertex   2.745183e+00 8.399968e-01 2.090145e+00
      vertex   2.755761e+00 2.160064e+00 2.090045e+00
      vertex   2.879174e+00 8.393951e-01 2.089219e+00
    endloop
  endfacet
  facet normal -6.299349e-03 3.709489e-05 -9.999802e-01
    outer loop
      vertex   2.879174e+00 8.393951e-01 2.089219e+00
      vertex   2.755761e+00 2.160064e+00 2.090045e+00
      vertex   2.889135e+00 2.160613e+00 2.089205e+00
    endloop
  endfacet
  facet normal 1.289140e-03 -2.011892e-05 -9.999992e-01
    outer loop
      vertex   2.879174e+00 8.393951e-01 2.089219e+00
      vertex   2.889135e+00 2.160613e+00 2.089205e+00
      vertex   2.922560e+00 2.160575e+00 2.089248e+00
    endloop
  endfacet
  facet normal 2.340474e-03 -5.464363e-05 -9.999973e-01
    outer loop
      vertex   2.879174e+00 8.393951e-01 2.089219e+00
      vertex   2.922560e+00 2.160575e+00 2.089248e+00
      vertex   2.947159e+00 8.395266e-01 2.089378e+00
    endloop
  endfacet
  facet normal 4.442539e-03 -1.550010e-05 -9.999901e-01
    outer loop
      vertex   2.947159e+00 8.395266e-01 2.089378e+00
      vertex   2.922560e+00 2.160575e+00 2.089248e+00
      vertex   2.938420e+00 2.160519e+00 2.089318e+00
    endloop
  endfacet
  facet normal 6.561021e-03 -1.484174e-06 -9.999785e-01
    outer loop
      vertex   2.947159e+00 8.395266e-01 2.089378e+00
      vertex   2.938420e+00 2.160519e+00 2.089318e+00
      vertex   2.952606e+00 2.160447e+00 2.089411e+00
    endloop
  endfacet
  facet normal 8.057883e-03 -7.656643e-06 -9.999675e-01
    outer loop
      vertex   2.947159e+00 8.395266e-01 2.089378e+00
      vertex   2.952606e+00 2.160447e+00 2.089411e+00
      vertex   2.962227e+00 8.396201e-01 2.089499e+00
    endloop
  endfacet
  facet normal 1.014917e-02 7.577202e-06 -9.999485e-01
    outer loop
      vertex   2.962227e+00 8.396201e-01 2.089499e+00
      vertex   2.952606e+00 2.160447e+00 2.089411e+00
      vertex   2.977472e+00 2.160254e+00 2.089664e+00
    endloop
  endfacet
  facet normal 1.061481e-02 2.201315e-06 -9.999437e-01
    outer loop
      vertex   2.962227e+00 8.396201e-01 2.089499e+00
      vertex   2.977472e+00 2.160254e+00 2.089664e+00
      vertex   2.975411e+00 8.397270e-01 2.089639e+00
    endloop
  endfacet
  facet normal 1.467889e-02 -4.143762e-06 -9.998923e-01
    outer loop
      vertex   2.975411e+00 8.397270e-01 2.089639e+00
      vertex   2.977472e+00 2.160254e+00 2.089664e+00
      vertex   3.000294e+00 8.400040e-01 2.090004e+00
    endloop
  endfacet
  facet normal 1.491855e-02 3.363958e-16 -9.998887e-01
    outer loop
      vertex   3.000294e+00 8.400040e-01 2.090004e+00
      vertex   2.977472e+00 2.160254e+00 2.089664e+00
      vertex   3.000294e+00 2.159996e+00 2.090004e+00
    endloop
  endfacet
  facet normal 3.258893e-01 9.454079e-01 2.737906e-16
    outer loop
      vertex   2.000000e+00 2.251193e+00 3.002431e+00
      vertex   2.056383e+00 2.231757e+00 2.979222e+00
      vertex   2.000000e+00 2.251193e+00 1.997569e+00
    endloop
  endfacet
  facet normal 3.257042e-01 9.454717e-01 1.189594e-05
    outer loop
      vertex   2.000000e+00 2.251193e+00 1.997569e+00
      vertex   2.056383e+00 2.231757e+00 2.979222e+00
      vertex   2.056996e+00 2.231558e+00 2.021007e+00
    endloop
  endfacet
  facet normal 2.873599e-01 9.578227e-01 -1.519608e-05
    outer loop
      vertex   2.056996e+00 2.231558e+00 2.021007e+00
      vertex   2.056383e+00 2.231757e+00 2.979222e+00
      vertex   2.113774e+00 2.214539e+00 2.959867e+00
    endloop
  endfacet
  facet normal 2.865458e-01 9.580665e-01 3.845554e-05
    outer loop
      vertex   2.056996e+00 2.231558e+00 2.021007e+00
      vertex   2.113774e+00 2.214539e+00 2.959867e+00
      vertex   2.115334e+00 2.214109e+00 2.040599e+00
    endloop
  endfacet
  facet normal 2.437304e-01 9.698430e-01 -3.970332e-05
    outer loop
      vertex   2.115334e+00 2.214109e+00 2.040599e+00
      vertex   2.113774e+00 2.214539e+00 2.959867e+00
      vertex   2.173049e+00 2.199642e+00 2.944124e+00
    endloop
  endfacet
  facet normal 2.419896e-01 9.702788e-01 7.847337e-05
    outer loop
      vertex   2.115334e+00 2.214109e+00 2.040599e+00
      vertex   2.173049e+00 2.199642e+00 2.944124e+00
      vertex   2.176002e+00 2.198977e+00 2.056555e+00
    endloop
  endfacet
  facet normal 1.975931e-01 9.802841e-01 -7.673610e-05
    outer loop
      vertex   2.176002e+00 2.198977e+00 2.056555e+00
      vertex   2.173049e+00 2.199642e+00 2.944124e+00
      vertex   2.234590e+00 2.187236e+00 2.931799e+00
    endloop
  endfacet
  facet normal 1.951587e-01 9.807717e-01 9.276121e-05
    outer loop
      vertex   2.176002e+00 2.198977e+00 2.056555e+00
      vertex   2.234590e+00 2.187236e+00 2.931799e+00
      vertex   2.238159e+00 2.186607e+00 2.068804e+00
    endloop
  endfacet
  facet normal 1.526562e-01 9.882794e-01 -8.848455e-05
    outer loop
      vertex   2.238159e+00 2.186607e+00 2.068804e+00
      vertex   2.234590e+00 2.187236e+00 2.931799e+00
      vertex   2.296968e+00 2.177600e+00 2.922805e+00
    endloop
  endfacet
  facet normal 1.499172e-01 9.886986e-01 1.045532e-04
    outer loop
      vertex   2.238159e+00 2.186607e+00 2.068804e+00
      vertex   2.296968e+00 2.177600e+00 2.922805e+00
      vertex   2.301483e+00 2.177005e+00 2.077726e+00
    endloop
  endfacet
  facet normal 1.119365e-01 9.937154e-01 -1.018725e-04
    outer loop
      vertex   2.301483e+00 2.177005e+00 2.077726e+00
      vertex   2.296968e+00 2.177600e+00 2.922805e+00
      vertex   2.360317e+00 2.170463e+00 2.916561e+00
    endloop
  endfacet
  facet normal 1.089484e-01 9.940474e-01 1.102991e-04
    outer loop
      vertex   2.301483e+00 2.177005e+00 2.077726e+00
      vertex   2.360317e+00 2.170463e+00 2.916561e+00
      vertex   2.365747e+00 2.169961e+00 2.083861e+00
    endloop
  endfacet
  facet normal 7.695671e-02 9.970344e-01 -1.001325e-04
    outer loop
      vertex   2.365747e+00 2.169961e+00 2.083861e+00
      vertex   2.360317e+00 2.170463e+00 2.916561e+00
      vertex   2.424530e+00 2.165507e+00 2.912519e+00
    endloop
  endfacet
  facet normal 7.430697e-02 9.972354e-01 8.891429e-05
    outer loop
      vertex   2.365747e+00 2.169961e+00 2.083861e+00
      vertex   2.424530e+00 2.165507e+00 2.912519e+00
      vertex   2.430432e+00 2.165140e+00 2.087754e+00
    endloop
  endfacet
  facet normal 4.899903e-02 9.987988e-01 -9.286657e-05
    outer loop
      vertex   2.430432e+00 2.165140e+00 2.087754e+00
      vertex   2.424530e+00 2.165507e+00 2.912519e+00
      vertex   2.488885e+00 2.162349e+00 2.910205e+00
    endloop
  endfacet
  facet normal 4.655988e-02 9.989155e-01 8.088396e-05
    outer loop
      vertex   2.430432e+00 2.165140e+00 2.087754e+00
      vertex   2.488885e+00 2.162349e+00 2.910205e+00
      vertex   2.495393e+00 2.162112e+00 2.089950e+00
    endloop
  endfacet
  facet normal 1.960288e-02 9.998078e-01 -1.332604e-04
    outer loop
      vertex   2.495393e+00 2.162112e+00 2.089950e+00
      vertex   2.488885e+00 2.162349e+00 2.910205e+00
      vertex   2.617003e+00 2.159837e+00 2.908949e+00
    endloop
  endfacet
  facet normal 1.770661e-02 9.998432e-01 1.484076e-04
    outer loop
      vertex   2.495393e+00 2.162112e+00 2.089950e+00
      vertex   2.617003e+00 2.159837e+00 2.908949e+00
      vertex   2.626466e+00 2.159791e+00 2.091029e+00
    endloop
  endfacet
  facet normal -1.295247e-03 9.999992e-01 -7.144982e-05
    outer loop
      vertex   2.626466e+00 2.159791e+00 2.091029e+00
      vertex   2.617003e+00 2.159837e+00 2.908949e+00
      vertex   2.745186e+00 2.160003e+00 2.909855e+00
    endloop
  endfacet
  facet normal -2.110229e-03 9.999978e-01 4.671367e-05
    outer loop
      vertex   2.626466e+00 2.159791e+00 2.091029e+00
      vertex   2.745186e+00 2.160003e+00 2.909855e+00
      vertex   2.755761e+00 2.160064e+00 2.090045e+00
    endloop
  endfacet
  facet normal -4.490036e-03 9.999899e-01 1.601698e-05
    outer loop
      vertex   2.755761e+00 2.160064e+00 2.090045e+00
      vertex   2.745186e+00 2.160003e+00 2.909855e+00
      vertex   2.879179e+00 2.160605e+00 2.910781e+00
    endloop
  endfacet
  facet normal -4.116405e-03 9.999915e-01 -4.016869e-05
    outer loop
      vertex   2.755761e+00 2.160064e+00 2.090045e+00
      vertex   2.879179e+00 2.160605e+00 2.910781e+00
      vertex   2.889135e+00 2.160613e+00 2.089205e+00
    endloop
  endfacet
  facet normal 1.140100e-03 9.999993e-01 2.353419e-05
    outer loop
      vertex   2.889135e+00 2.160613e+00 2.089205e+00
      vertex   2.879179e+00 2.160605e+00 2.910781e+00
      vertex   2.922560e+00 2.160575e+00 2.089248e+00
    endloop
  endfacet
  facet normal 1.935041e-03 9.999981e-01 6.551130e-05
    outer loop
      vertex   2.922560e+00 2.160575e+00 2.089248e+00
      vertex   2.879179e+00 2.160605e+00 2.910781e+00
      vertex   2.947164e+00 2.160473e+00 2.910622e+00
    endloop
  endfacet
  facet normal 3.501672e-03 9.999939e-01 1.858364e-05
    outer loop
      vertex   2.922560e+00 2.160575e+00 2.089248e+00
      vertex   2.947164e+00 2.160473e+00 2.910622e+00
      vertex   2.938420e+00 2.160519e+00 2.089318e+00
    endloop
  endfacet
  facet normal 5.086422e-03 9.999871e-01 1.712056e-06
    outer loop
      vertex   2.938420e+00 2.160519e+00 2.089318e+00
      vertex   2.947164e+00 2.160473e+00 2.910622e+00
      vertex   2.952606e+00 2.160447e+00 2.089411e+00
    endloop
  endfacet
  facet normal 6.202988e-03 9.999808e-01 9.112234e-06
    outer loop
      vertex   2.952606e+00 2.160447e+00 2.089411e+00
      vertex   2.947164e+00 2.160473e+00 2.910622e+00
      vertex   2.962229e+00 2.160380e+00 2.910501e+00
    endloop
  endfacet
  facet normal 7.759343e-03 9.999699e-01 -9.128614e-06
    outer loop
      vertex   2.952606e+00 2.160447e+00 2.089411e+00
      vertex   2.962229e+00 2.160380e+00 2.910501e+00
      vertex   2.977472e+00 2.160254e+00 2.089664e+00
    endloop
  endfacet
  facet normal 8.107839e-03 9.999671e-01 -2.656600e-06
    outer loop
      vertex   2.977472e+00 2.160254e+00 2.089664e+00
      vertex   2.962229e+00 2.160380e+00 2.910501e+00
      vertex   2.975412e+00 2.160273e+00 2.910361e+00
    endloop
  endfacet
  facet normal 1.113254e-02 9.999380e-01 4.936661e-06
    outer loop
      vertex   2.977472e+00 2.160254e+00 2.089664e+00
      vertex   2.975412e+00 2.160273e+00 2.910361e+00
      vertex   3.000294e+00 2.159996e+00 2.909996e+00
    endloop
  endfacet
  facet normal 1.130996e-02 9.999360e-01 1.048477e-10
    outer loop
      vertex   3.000294e+00 2.159996e+00 2.909996e+00
      vertex   3.000294e+00 2.159996e+00 2.090004e+00
      vertex   2.977472e+00 2.160254e+00 2.089664e+00
    endloop
  endfacet
  facet normal 9.995677e-01 -2.939970e-02 -1.895401e-12
    outer loop
      vertex   3.000000e+00 2.150000e+00 2.900000e+00
      vertex   3.000000e+00 2.150000e+00 2.100000e+00
      vertex   3.000294e+00 2.159996e+00 2.909996e+00
    endloop
  endfacet
  facet normal 9.995677e-01 -2.939970e-02 -4.086132e-12
    outer loop
      vertex   3.000294e+00 2.159996e+00 2.909996e+00
      vertex   3.000000e+00 2.150000e+00 2.100000e+00
      vertex   3.000294e+00 2.159996e+00 2.090004e+00
    endloop
  endfacet
  facet normal 9.995677e-01 2.939970e-02 -1.895414e-12
    outer loop
      vertex   3.000000e+00 8.500000e-01 2.900000e+00
      vertex   3.000294e+00 8.400040e-01 2.909996e+00
      vertex   3.000000e+00 8.500000e-01 2.100000e+00
    endloop
  endfacet
  facet normal 9.995677e-01 2.939970e-02 -4.086167e-12
    outer loop
      vertex   3.000000e+00 8.500000e-01 2.100000e+00
      vertex   3.000294e+00 8.400040e-01 2.909996e+00
      vertex   3.000294e+00 8.400040e-01 2.090004e+00
    endloop
  endfacet
  facet normal 9.995677e-01 -0.000000e+00 2.940070e-02
    outer loop
      vertex   3.000000e+00 8.500000e-01 2.100000e+00
      vertex   3.000294e+00 8.400040e-01 2.090004e+00
      vertex   3.000000e+00 2.150000e+00 2.100000e+00
    endloop
  endfacet
  facet normal 9.995677e-01 -9.882154e-18 2.940070e-02
    outer loop
      vertex   3.000000e+00 2.150000e+00 2.100000e+00
      vertex   3.000294e+00 8.400040e-01 2.090004e+00
      vertex   3.000294e+00 2.159996e+00 2.090004e+00
    endloop
  endfacet
endsolid
