solid ASCII
  facet normal -1.000000e+00 1.867178e-13 1.224949e-13
    outer loop
      vertex   8.000000e+00 2.190164e+00 2.937104e+00
      vertex   8.000000e+00 2.202192e+00 2.911519e+00
      vertex   8.000000e+00 2.173727e+00 2.954907e+00
    endloop
  endfacet
  facet normal -1.000000e+00 -0.000000e+00 -0.000000e+00
    outer loop
      vertex   8.000000e+00 2.173727e+00 2.954907e+00
      vertex   8.000000e+00 2.202192e+00 2.911519e+00
      vertex   8.000000e+00 2.156798e+00 2.972228e+00
    endloop
  endfacet
  facet normal -1.000000e+00 0.000000e+00 0.000000e+00
    outer loop
      vertex   8.000000e+00 2.156798e+00 2.972228e+00
      vertex   8.000000e+00 2.202192e+00 2.911519e+00
      vertex   8.000000e+00 2.213464e+00 2.885613e+00
    endloop
  endfacet
  facet normal -1.000000e+00 -0.000000e+00 -0.000000e+00
    outer loop
      vertex   8.000000e+00 2.156798e+00 2.972228e+00
      vertex   8.000000e+00 2.213464e+00 2.885613e+00
      vertex   8.000000e+00 2.139390e+00 2.989060e+00
    endloop
  endfacet
  facet normal -1.000000e+00 0.000000e+00 0.000000e+00
    outer loop
      vertex   8.000000e+00 2.139390e+00 2.989060e+00
      vertex   8.000000e+00 2.213464e+00 2.885613e+00
      vertex   8.000000e+00 2.223976e+00 2.859406e+00
    endloop
  endfacet
  facet normal -1.000000e+00 -0.000000e+00 -0.000000e+00
    outer loop
      vertex   8.000000e+00 2.139390e+00 2.989060e+00
      vertex   8.000000e+00 2.223976e+00 2.859406e+00
      vertex   8.000000e+00 2.121519e+00 3.005397e+00
    endloop
  endfacet
  facet normal -1.000000e+00 0.000000e+00 0.000000e+00
    outer loop
      vertex   8.000000e+00 2.121519e+00 3.005397e+00
      vertex   8.000000e+00 2.223976e+00 2.859406e+00
      vertex   8.000000e+00 2.233728e+00 2.832917e+00
    endloop
  endfacet
  facet normal -1.000000e+00 -0.000000e+00 -0.000000e+00
    outer loop
      vertex   8.000000e+00 2.121519e+00 3.005397e+00
      vertex   8.000000e+00 2.233728e+00 2.832917e+00
      vertex   8.000000e+00 2.103201e+00 3.021231e+00
    endloop
  endfacet
  facet normal -1.000000e+00 -0.000000e+00 -0.000000e+00
    outer loop
      vertex   8.000000e+00 2.103201e+00 3.021231e+00
      vertex   8.000000e+00 2.233728e+00 2.832917e+00
      vertex   8.000000e+00 2.084449e+00 3.036557e+00
    endloop
  endfacet
  facet normal -1.000000e+00 0.000000e+00 0.000000e+00
    outer loop
      vertex   8.000000e+00 2.084449e+00 3.036557e+00
      vertex   8.000000e+00 2.233728e+00 2.832917e+00
      vertex   8.000000e+00 2.242714e+00 2.806165e+00
    endloop
  endfacet
  facet normal -1.000000e+00 -0.000000e+00 -0.000000e+00
    outer loop
      vertex   8.000000e+00 2.084449e+00 3.036557e+00
      vertex   8.000000e+00 2.242714e+00 2.806165e+00
      vertex   8.000000e+00 2.065280e+00 3.051367e+00
    endloop
  endfacet
  facet normal -1.000000e+00 0.000000e+00 0.000000e+00
    outer loop
      vertex   8.000000e+00 2.065280e+00 3.051367e+00
      vertex   8.000000e+00 2.242714e+00 2.806165e+00
      vertex   8.000000e+00 2.250934e+00 2.779170e+00
    endloop
  endfacet
  facet normal -1.000000e+00 -0.000000e+00 -0.000000e+00
    outer loop
      vertex   8.000000e+00 2.065280e+00 3.051367e+00
      vertex   8.000000e+00 2.250934e+00 2.779170e+00
      vertex   8.000000e+00 2.045708e+00 3.065656e+00
    endloop
  endfacet
  facet normal -1.000000e+00 -0.000000e+00 -0.000000e+00
    outer loop
      vertex   8.000000e+00 2.045708e+00 3.065656e+00
      vertex   8.000000e+00 2.250934e+00 2.779170e+00
      vertex   8.000000e+00 2.025749e+00 3.079416e+00
    endloop
  endfacet
  facet normal -1.000000e+00 0.000000e+00 0.000000e+00
    outer loop
      vertex   8.000000e+00 2.025749e+00 3.079416e+00
      vertex   8.000000e+00 2.250934e+00 2.779170e+00
      vertex   8.000000e+00 2.258384e+00 2.751951e+00
    endloop
  endfacet
  facet normal -1.000000e+00 -0.000000e+00 -0.000000e+00
    outer loop
      vertex   8.000000e+00 2.025749e+00 3.079416e+00
      vertex   8.000000e+00 2.258384e+00 2.751951e+00
      vertex   8.000000e+00 2.005419e+00 3.092639e+00
    endloop
  endfacet
  facet normal -1.000000e+00 -0.000000e+00 -0.000000e+00
    outer loop
      vertex   8.000000e+00 2.005419e+00 3.092639e+00
      vertex   8.000000e+00 2.258384e+00 2.751951e+00
      vertex   8.000000e+00 1.984749e+00 3.105311e+00
    endloop
  endfacet
  facet normal -1.000000e+00 0.000000e+00 0.000000e+00
    outer loop
      vertex   8.000000e+00 1.984749e+00 3.105311e+00
      vertex   8.000000e+00 2.258384e+00 2.751951e+00
      vertex   8.000000e+00 2.265062e+00 2.724528e+00
    endloop
  endfacet
  facet normal -1.000000e+00 1.471239e-13 1.083048e-13
    outer loop
      vertex   8.000000e+00 1.984749e+00 3.105311e+00
      vertex   8.000000e+00 2.265062e+00 2.724528e+00
      vertex   8.000000e+00 1.963757e+00 3.117426e+00
    endloop
  endfacet
  facet normal -1.000000e+00 -1.469896e-13 -1.172442e-13
    outer loop
      vertex   8.000000e+00 1.963757e+00 3.117426e+00
      vertex   8.000000e+00 2.265062e+00 2.724528e+00
      vertex   8.000000e+00 1.942457e+00 3.128979e+00
    endloop
  endfacet
  facet normal -1.000000e+00 0.000000e+00 0.000000e+00
    outer loop
      vertex   8.000000e+00 1.942457e+00 3.128979e+00
      vertex   8.000000e+00 2.265062e+00 2.724528e+00
      vertex   8.000000e+00 2.270964e+00 2.696920e+00
    endloop
  endfacet
  facet normal -1.000000e+00 -0.000000e+00 -0.000000e+00
    outer loop
      vertex   8.000000e+00 1.942457e+00 3.128979e+00
      vertex   8.000000e+00 2.270964e+00 2.696920e+00
      vertex   8.000000e+00 1.920863e+00 3.139967e+00
    endloop
  endfacet
  facet normal -1.000000e+00 -0.000000e+00 -0.000000e+00
    outer loop
      vertex   8.000000e+00 1.920863e+00 3.139967e+00
      vertex   8.000000e+00 2.270964e+00 2.696920e+00
      vertex   8.000000e+00 1.898987e+00 3.150387e+00
    endloop
  endfacet
  facet normal -1.000000e+00 0.000000e+00 0.000000e+00
    outer loop
      vertex   8.000000e+00 1.898987e+00 3.150387e+00
      vertex   8.000000e+00 2.270964e+00 2.696920e+00
      vertex   8.000000e+00 2.276089e+00 2.669146e+00
    endloop
  endfacet
  facet normal -1.000000e+00 -0.000000e+00 -0.000000e+00
    outer loop
      vertex   8.000000e+00 1.898987e+00 3.150387e+00
      vertex   8.000000e+00 2.276089e+00 2.669146e+00
      vertex   8.000000e+00 1.876846e+00 3.160236e+00
    endloop
  endfacet
  facet normal -1.000000e+00 1.195693e-13 9.720683e-14
    outer loop
      vertex   8.000000e+00 1.876846e+00 3.160236e+00
      vertex   8.000000e+00 2.276089e+00 2.669146e+00
      vertex   8.000000e+00 1.854451e+00 3.169509e+00
    endloop
  endfacet
  facet normal -1.000000e+00 5.167038e-15 8.039479e-16
    outer loop
      vertex   8.000000e+00 1.854451e+00 3.169509e+00
      vertex   8.000000e+00 2.276089e+00 2.669146e+00
      vertex   8.000000e+00 2.280433e+00 2.641226e+00
    endloop
  endfacet
  facet normal -1.000000e+00 -1.155680e-13 -9.655127e-14
    outer loop
      vertex   8.000000e+00 1.854451e+00 3.169509e+00
      vertex   8.000000e+00 2.280433e+00 2.641226e+00
      vertex   8.000000e+00 1.831816e+00 3.178203e+00
    endloop
  endfacet
  facet normal -1.000000e+00 -0.000000e+00 -0.000000e+00
    outer loop
      vertex   8.000000e+00 1.831816e+00 3.178203e+00
      vertex   8.000000e+00 2.280433e+00 2.641226e+00
      vertex   8.000000e+00 1.808957e+00 3.186314e+00
    endloop
  endfacet
  facet normal -1.000000e+00 0.000000e+00 0.000000e+00
    outer loop
      vertex   8.000000e+00 1.808957e+00 3.186314e+00
      vertex   8.000000e+00 2.280433e+00 2.641226e+00
      vertex   8.000000e+00 2.283994e+00 2.613180e+00
    endloop
  endfacet
  facet normal -1.000000e+00 -0.000000e+00 -0.000000e+00
    outer loop
      vertex   8.000000e+00 1.808957e+00 3.186314e+00
      vertex   8.000000e+00 2.283994e+00 2.613180e+00
      vertex   8.000000e+00 1.785890e+00 3.193839e+00
    endloop
  endfacet
  facet normal -1.000000e+00 -0.000000e+00 -0.000000e+00
    outer loop
      vertex   8.000000e+00 1.785890e+00 3.193839e+00
      vertex   8.000000e+00 2.283994e+00 2.613180e+00
      vertex   8.000000e+00 1.762652e+00 3.200767e+00
    endloop
  endfacet
  facet normal -1.000000e+00 -0.000000e+00 -0.000000e+00
    outer loop
      vertex   8.000000e+00 1.762652e+00 3.200767e+00
      vertex   8.000000e+00 2.283994e+00 2.613180e+00
      vertex   8.000000e+00 1.739259e+00 3.207096e+00
    endloop
  endfacet
  facet normal -1.000000e+00 0.000000e+00 0.000000e+00
    outer loop
      vertex   8.000000e+00 1.739259e+00 3.207096e+00
      vertex   8.000000e+00 2.283994e+00 2.613180e+00
      vertex   8.000000e+00 2.286769e+00 2.585027e+00
    endloop
  endfacet
  facet normal -1.000000e+00 -0.000000e+00 -0.000000e+00
    outer loop
      vertex   8.000000e+00 1.739259e+00 3.207096e+00
      vertex   8.000000e+00 2.286769e+00 2.585027e+00
      vertex   8.000000e+00 1.715724e+00 3.212827e+00
    endloop
  endfacet
  facet normal -1.000000e+00 -0.000000e+00 -0.000000e+00
    outer loop
      vertex   8.000000e+00 1.715724e+00 3.212827e+00
      vertex   8.000000e+00 2.286769e+00 2.585027e+00
      vertex   8.000000e+00 1.692061e+00 3.217957e+00
    endloop
  endfacet
  facet normal -1.000000e+00 0.000000e+00 0.000000e+00
    outer loop
      vertex   8.000000e+00 1.692061e+00 3.217957e+00
      vertex   8.000000e+00 2.286769e+00 2.585027e+00
      vertex   8.000000e+00 2.288755e+00 2.556789e+00
    endloop
  endfacet
  facet normal -1.000000e+00 -0.000000e+00 -0.000000e+00
    outer loop
      vertex   8.000000e+00 1.692061e+00 3.217957e+00
      vertex   8.000000e+00 2.288755e+00 2.556789e+00
      vertex   8.000000e+00 1.668281e+00 3.222486e+00
    endloop
  endfacet
  facet normal -1.000000e+00 -0.000000e+00 -0.000000e+00
    outer loop
      vertex   8.000000e+00 1.668281e+00 3.222486e+00
      vertex   8.000000e+00 2.288755e+00 2.556789e+00
      vertex   8.000000e+00 1.644399e+00 3.226413e+00
    endloop
  endfacet
  facet normal -1.000000e+00 -0.000000e+00 -0.000000e+00
    outer loop
      vertex   8.000000e+00 1.644399e+00 3.226413e+00
      vertex   8.000000e+00 2.288755e+00 2.556789e+00
      vertex   8.000000e+00 1.620426e+00 3.229736e+00
    endloop
  endfacet
  facet normal -1.000000e+00 0.000000e+00 0.000000e+00
    outer loop
      vertex   8.000000e+00 1.620426e+00 3.229736e+00
      vertex   8.000000e+00 2.288755e+00 2.556789e+00
      vertex   8.000000e+00 2.289949e+00 2.528515e+00
    endloop
  endfacet
  facet normal -1.000000e+00 -0.000000e+00 -0.000000e+00
    outer loop
      vertex   8.000000e+00 1.620426e+00 3.229736e+00
      vertex   8.000000e+00 2.289949e+00 2.528515e+00
      vertex   8.000000e+00 1.596377e+00 3.232457e+00
    endloop
  endfacet
  facet normal -1.000000e+00 -0.000000e+00 -0.000000e+00
    outer loop
      vertex   8.000000e+00 1.596377e+00 3.232457e+00
      vertex   8.000000e+00 2.289949e+00 2.528515e+00
      vertex   8.000000e+00 1.572264e+00 3.234572e+00
    endloop
  endfacet
  facet normal -1.000000e+00 -0.000000e+00 -0.000000e+00
    outer loop
      vertex   8.000000e+00 1.572264e+00 3.234572e+00
      vertex   8.000000e+00 2.289949e+00 2.528515e+00
      vertex   8.000000e+00 1.548101e+00 3.236082e+00
    endloop
  endfacet
  facet normal -1.000000e+00 0.000000e+00 0.000000e+00
    outer loop
      vertex   8.000000e+00 1.548101e+00 3.236082e+00
      vertex   8.000000e+00 2.289949e+00 2.528515e+00
      vertex   8.000000e+00 2.290351e+00 2.500229e+00
    endloop
  endfacet
  facet normal -1.000000e+00 -0.000000e+00 -0.000000e+00
    outer loop
      vertex   8.000000e+00 1.548101e+00 3.236082e+00
      vertex   8.000000e+00 2.290351e+00 2.500229e+00
      vertex   8.000000e+00 1.523900e+00 3.236985e+00
    endloop
  endfacet
  facet normal -1.000000e+00 -0.000000e+00 -0.000000e+00
    outer loop
      vertex   8.000000e+00 1.523900e+00 3.236985e+00
      vertex   8.000000e+00 2.290351e+00 2.500229e+00
      vertex   8.000000e+00 1.499674e+00 3.237281e+00
    endloop
  endfacet
  facet normal -1.000000e+00 0.000000e+00 0.000000e+00
    outer loop
      vertex   8.000000e+00 1.499674e+00 3.237281e+00
      vertex   8.000000e+00 2.290351e+00 2.500229e+00
      vertex   8.000000e+00 1.500326e+00 1.762719e+00
    endloop
  endfacet
  facet normal -1.000000e+00 0.000000e+00 -0.000000e+00
    outer loop
      vertex   8.000000e+00 1.499674e+00 3.237281e+00
      vertex   8.000000e+00 1.500326e+00 1.762719e+00
      vertex   8.000000e+00 1.476100e+00 1.763015e+00
    endloop
  endfacet
  facet normal -1.000000e+00 -0.000000e+00 0.000000e+00
    outer loop
      vertex   8.000000e+00 2.289962e+00 2.471950e+00
      vertex   8.000000e+00 1.548799e+00 1.763954e+00
      vertex   8.000000e+00 2.290351e+00 2.500229e+00
    endloop
  endfacet
  facet normal -1.000000e+00 0.000000e+00 0.000000e+00
    outer loop
      vertex   8.000000e+00 2.290351e+00 2.500229e+00
      vertex   8.000000e+00 1.548799e+00 1.763954e+00
      vertex   8.000000e+00 1.524563e+00 1.763032e+00
    endloop
  endfacet
  facet normal -1.000000e+00 0.000000e+00 0.000000e+00
    outer loop
      vertex   8.000000e+00 2.290351e+00 2.500229e+00
      vertex   8.000000e+00 1.524563e+00 1.763032e+00
      vertex   8.000000e+00 1.500326e+00 1.762719e+00
    endloop
  endfacet
  facet normal -1.000000e+00 4.167385e-15 -1.740135e-16
    outer loop
      vertex   8.000000e+00 2.288782e+00 2.443697e+00
      vertex   8.000000e+00 1.621289e+00 1.770373e+00
      vertex   8.000000e+00 2.289962e+00 2.471950e+00
    endloop
  endfacet
  facet normal -1.000000e+00 -1.245506e-13 1.225071e-13
    outer loop
      vertex   8.000000e+00 2.289962e+00 2.471950e+00
      vertex   8.000000e+00 1.621289e+00 1.770373e+00
      vertex   8.000000e+00 1.597194e+00 1.767626e+00
    endloop
  endfacet
  facet normal -1.000000e+00 0.000000e+00 0.000000e+00
    outer loop
      vertex   8.000000e+00 2.289962e+00 2.471950e+00
      vertex   8.000000e+00 1.597194e+00 1.767626e+00
      vertex   8.000000e+00 1.573021e+00 1.765486e+00
    endloop
  endfacet
  facet normal -1.000000e+00 -0.000000e+00 0.000000e+00
    outer loop
      vertex   8.000000e+00 2.286812e+00 2.415488e+00
      vertex   8.000000e+00 1.692974e+00 1.782230e+00
      vertex   8.000000e+00 2.288782e+00 2.443697e+00
    endloop
  endfacet
  facet normal -1.000000e+00 0.000000e+00 0.000000e+00
    outer loop
      vertex   8.000000e+00 2.288782e+00 2.443697e+00
      vertex   8.000000e+00 1.692974e+00 1.782230e+00
      vertex   8.000000e+00 1.669192e+00 1.777677e+00
    endloop
  endfacet
  facet normal -1.000000e+00 0.000000e+00 0.000000e+00
    outer loop
      vertex   8.000000e+00 2.288782e+00 2.443697e+00
      vertex   8.000000e+00 1.669192e+00 1.777677e+00
      vertex   8.000000e+00 1.645292e+00 1.773724e+00
    endloop
  endfacet
  facet normal -1.000000e+00 -0.000000e+00 0.000000e+00
    outer loop
      vertex   8.000000e+00 2.284053e+00 2.387344e+00
      vertex   8.000000e+00 1.740133e+00 1.793127e+00
      vertex   8.000000e+00 2.286812e+00 2.415488e+00
    endloop
  endfacet
  facet normal -1.000000e+00 0.000000e+00 0.000000e+00
    outer loop
      vertex   8.000000e+00 2.286812e+00 2.415488e+00
      vertex   8.000000e+00 1.740133e+00 1.793127e+00
      vertex   8.000000e+00 1.716625e+00 1.787380e+00
    endloop
  endfacet
  facet normal -1.000000e+00 0.000000e+00 0.000000e+00
    outer loop
      vertex   8.000000e+00 2.286812e+00 2.415488e+00
      vertex   8.000000e+00 1.716625e+00 1.787380e+00
      vertex   8.000000e+00 1.692974e+00 1.782230e+00
    endloop
  endfacet
  facet normal -1.000000e+00 -0.000000e+00 0.000000e+00
    outer loop
      vertex   8.000000e+00 2.280505e+00 2.359283e+00
      vertex   8.000000e+00 1.809660e+00 1.813923e+00
      vertex   8.000000e+00 2.284053e+00 2.387344e+00
    endloop
  endfacet
  facet normal -1.000000e+00 -5.295182e-14 4.380718e-14
    outer loop
      vertex   8.000000e+00 2.284053e+00 2.387344e+00
      vertex   8.000000e+00 1.809660e+00 1.813923e+00
      vertex   8.000000e+00 1.786663e+00 1.806400e+00
    endloop
  endfacet
  facet normal -1.000000e+00 5.211920e-14 -4.615202e-14
    outer loop
      vertex   8.000000e+00 2.284053e+00 2.387344e+00
      vertex   8.000000e+00 1.786663e+00 1.806400e+00
      vertex   8.000000e+00 1.763483e+00 1.799468e+00
    endloop
  endfacet
  facet normal -1.000000e+00 -0.000000e+00 0.000000e+00
    outer loop
      vertex   8.000000e+00 2.276168e+00 2.331324e+00
      vertex   8.000000e+00 1.855050e+00 1.830729e+00
      vertex   8.000000e+00 2.280505e+00 2.359283e+00
    endloop
  endfacet
  facet normal -1.000000e+00 -5.697008e-14 4.585755e-14
    outer loop
      vertex   8.000000e+00 2.280505e+00 2.359283e+00
      vertex   8.000000e+00 1.855050e+00 1.830729e+00
      vertex   8.000000e+00 1.832460e+00 1.822033e+00
    endloop
  endfacet
  facet normal -1.000000e+00 5.622147e-14 -4.853963e-14
    outer loop
      vertex   8.000000e+00 2.280505e+00 2.359283e+00
      vertex   8.000000e+00 1.832460e+00 1.822033e+00
      vertex   8.000000e+00 1.809660e+00 1.813923e+00
    endloop
  endfacet
  facet normal -1.000000e+00 1.066783e-13 -8.344985e-14
    outer loop
      vertex   8.000000e+00 2.271044e+00 2.303487e+00
      vertex   8.000000e+00 1.899548e+00 1.849871e+00
      vertex   8.000000e+00 2.276168e+00 2.331324e+00
    endloop
  endfacet
  facet normal -1.000000e+00 0.000000e+00 0.000000e+00
    outer loop
      vertex   8.000000e+00 2.276168e+00 2.331324e+00
      vertex   8.000000e+00 1.899548e+00 1.849871e+00
      vertex   8.000000e+00 1.877417e+00 1.840009e+00
    endloop
  endfacet
  facet normal -1.000000e+00 0.000000e+00 0.000000e+00
    outer loop
      vertex   8.000000e+00 2.276168e+00 2.331324e+00
      vertex   8.000000e+00 1.877417e+00 1.840009e+00
      vertex   8.000000e+00 1.855050e+00 1.830729e+00
    endloop
  endfacet
  facet normal -1.000000e+00 -1.101058e-13 8.768077e-14
    outer loop
      vertex   8.000000e+00 2.265137e+00 2.275811e+00
      vertex   8.000000e+00 1.943032e+00 1.871324e+00
      vertex   8.000000e+00 2.271044e+00 2.303487e+00
    endloop
  endfacet
  facet normal -1.000000e+00 1.977596e-13 -1.459893e-13
    outer loop
      vertex   8.000000e+00 2.271044e+00 2.303487e+00
      vertex   8.000000e+00 1.943032e+00 1.871324e+00
      vertex   8.000000e+00 1.921430e+00 1.860313e+00
    endloop
  endfacet
  facet normal -1.000000e+00 -2.029556e-13 1.701296e-13
    outer loop
      vertex   8.000000e+00 2.271044e+00 2.303487e+00
      vertex   8.000000e+00 1.921430e+00 1.860313e+00
      vertex   8.000000e+00 1.899548e+00 1.849871e+00
    endloop
  endfacet
  facet normal -1.000000e+00 -0.000000e+00 0.000000e+00
    outer loop
      vertex   8.000000e+00 2.258453e+00 2.248324e+00
      vertex   8.000000e+00 1.985285e+00 1.895007e+00
      vertex   8.000000e+00 2.265137e+00 2.275811e+00
    endloop
  endfacet
  facet normal -1.000000e+00 0.000000e+00 0.000000e+00
    outer loop
      vertex   8.000000e+00 2.265137e+00 2.275811e+00
      vertex   8.000000e+00 1.985285e+00 1.895007e+00
      vertex   8.000000e+00 1.964322e+00 1.882891e+00
    endloop
  endfacet
  facet normal -1.000000e+00 0.000000e+00 0.000000e+00
    outer loop
      vertex   8.000000e+00 2.265137e+00 2.275811e+00
      vertex   8.000000e+00 1.964322e+00 1.882891e+00
      vertex   8.000000e+00 1.943032e+00 1.871324e+00
    endloop
  endfacet
  facet normal -1.000000e+00 -0.000000e+00 0.000000e+00
    outer loop
      vertex   8.000000e+00 2.250994e+00 2.221046e+00
      vertex   8.000000e+00 2.026172e+00 1.920865e+00
      vertex   8.000000e+00 2.258453e+00 2.248324e+00
    endloop
  endfacet
  facet normal -1.000000e+00 0.000000e+00 0.000000e+00
    outer loop
      vertex   8.000000e+00 2.258453e+00 2.248324e+00
      vertex   8.000000e+00 2.026172e+00 1.920865e+00
      vertex   8.000000e+00 2.005906e+00 1.907667e+00
    endloop
  endfacet
  facet normal -1.000000e+00 0.000000e+00 0.000000e+00
    outer loop
      vertex   8.000000e+00 2.258453e+00 2.248324e+00
      vertex   8.000000e+00 2.005906e+00 1.907667e+00
      vertex   8.000000e+00 1.985285e+00 1.895007e+00
    endloop
  endfacet
  facet normal -1.000000e+00 -0.000000e+00 0.000000e+00
    outer loop
      vertex   8.000000e+00 2.242764e+00 2.193998e+00
      vertex   8.000000e+00 2.065579e+00 1.948852e+00
      vertex   8.000000e+00 2.250994e+00 2.221046e+00
    endloop
  endfacet
  facet normal -1.000000e+00 0.000000e+00 0.000000e+00
    outer loop
      vertex   8.000000e+00 2.250994e+00 2.221046e+00
      vertex   8.000000e+00 2.065579e+00 1.948852e+00
      vertex   8.000000e+00 2.046068e+00 1.934595e+00
    endloop
  endfacet
  facet normal -1.000000e+00 0.000000e+00 0.000000e+00
    outer loop
      vertex   8.000000e+00 2.250994e+00 2.221046e+00
      vertex   8.000000e+00 2.046068e+00 1.934595e+00
      vertex   8.000000e+00 2.026172e+00 1.920865e+00
    endloop
  endfacet
  facet normal -1.000000e+00 0.000000e+00 0.000000e+00
    outer loop
      vertex   8.000000e+00 2.065579e+00 1.948852e+00
      vertex   8.000000e+00 2.242764e+00 2.193998e+00
      vertex   8.000000e+00 2.084690e+00 1.963629e+00
    endloop
  endfacet
  facet normal -1.000000e+00 0.000000e+00 0.000000e+00
    outer loop
      vertex   8.000000e+00 2.084690e+00 1.963629e+00
      vertex   8.000000e+00 2.242764e+00 2.193998e+00
      vertex   8.000000e+00 2.233766e+00 2.167200e+00
    endloop
  endfacet
  facet normal -1.000000e+00 0.000000e+00 0.000000e+00
    outer loop
      vertex   8.000000e+00 2.084690e+00 1.963629e+00
      vertex   8.000000e+00 2.233766e+00 2.167200e+00
      vertex   8.000000e+00 2.103388e+00 1.978920e+00
    endloop
  endfacet
  facet normal -1.000000e+00 0.000000e+00 0.000000e+00
    outer loop
      vertex   8.000000e+00 2.103388e+00 1.978920e+00
      vertex   8.000000e+00 2.233766e+00 2.167200e+00
      vertex   8.000000e+00 2.121658e+00 1.994721e+00
    endloop
  endfacet
  facet normal -1.000000e+00 0.000000e+00 0.000000e+00
    outer loop
      vertex   8.000000e+00 2.121658e+00 1.994721e+00
      vertex   8.000000e+00 2.233766e+00 2.167200e+00
      vertex   8.000000e+00 2.224004e+00 2.140671e+00
    endloop
  endfacet
  facet normal -1.000000e+00 0.000000e+00 0.000000e+00
    outer loop
      vertex   8.000000e+00 2.121658e+00 1.994721e+00
      vertex   8.000000e+00 2.224004e+00 2.140671e+00
      vertex   8.000000e+00 2.139484e+00 2.011025e+00
    endloop
  endfacet
  facet normal -1.000000e+00 0.000000e+00 0.000000e+00
    outer loop
      vertex   8.000000e+00 2.139484e+00 2.011025e+00
      vertex   8.000000e+00 2.224004e+00 2.140671e+00
      vertex   8.000000e+00 2.213481e+00 2.114430e+00
    endloop
  endfacet
  facet normal -1.000000e+00 0.000000e+00 0.000000e+00
    outer loop
      vertex   8.000000e+00 2.139484e+00 2.011025e+00
      vertex   8.000000e+00 2.213481e+00 2.114430e+00
      vertex   8.000000e+00 2.156854e+00 2.027826e+00
    endloop
  endfacet
  facet normal -1.000000e+00 0.000000e+00 0.000000e+00
    outer loop
      vertex   8.000000e+00 2.156854e+00 2.027826e+00
      vertex   8.000000e+00 2.213481e+00 2.114430e+00
      vertex   8.000000e+00 2.202200e+00 2.088499e+00
    endloop
  endfacet
  facet normal -1.000000e+00 2.234932e-13 -1.670332e-13
    outer loop
      vertex   8.000000e+00 2.156854e+00 2.027826e+00
      vertex   8.000000e+00 2.202200e+00 2.088499e+00
      vertex   8.000000e+00 2.173752e+00 2.045118e+00
    endloop
  endfacet
  facet normal -1.000000e+00 7.657063e-14 -7.068645e-14
    outer loop
      vertex   8.000000e+00 2.173752e+00 2.045118e+00
      vertex   8.000000e+00 2.202200e+00 2.088499e+00
      vertex   8.000000e+00 2.190164e+00 2.062896e+00
    endloop
  endfacet
  facet normal -1.000000e+00 -0.000000e+00 0.000000e+00
    outer loop
      vertex   8.000000e+00 1.763483e+00 1.799468e+00
      vertex   8.000000e+00 1.740133e+00 1.793127e+00
      vertex   8.000000e+00 2.284053e+00 2.387344e+00
    endloop
  endfacet
  facet normal -1.000000e+00 1.281923e-13 -1.231250e-13
    outer loop
      vertex   8.000000e+00 1.645292e+00 1.773724e+00
      vertex   8.000000e+00 1.621289e+00 1.770373e+00
      vertex   8.000000e+00 2.288782e+00 2.443697e+00
    endloop
  endfacet
  facet normal -1.000000e+00 -0.000000e+00 0.000000e+00
    outer loop
      vertex   8.000000e+00 1.573021e+00 1.765486e+00
      vertex   8.000000e+00 1.548799e+00 1.763954e+00
      vertex   8.000000e+00 2.289962e+00 2.471950e+00
    endloop
  endfacet
  facet normal -1.000000e+00 0.000000e+00 0.000000e+00
    outer loop
      vertex   8.000000e+00 1.499674e+00 3.237281e+00
      vertex   8.000000e+00 1.476100e+00 1.763015e+00
      vertex   8.000000e+00 1.475437e+00 3.236968e+00
    endloop
  endfacet
  facet normal -1.000000e+00 0.000000e+00 -0.000000e+00
    outer loop
      vertex   8.000000e+00 1.475437e+00 3.236968e+00
      vertex   8.000000e+00 1.476100e+00 1.763015e+00
      vertex   8.000000e+00 1.451899e+00 1.763918e+00
    endloop
  endfacet
  facet normal -1.000000e+00 0.000000e+00 0.000000e+00
    outer loop
      vertex   8.000000e+00 1.475437e+00 3.236968e+00
      vertex   8.000000e+00 1.451899e+00 1.763918e+00
      vertex   8.000000e+00 1.451201e+00 3.236046e+00
    endloop
  endfacet
  facet normal -1.000000e+00 0.000000e+00 -0.000000e+00
    outer loop
      vertex   8.000000e+00 1.451201e+00 3.236046e+00
      vertex   8.000000e+00 1.451899e+00 1.763918e+00
      vertex   8.000000e+00 1.427736e+00 1.765428e+00
    endloop
  endfacet
  facet normal -1.000000e+00 0.000000e+00 0.000000e+00
    outer loop
      vertex   8.000000e+00 1.451201e+00 3.236046e+00
      vertex   8.000000e+00 1.427736e+00 1.765428e+00
      vertex   8.000000e+00 1.426979e+00 3.234514e+00
    endloop
  endfacet
  facet normal -1.000000e+00 0.000000e+00 -0.000000e+00
    outer loop
      vertex   8.000000e+00 1.426979e+00 3.234514e+00
      vertex   8.000000e+00 1.427736e+00 1.765428e+00
      vertex   8.000000e+00 1.403623e+00 1.767543e+00
    endloop
  endfacet
  facet normal -1.000000e+00 0.000000e+00 0.000000e+00
    outer loop
      vertex   8.000000e+00 1.426979e+00 3.234514e+00
      vertex   8.000000e+00 1.403623e+00 1.767543e+00
      vertex   8.000000e+00 1.402806e+00 3.232374e+00
    endloop
  endfacet
  facet normal -1.000000e+00 0.000000e+00 -0.000000e+00
    outer loop
      vertex   8.000000e+00 1.402806e+00 3.232374e+00
      vertex   8.000000e+00 1.403623e+00 1.767543e+00
      vertex   8.000000e+00 1.379574e+00 1.770264e+00
    endloop
  endfacet
  facet normal -1.000000e+00 0.000000e+00 0.000000e+00
    outer loop
      vertex   8.000000e+00 1.402806e+00 3.232374e+00
      vertex   8.000000e+00 1.379574e+00 1.770264e+00
      vertex   8.000000e+00 1.378711e+00 3.229627e+00
    endloop
  endfacet
  facet normal -1.000000e+00 0.000000e+00 -0.000000e+00
    outer loop
      vertex   8.000000e+00 1.378711e+00 3.229627e+00
      vertex   8.000000e+00 1.379574e+00 1.770264e+00
      vertex   8.000000e+00 1.355601e+00 1.773587e+00
    endloop
  endfacet
  facet normal -1.000000e+00 0.000000e+00 0.000000e+00
    outer loop
      vertex   8.000000e+00 1.378711e+00 3.229627e+00
      vertex   8.000000e+00 1.355601e+00 1.773587e+00
      vertex   8.000000e+00 1.354708e+00 3.226276e+00
    endloop
  endfacet
  facet normal -1.000000e+00 0.000000e+00 -0.000000e+00
    outer loop
      vertex   8.000000e+00 1.354708e+00 3.226276e+00
      vertex   8.000000e+00 1.355601e+00 1.773587e+00
      vertex   8.000000e+00 1.331719e+00 1.777514e+00
    endloop
  endfacet
  facet normal -1.000000e+00 0.000000e+00 0.000000e+00
    outer loop
      vertex   8.000000e+00 1.354708e+00 3.226276e+00
      vertex   8.000000e+00 1.331719e+00 1.777514e+00
      vertex   8.000000e+00 1.330808e+00 3.222323e+00
    endloop
  endfacet
  facet normal -1.000000e+00 0.000000e+00 -0.000000e+00
    outer loop
      vertex   8.000000e+00 1.330808e+00 3.222323e+00
      vertex   8.000000e+00 1.331719e+00 1.777514e+00
      vertex   8.000000e+00 1.307939e+00 1.782043e+00
    endloop
  endfacet
  facet normal -1.000000e+00 -3.746044e-14 5.947959e-16
    outer loop
      vertex   8.000000e+00 1.330808e+00 3.222323e+00
      vertex   8.000000e+00 1.307939e+00 1.782043e+00
      vertex   8.000000e+00 1.307026e+00 3.217770e+00
    endloop
  endfacet
  facet normal -1.000000e+00 1.341295e-16 6.187115e-16
    outer loop
      vertex   8.000000e+00 1.307026e+00 3.217770e+00
      vertex   8.000000e+00 1.307939e+00 1.782043e+00
      vertex   8.000000e+00 1.284276e+00 1.787173e+00
    endloop
  endfacet
  facet normal -1.000000e+00 3.754776e-14 2.373141e-17
    outer loop
      vertex   8.000000e+00 1.307026e+00 3.217770e+00
      vertex   8.000000e+00 1.284276e+00 1.787173e+00
      vertex   8.000000e+00 1.283375e+00 3.212620e+00
    endloop
  endfacet
  facet normal -1.000000e+00 0.000000e+00 -0.000000e+00
    outer loop
      vertex   8.000000e+00 1.283375e+00 3.212620e+00
      vertex   8.000000e+00 1.284276e+00 1.787173e+00
      vertex   8.000000e+00 1.260741e+00 1.792904e+00
    endloop
  endfacet
  facet normal -1.000000e+00 0.000000e+00 0.000000e+00
    outer loop
      vertex   8.000000e+00 1.283375e+00 3.212620e+00
      vertex   8.000000e+00 1.260741e+00 1.792904e+00
      vertex   8.000000e+00 1.259867e+00 3.206873e+00
    endloop
  endfacet
  facet normal -1.000000e+00 0.000000e+00 -0.000000e+00
    outer loop
      vertex   8.000000e+00 1.259867e+00 3.206873e+00
      vertex   8.000000e+00 1.260741e+00 1.792904e+00
      vertex   8.000000e+00 1.237348e+00 1.799233e+00
    endloop
  endfacet
  facet normal -1.000000e+00 -3.820289e-14 6.111700e-16
    outer loop
      vertex   8.000000e+00 1.259867e+00 3.206873e+00
      vertex   8.000000e+00 1.237348e+00 1.799233e+00
      vertex   8.000000e+00 1.236517e+00 3.200532e+00
    endloop
  endfacet
  facet normal -1.000000e+00 1.889978e-16 6.339371e-16
    outer loop
      vertex   8.000000e+00 1.236517e+00 3.200532e+00
      vertex   8.000000e+00 1.237348e+00 1.799233e+00
      vertex   8.000000e+00 1.214110e+00 1.806161e+00
    endloop
  endfacet
  facet normal -1.000000e+00 3.830994e-14 2.134786e-17
    outer loop
      vertex   8.000000e+00 1.236517e+00 3.200532e+00
      vertex   8.000000e+00 1.214110e+00 1.806161e+00
      vertex   8.000000e+00 1.213337e+00 3.193600e+00
    endloop
  endfacet
  facet normal -1.000000e+00 7.722993e-14 4.303567e-17
    outer loop
      vertex   8.000000e+00 1.213337e+00 3.193600e+00
      vertex   8.000000e+00 1.214110e+00 1.806161e+00
      vertex   8.000000e+00 1.190340e+00 3.186077e+00
    endloop
  endfacet
  facet normal -1.000000e+00 -4.222944e-16 -1.294568e-15
    outer loop
      vertex   8.000000e+00 1.190340e+00 3.186077e+00
      vertex   8.000000e+00 1.214110e+00 1.806161e+00
      vertex   8.000000e+00 1.191043e+00 1.813686e+00
    endloop
  endfacet
  facet normal -1.000000e+00 -7.743572e-14 -1.334024e-15
    outer loop
      vertex   8.000000e+00 1.190340e+00 3.186077e+00
      vertex   8.000000e+00 1.191043e+00 1.813686e+00
      vertex   8.000000e+00 1.167540e+00 3.177967e+00
    endloop
  endfacet
  facet normal -1.000000e+00 0.000000e+00 0.000000e+00
    outer loop
      vertex   8.000000e+00 1.167540e+00 3.177967e+00
      vertex   8.000000e+00 1.191043e+00 1.813686e+00
      vertex   8.000000e+00 1.168184e+00 1.821797e+00
    endloop
  endfacet
  facet normal -1.000000e+00 0.000000e+00 -0.000000e+00
    outer loop
      vertex   8.000000e+00 1.167540e+00 3.177967e+00
      vertex   8.000000e+00 1.168184e+00 1.821797e+00
      vertex   8.000000e+00 1.144950e+00 3.169271e+00
    endloop
  endfacet
  facet normal -1.000000e+00 0.000000e+00 0.000000e+00
    outer loop
      vertex   8.000000e+00 1.144950e+00 3.169271e+00
      vertex   8.000000e+00 1.168184e+00 1.821797e+00
      vertex   8.000000e+00 1.145549e+00 1.830491e+00
    endloop
  endfacet
  facet normal -1.000000e+00 0.000000e+00 -0.000000e+00
    outer loop
      vertex   8.000000e+00 1.144950e+00 3.169271e+00
      vertex   8.000000e+00 1.145549e+00 1.830491e+00
      vertex   8.000000e+00 1.122583e+00 3.159991e+00
    endloop
  endfacet
  facet normal -1.000000e+00 0.000000e+00 0.000000e+00
    outer loop
      vertex   8.000000e+00 1.122583e+00 3.159991e+00
      vertex   8.000000e+00 1.145549e+00 1.830491e+00
      vertex   8.000000e+00 1.123154e+00 1.839764e+00
    endloop
  endfacet
  facet normal -1.000000e+00 0.000000e+00 -0.000000e+00
    outer loop
      vertex   8.000000e+00 1.122583e+00 3.159991e+00
      vertex   8.000000e+00 1.123154e+00 1.839764e+00
      vertex   8.000000e+00 1.100452e+00 3.150129e+00
    endloop
  endfacet
  facet normal -1.000000e+00 0.000000e+00 0.000000e+00
    outer loop
      vertex   8.000000e+00 1.100452e+00 3.150129e+00
      vertex   8.000000e+00 1.123154e+00 1.839764e+00
      vertex   8.000000e+00 1.101013e+00 1.849613e+00
    endloop
  endfacet
  facet normal -1.000000e+00 0.000000e+00 -0.000000e+00
    outer loop
      vertex   8.000000e+00 1.100452e+00 3.150129e+00
      vertex   8.000000e+00 1.101013e+00 1.849613e+00
      vertex   8.000000e+00 7.865191e-01 2.885570e+00
    endloop
  endfacet
  facet normal -1.000000e+00 0.000000e+00 -0.000000e+00
    outer loop
      vertex   8.000000e+00 7.865191e-01 2.885570e+00
      vertex   8.000000e+00 1.101013e+00 1.849613e+00
      vertex   8.000000e+00 7.760235e-01 2.140594e+00
    endloop
  endfacet
  facet normal -1.000000e+00 0.000000e+00 0.000000e+00
    outer loop
      vertex   8.000000e+00 7.865191e-01 2.885570e+00
      vertex   8.000000e+00 7.760235e-01 2.140594e+00
      vertex   8.000000e+00 7.759958e-01 2.859329e+00
    endloop
  endfacet
  facet normal -1.000000e+00 0.000000e+00 -0.000000e+00
    outer loop
      vertex   8.000000e+00 7.759958e-01 2.859329e+00
      vertex   8.000000e+00 7.760235e-01 2.140594e+00
      vertex   8.000000e+00 7.662724e-01 2.167083e+00
    endloop
  endfacet
  facet normal -1.000000e+00 0.000000e+00 0.000000e+00
    outer loop
      vertex   8.000000e+00 7.759958e-01 2.859329e+00
      vertex   8.000000e+00 7.662724e-01 2.167083e+00
      vertex   8.000000e+00 7.662335e-01 2.832800e+00
    endloop
  endfacet
  facet normal -1.000000e+00 0.000000e+00 -0.000000e+00
    outer loop
      vertex   8.000000e+00 7.662335e-01 2.832800e+00
      vertex   8.000000e+00 7.662724e-01 2.167083e+00
      vertex   8.000000e+00 7.572855e-01 2.193835e+00
    endloop
  endfacet
  facet normal -1.000000e+00 0.000000e+00 0.000000e+00
    outer loop
      vertex   8.000000e+00 7.662335e-01 2.832800e+00
      vertex   8.000000e+00 7.572855e-01 2.193835e+00
      vertex   8.000000e+00 7.572358e-01 2.806002e+00
    endloop
  endfacet
  facet normal -1.000000e+00 0.000000e+00 -0.000000e+00
    outer loop
      vertex   8.000000e+00 7.572358e-01 2.806002e+00
      vertex   8.000000e+00 7.572855e-01 2.193835e+00
      vertex   8.000000e+00 7.490657e-01 2.220830e+00
    endloop
  endfacet
  facet normal -1.000000e+00 0.000000e+00 0.000000e+00
    outer loop
      vertex   8.000000e+00 7.572358e-01 2.806002e+00
      vertex   8.000000e+00 7.490657e-01 2.220830e+00
      vertex   8.000000e+00 7.490058e-01 2.778954e+00
    endloop
  endfacet
  facet normal -1.000000e+00 0.000000e+00 -0.000000e+00
    outer loop
      vertex   8.000000e+00 7.490058e-01 2.778954e+00
      vertex   8.000000e+00 7.490657e-01 2.220830e+00
      vertex   8.000000e+00 7.416156e-01 2.248049e+00
    endloop
  endfacet
  facet normal -1.000000e+00 0.000000e+00 0.000000e+00
    outer loop
      vertex   8.000000e+00 7.490058e-01 2.778954e+00
      vertex   8.000000e+00 7.416156e-01 2.248049e+00
      vertex   8.000000e+00 7.415470e-01 2.751676e+00
    endloop
  endfacet
  facet normal -1.000000e+00 0.000000e+00 -0.000000e+00
    outer loop
      vertex   8.000000e+00 7.415470e-01 2.751676e+00
      vertex   8.000000e+00 7.416156e-01 2.248049e+00
      vertex   8.000000e+00 7.349380e-01 2.275472e+00
    endloop
  endfacet
  facet normal -1.000000e+00 0.000000e+00 0.000000e+00
    outer loop
      vertex   8.000000e+00 7.415470e-01 2.751676e+00
      vertex   8.000000e+00 7.349380e-01 2.275472e+00
      vertex   8.000000e+00 7.348625e-01 2.724189e+00
    endloop
  endfacet
  facet normal -1.000000e+00 0.000000e+00 -0.000000e+00
    outer loop
      vertex   8.000000e+00 7.348625e-01 2.724189e+00
      vertex   8.000000e+00 7.349380e-01 2.275472e+00
      vertex   8.000000e+00 7.290355e-01 2.303080e+00
    endloop
  endfacet
  facet normal -1.000000e+00 0.000000e+00 0.000000e+00
    outer loop
      vertex   8.000000e+00 7.348625e-01 2.724189e+00
      vertex   8.000000e+00 7.290355e-01 2.303080e+00
      vertex   8.000000e+00 7.289558e-01 2.696513e+00
    endloop
  endfacet
  facet normal -1.000000e+00 0.000000e+00 -0.000000e+00
    outer loop
      vertex   8.000000e+00 7.289558e-01 2.696513e+00
      vertex   8.000000e+00 7.290355e-01 2.303080e+00
      vertex   8.000000e+00 7.239109e-01 2.330854e+00
    endloop
  endfacet
  facet normal -1.000000e+00 0.000000e+00 0.000000e+00
    outer loop
      vertex   8.000000e+00 7.289558e-01 2.696513e+00
      vertex   8.000000e+00 7.239109e-01 2.330854e+00
      vertex   8.000000e+00 7.238317e-01 2.668676e+00
    endloop
  endfacet
  facet normal -1.000000e+00 0.000000e+00 -0.000000e+00
    outer loop
      vertex   8.000000e+00 7.238317e-01 2.668676e+00
      vertex   8.000000e+00 7.239109e-01 2.330854e+00
      vertex   8.000000e+00 7.195668e-01 2.358774e+00
    endloop
  endfacet
  facet normal -1.000000e+00 0.000000e+00 0.000000e+00
    outer loop
      vertex   8.000000e+00 7.238317e-01 2.668676e+00
      vertex   8.000000e+00 7.195668e-01 2.358774e+00
      vertex   8.000000e+00 7.194952e-01 2.640717e+00
    endloop
  endfacet
  facet normal -1.000000e+00 0.000000e+00 -0.000000e+00
    outer loop
      vertex   8.000000e+00 7.194952e-01 2.640717e+00
      vertex   8.000000e+00 7.195668e-01 2.358774e+00
      vertex   8.000000e+00 7.160060e-01 2.386820e+00
    endloop
  endfacet
  facet normal -1.000000e+00 0.000000e+00 0.000000e+00
    outer loop
      vertex   8.000000e+00 7.194952e-01 2.640717e+00
      vertex   8.000000e+00 7.160060e-01 2.386820e+00
      vertex   8.000000e+00 7.159471e-01 2.612656e+00
    endloop
  endfacet
  facet normal -1.000000e+00 0.000000e+00 -0.000000e+00
    outer loop
      vertex   8.000000e+00 7.159471e-01 2.612656e+00
      vertex   8.000000e+00 7.160060e-01 2.386820e+00
      vertex   8.000000e+00 7.132312e-01 2.414973e+00
    endloop
  endfacet
  facet normal -1.000000e+00 -3.743453e-13 5.142986e-15
    outer loop
      vertex   8.000000e+00 7.159471e-01 2.612656e+00
      vertex   8.000000e+00 7.132312e-01 2.414973e+00
      vertex   8.000000e+00 7.131878e-01 2.584512e+00
    endloop
  endfacet
  facet normal -1.000000e+00 7.476041e-14 5.257939e-15
    outer loop
      vertex   8.000000e+00 7.131878e-01 2.584512e+00
      vertex   8.000000e+00 7.132312e-01 2.414973e+00
      vertex   8.000000e+00 7.112453e-01 2.443211e+00
    endloop
  endfacet
  facet normal -1.000000e+00 4.493440e-13 1.083331e-16
    outer loop
      vertex   8.000000e+00 7.131878e-01 2.584512e+00
      vertex   8.000000e+00 7.112453e-01 2.443211e+00
      vertex   8.000000e+00 7.112180e-01 2.556303e+00
    endloop
  endfacet
  facet normal -1.000000e+00 0.000000e+00 -0.000000e+00
    outer loop
      vertex   8.000000e+00 7.112180e-01 2.556303e+00
      vertex   8.000000e+00 7.112453e-01 2.443211e+00
      vertex   8.000000e+00 7.100513e-01 2.471485e+00
    endloop
  endfacet
  facet normal -1.000000e+00 0.000000e+00 0.000000e+00
    outer loop
      vertex   8.000000e+00 7.112180e-01 2.556303e+00
      vertex   8.000000e+00 7.100513e-01 2.471485e+00
      vertex   8.000000e+00 7.100382e-01 2.528050e+00
    endloop
  endfacet
  facet normal -1.000000e+00 0.000000e+00 -0.000000e+00
    outer loop
      vertex   8.000000e+00 7.100382e-01 2.528050e+00
      vertex   8.000000e+00 7.100513e-01 2.471485e+00
      vertex   8.000000e+00 7.096491e-01 2.499771e+00
    endloop
  endfacet
  facet normal -1.000000e+00 0.000000e+00 0.000000e+00
    outer loop
      vertex   8.000000e+00 1.101013e+00 1.849613e+00
      vertex   8.000000e+00 1.079137e+00 1.860033e+00
      vertex   8.000000e+00 7.760235e-01 2.140594e+00
    endloop
  endfacet
  facet normal -1.000000e+00 0.000000e+00 0.000000e+00
    outer loop
      vertex   8.000000e+00 7.760235e-01 2.140594e+00
      vertex   8.000000e+00 1.079137e+00 1.860033e+00
      vertex   8.000000e+00 1.057543e+00 1.871021e+00
    endloop
  endfacet
  facet normal -1.000000e+00 0.000000e+00 0.000000e+00
    outer loop
      vertex   8.000000e+00 7.760235e-01 2.140594e+00
      vertex   8.000000e+00 1.057543e+00 1.871021e+00
      vertex   8.000000e+00 1.036243e+00 1.882574e+00
    endloop
  endfacet
  facet normal -1.000000e+00 0.000000e+00 0.000000e+00
    outer loop
      vertex   8.000000e+00 1.036243e+00 1.882574e+00
      vertex   8.000000e+00 1.015251e+00 1.894689e+00
      vertex   8.000000e+00 7.760235e-01 2.140594e+00
    endloop
  endfacet
  facet normal -1.000000e+00 0.000000e+00 0.000000e+00
    outer loop
      vertex   8.000000e+00 7.760235e-01 2.140594e+00
      vertex   8.000000e+00 1.015251e+00 1.894689e+00
      vertex   8.000000e+00 9.945811e-01 1.907361e+00
    endloop
  endfacet
  facet normal -1.000000e+00 0.000000e+00 0.000000e+00
    outer loop
      vertex   8.000000e+00 7.760235e-01 2.140594e+00
      vertex   8.000000e+00 9.945811e-01 1.907361e+00
      vertex   8.000000e+00 7.865364e-01 2.114387e+00
    endloop
  endfacet
  facet normal -1.000000e+00 0.000000e+00 0.000000e+00
    outer loop
      vertex   8.000000e+00 7.865364e-01 2.114387e+00
      vertex   8.000000e+00 9.945811e-01 1.907361e+00
      vertex   8.000000e+00 9.742511e-01 1.920584e+00
    endloop
  endfacet
  facet normal -1.000000e+00 0.000000e+00 0.000000e+00
    outer loop
      vertex   8.000000e+00 7.865364e-01 2.114387e+00
      vertex   8.000000e+00 9.742511e-01 1.920584e+00
      vertex   8.000000e+00 9.542917e-01 1.934344e+00
    endloop
  endfacet
  facet normal -1.000000e+00 0.000000e+00 0.000000e+00
    outer loop
      vertex   8.000000e+00 9.542917e-01 1.934344e+00
      vertex   8.000000e+00 9.347198e-01 1.948633e+00
      vertex   8.000000e+00 7.865364e-01 2.114387e+00
    endloop
  endfacet
  facet normal -1.000000e+00 0.000000e+00 0.000000e+00
    outer loop
      vertex   8.000000e+00 7.865364e-01 2.114387e+00
      vertex   8.000000e+00 9.347198e-01 1.948633e+00
      vertex   8.000000e+00 9.155507e-01 1.963443e+00
    endloop
  endfacet
  facet normal -1.000000e+00 0.000000e+00 0.000000e+00
    outer loop
      vertex   8.000000e+00 7.865364e-01 2.114387e+00
      vertex   8.000000e+00 9.155507e-01 1.963443e+00
      vertex   8.000000e+00 8.967993e-01 1.978769e+00
    endloop
  endfacet
  facet normal -1.000000e+00 0.000000e+00 0.000000e+00
    outer loop
      vertex   8.000000e+00 8.967993e-01 1.978769e+00
      vertex   8.000000e+00 8.784807e-01 1.994603e+00
      vertex   8.000000e+00 7.865364e-01 2.114387e+00
    endloop
  endfacet
  facet normal -1.000000e+00 0.000000e+00 0.000000e+00
    outer loop
      vertex   8.000000e+00 7.865364e-01 2.114387e+00
      vertex   8.000000e+00 8.784807e-01 1.994603e+00
      vertex   8.000000e+00 8.606101e-01 2.010940e+00
    endloop
  endfacet
  facet normal -1.000000e+00 0.000000e+00 0.000000e+00
    outer loop
      vertex   8.000000e+00 7.865364e-01 2.114387e+00
      vertex   8.000000e+00 8.606101e-01 2.010940e+00
      vertex   8.000000e+00 8.432024e-01 2.027772e+00
    endloop
  endfacet
  facet normal -1.000000e+00 0.000000e+00 0.000000e+00
    outer loop
      vertex   8.000000e+00 7.865364e-01 2.114387e+00
      vertex   8.000000e+00 8.432024e-01 2.027772e+00
      vertex   8.000000e+00 7.978081e-01 2.088481e+00
    endloop
  endfacet
  facet normal -1.000000e+00 0.000000e+00 0.000000e+00
    outer loop
      vertex   8.000000e+00 7.978081e-01 2.088481e+00
      vertex   8.000000e+00 8.432024e-01 2.027772e+00
      vertex   8.000000e+00 8.262727e-01 2.045093e+00
    endloop
  endfacet
  facet normal -1.000000e+00 -1.867178e-13 -1.224949e-13
    outer loop
      vertex   8.000000e+00 7.978081e-01 2.088481e+00
      vertex   8.000000e+00 8.262727e-01 2.045093e+00
      vertex   8.000000e+00 8.098361e-01 2.062896e+00
    endloop
  endfacet
  facet normal -1.000000e+00 0.000000e+00 -0.000000e+00
    outer loop
      vertex   8.000000e+00 7.978004e-01 2.911501e+00
      vertex   8.000000e+00 8.431459e-01 2.972174e+00
      vertex   8.000000e+00 7.865191e-01 2.885570e+00
    endloop
  endfacet
  facet normal -1.000000e+00 0.000000e+00 0.000000e+00
    outer loop
      vertex   8.000000e+00 7.865191e-01 2.885570e+00
      vertex   8.000000e+00 8.431459e-01 2.972174e+00
      vertex   8.000000e+00 8.605155e-01 2.988975e+00
    endloop
  endfacet
  facet normal -1.000000e+00 0.000000e+00 0.000000e+00
    outer loop
      vertex   8.000000e+00 7.865191e-01 2.885570e+00
      vertex   8.000000e+00 8.605155e-01 2.988975e+00
      vertex   8.000000e+00 8.783424e-01 3.005279e+00
    endloop
  endfacet
  facet normal -1.000000e+00 -1.868427e-13 1.225250e-13
    outer loop
      vertex   8.000000e+00 8.098361e-01 2.937104e+00
      vertex   8.000000e+00 8.262479e-01 2.954882e+00
      vertex   8.000000e+00 7.978004e-01 2.911501e+00
    endloop
  endfacet
  facet normal -1.000000e+00 0.000000e+00 0.000000e+00
    outer loop
      vertex   8.000000e+00 7.978004e-01 2.911501e+00
      vertex   8.000000e+00 8.262479e-01 2.954882e+00
      vertex   8.000000e+00 8.431459e-01 2.972174e+00
    endloop
  endfacet
  facet normal -1.000000e+00 0.000000e+00 -0.000000e+00
    outer loop
      vertex   8.000000e+00 8.783424e-01 3.005279e+00
      vertex   8.000000e+00 8.966119e-01 3.021080e+00
      vertex   8.000000e+00 7.865191e-01 2.885570e+00
    endloop
  endfacet
  facet normal -1.000000e+00 0.000000e+00 0.000000e+00
    outer loop
      vertex   8.000000e+00 7.865191e-01 2.885570e+00
      vertex   8.000000e+00 8.966119e-01 3.021080e+00
      vertex   8.000000e+00 9.153097e-01 3.036371e+00
    endloop
  endfacet
  facet normal -1.000000e+00 0.000000e+00 0.000000e+00
    outer loop
      vertex   8.000000e+00 7.865191e-01 2.885570e+00
      vertex   8.000000e+00 9.153097e-01 3.036371e+00
      vertex   8.000000e+00 9.344213e-01 3.051148e+00
    endloop
  endfacet
  facet normal -1.000000e+00 0.000000e+00 -0.000000e+00
    outer loop
      vertex   8.000000e+00 9.344213e-01 3.051148e+00
      vertex   8.000000e+00 9.539321e-01 3.065405e+00
      vertex   8.000000e+00 7.865191e-01 2.885570e+00
    endloop
  endfacet
  facet normal -1.000000e+00 0.000000e+00 0.000000e+00
    outer loop
      vertex   8.000000e+00 7.865191e-01 2.885570e+00
      vertex   8.000000e+00 9.539321e-01 3.065405e+00
      vertex   8.000000e+00 9.738277e-01 3.079135e+00
    endloop
  endfacet
  facet normal -1.000000e+00 0.000000e+00 0.000000e+00
    outer loop
      vertex   8.000000e+00 7.865191e-01 2.885570e+00
      vertex   8.000000e+00 9.738277e-01 3.079135e+00
      vertex   8.000000e+00 9.940935e-01 3.092333e+00
    endloop
  endfacet
  facet normal -1.000000e+00 2.245145e-13 -2.253949e-13
    outer loop
      vertex   8.000000e+00 9.940935e-01 3.092333e+00
      vertex   8.000000e+00 1.014715e+00 3.104993e+00
      vertex   8.000000e+00 7.865191e-01 2.885570e+00
    endloop
  endfacet
  facet normal -1.000000e+00 -2.241519e-13 2.412090e-13
    outer loop
      vertex   8.000000e+00 7.865191e-01 2.885570e+00
      vertex   8.000000e+00 1.014715e+00 3.104993e+00
      vertex   8.000000e+00 1.035678e+00 3.117109e+00
    endloop
  endfacet
  facet normal -1.000000e+00 0.000000e+00 0.000000e+00
    outer loop
      vertex   8.000000e+00 7.865191e-01 2.885570e+00
      vertex   8.000000e+00 1.035678e+00 3.117109e+00
      vertex   8.000000e+00 1.056968e+00 3.128676e+00
    endloop
  endfacet
  facet normal -1.000000e+00 0.000000e+00 -0.000000e+00
    outer loop
      vertex   8.000000e+00 1.056968e+00 3.128676e+00
      vertex   8.000000e+00 1.078570e+00 3.139687e+00
      vertex   8.000000e+00 7.865191e-01 2.885570e+00
    endloop
  endfacet
  facet normal -1.000000e+00 0.000000e+00 0.000000e+00
    outer loop
      vertex   8.000000e+00 7.865191e-01 2.885570e+00
      vertex   8.000000e+00 1.078570e+00 3.139687e+00
      vertex   8.000000e+00 1.100452e+00 3.150129e+00
    endloop
  endfacet
endsolid
