solid ASCII
  facet normal 0.000000e+00 1.000000e+00 3.416071e-16
    outer loop
      vertex   5.100000e+00 2.430000e+00 3.150000e+00
      vertex   5.100000e+00 2.430000e+00 1.850000e+00
      vertex   3.000000e+00 2.430000e+00 3.150000e+00
    endloop
  endfacet
  facet normal 0.000000e+00 1.000000e+00 3.416071e-16
    outer loop
      vertex   3.000000e+00 2.430000e+00 3.150000e+00
      vertex   5.100000e+00 2.430000e+00 1.850000e+00
      vertex   3.000000e+00 2.430000e+00 1.850000e+00
    endloop
  endfacet
  facet normal 0.000000e+00 4.775153e-16 1.000000e+00
    outer loop
      vertex   5.100000e+00 5.700000e-01 3.150000e+00
      vertex   5.100000e+00 2.430000e+00 3.150000e+00
      vertex   3.000000e+00 5.700000e-01 3.150000e+00
    endloop
  endfacet
  facet normal 0.000000e+00 4.775153e-16 1.000000e+00
    outer loop
      vertex   3.000000e+00 5.700000e-01 3.150000e+00
      vertex   5.100000e+00 2.430000e+00 3.150000e+00
      vertex   3.000000e+00 2.430000e+00 3.150000e+00
    endloop
  endfacet
  facet normal 0.000000e+00 -1.000000e+00 1.708035e-16
    outer loop
      vertex   5.100000e+00 5.700000e-01 1.850000e+00
      vertex   5.100000e+00 5.700000e-01 3.150000e+00
      vertex   3.000000e+00 5.700000e-01 1.850000e+00
    endloop
  endfacet
  facet normal 0.000000e+00 -1.000000e+00 1.708035e-16
    outer loop
      vertex   3.000000e+00 5.700000e-01 1.850000e+00
      vertex   5.100000e+00 5.700000e-01 3.150000e+00
      vertex   3.000000e+00 5.700000e-01 3.150000e+00
    endloop
  endfacet
  facet normal -0.000000e+00 -0.000000e+00 -1.000000e+00
    outer loop
      vertex   5.100000e+00 2.430000e+00 1.850000e+00
      vertex   5.100000e+00 5.700000e-01 1.850000e+00
      vertex   3.000000e+00 2.430000e+00 1.850000e+00
    endloop
  endfacet
  facet normal 0.000000e+00 0.000000e+00 -1.000000e+00
    outer loop
      vertex   3.000000e+00 2.430000e+00 1.850000e+00
      vertex   5.100000e+00 5.700000e-01 1.850000e+00
      vertex   3.000000e+00 5.700000e-01 1.850000e+00
    endloop
  endfacet
  facet normal -1.000000e+00 0.000000e+00 0.000000e+00
    outer loop
      vertex   3.000000e+00 5.700000e-01 1.850000e+00
      vertex   3.000000e+00 5.700000e-01 3.150000e+00
      vertex   3.000000e+00 2.430000e+00 1.850000e+00
    endloop
  endfacet
  facet normal -1.000000e+00 0.000000e+00 0.000000e+00
    outer loop
      vertex   3.000000e+00 2.430000e+00 1.850000e+00
      vertex   3.000000e+00 5.700000e-01 3.150000e+00
      vertex   3.000000e+00 2.430000e+00 3.150000e+00
    endloop
  endfacet
  facet normal 1.000000e+00 0.000000e+00 0.000000e+00
    outer loop
      vertex   5.100000e+00 2.430000e+00 1.850000e+00
      vertex   5.100000e+00 2.430000e+00 3.150000e+00
      vertex   5.100000e+00 5.700000e-01 1.850000e+00
    endloop
  endfacet
  facet normal 1.000000e+00 0.000000e+00 0.000000e+00
    outer loop
      vertex   5.100000e+00 5.700000e-01 1.850000e+00
      vertex   5.100000e+00 2.430000e+00 3.150000e+00
      vertex   5.100000e+00 5.700000e-01 3.150000e+00
    endloop
  endfacet
endsolid
